<svg xmlns="http://www.w3.org/2000/svg" width="425" height="482" fill="none"><rect width="425" height="482" fill="#fff" rx="24"/><path fill="#353a3f" d="m33.7 57-.3-.1-.1-.3V44.5l.4-.1h2c.1 0 .3 0 .4.2l.2.2 3.2 5.7 3.1-5.7.2-.2c.1-.1.2-.2.5-.2h1.9l.3.1.1.4v11.7l-.1.3-.3.1H43l-.3-.1-.1-.3v-6.8l-2 3.8-.3.3h-1.7l-.2-.3-2-3.8v6.8l-.2.3-.3.1zm17 .2a4 4 0 0 1-1.7-.4c-.5-.2-.9-.6-1.2-1s-.4-.9-.4-1.4c0-.9.3-1.5 1-2s1.6-.9 2.8-1l2.2-.4v-.2c0-.5 0-.8-.2-1s-.6-.4-1-.4-.6 0-.9.2l-.5.6-.4.2h-2l-.3-.1-.1-.3c0-.2 0-.5.2-.7l.8-.9c.4-.3.7-.5 1.3-.7s1.1-.2 1.9-.2c.8 0 1.4 0 2 .2s1 .5 1.3.8c.4.3.6.7.8 1.1.2.5.2 1 .2 1.5v5.5l-.1.3-.3.1H54l-.3-.1a.4.4 0 0 1-.2-.3v-.7l-.6.7-1 .4-1.1.2zm.9-2c.4 0 .7-.1 1-.3.2-.1.5-.4.6-.7.2-.3.3-.7.3-1.2v-.2l-1.6.2c-.5.1-1 .3-1.2.5-.3.2-.4.4-.4.7 0 .2 0 .3.2.5l.5.3.6.1zM59 57l-.3-.1a.4.4 0 0 1-.1-.3v-8.8l.4-.2h2c.2 0 .3 0 .4.2l.1.3v.7a3.8 3.8 0 0 1 3-1.3c.7 0 1.4.1 1.9.4.5.3 1 .8 1.2 1.4.4.6.5 1.4.5 2.2v5l-.1.4-.3.1h-2.3l-.3-.1-.2-.3v-5c0-.5-.1-1-.4-1.3-.2-.3-.6-.4-1.2-.4-.5 0-.9.1-1.2.4-.2.3-.4.8-.4 1.3v5l-.1.3-.3.1zm14 .2a4 4 0 0 1-1.8-.4c-.5-.2-1-.6-1.2-1s-.5-.9-.5-1.4c0-.9.4-1.5 1-2 .8-.5 1.7-.9 2.8-1l2.3-.4v-.2c0-.5-.1-.8-.3-1s-.5-.4-1-.4c-.3 0-.6 0-.8.2-.2.2-.4.3-.5.6l-.4.2h-2l-.4-.1V50c0-.2 0-.5.2-.7l.7-.9c.3-.3.8-.5 1.3-.7s1.2-.2 2-.2c.7 0 1.4 0 2 .2s1 .5 1.3.8l.8 1.1.2 1.5v5.5l-.1.3-.3.1h-2.1l-.4-.1a.4.4 0 0 1 0-.3v-.7l-.7.7c-.2.2-.6.3-1 .4l-1.2.2zm.8-2 1-.3.6-.7.2-1.2v-.2l-1.5.2c-.6.1-1 .3-1.2.5-.3.2-.4.4-.4.7 0 .2 0 .3.2.5l.4.3.7.1zM85.3 61c-.9 0-1.7-.2-2.3-.4-.6-.2-1-.5-1.4-.9-.4-.3-.6-.6-.8-1l-.2-.7.1-.4.3-.1H83.6l.2.4.2.4.5.3.7.2 1-.2c.2-.1.4-.3.5-.6l.2-1v-1.2l-1.1.7c-.4.2-1 .3-1.6.3s-1.1 0-1.6-.3-.9-.4-1.2-.8a4.7 4.7 0 0 1-1-3v-1c0-.7.1-1.2.3-1.8s.4-1 .7-1.3c.3-.4.7-.6 1.2-.8a4 4 0 0 1 1.6-.3c.7 0 1.2 0 1.7.3l1.1 1V48c0-.1 0-.2.2-.3l.3-.2h2c.2 0 .3 0 .4.2l.1.3v8.6c0 1-.2 1.7-.5 2.4s-1 1-1.6 1.4-1.6.5-2.6.5zm-.1-6.5c.4 0 .7-.1 1-.3s.3-.4.5-.6l.2-.9v-1.1l-.2-.8-.6-.7-.9-.2c-.4 0-.7 0-1 .2l-.5.7-.1 1v.8l.1 1 .5.6c.3.2.6.3 1 .3zm11.3 2.7c-1.5 0-2.6-.4-3.4-1.2s-1.3-1.9-1.3-3.4V52c0-1 .2-1.8.6-2.5.4-.6 1-1.2 1.6-1.5.7-.4 1.5-.5 2.4-.5 1.1 0 2 .2 2.7.6.7.4 1.2 1 1.5 1.7s.5 1.5.5 2.5v.4l-.1.3-.3.1h-5.8v.1l.2 1 .5.7.8.3.6-.1a1.9 1.9 0 0 0 .7-.6l.3-.2h2.8l.1.3-.3.8-.8.8-1.4.7c-.5.2-1.2.3-2 .3zm-1.6-5.8h3l-.1-1c-.1-.4-.3-.6-.5-.7-.3-.2-.5-.3-.9-.3s-.6.1-.8.3c-.2.1-.4.3-.5.6l-.2 1zm17.5 5.8c-.7 0-1.2-.1-1.7-.4l-1.1-.8v.6l-.1.3-.4.1h-2l-.3-.1a.4.4 0 0 1-.1-.3V44.3h2.9l.2.4v3.8c.2-.3.6-.5 1-.7.5-.2 1-.3 1.6-.3.6 0 1.1 0 1.6.3.4.2.8.4 1.2.8s.5.8.7 1.3.3 1.1.3 1.8a12 12 0 0 1 0 1.3l-.3 1.8a4 4 0 0 1-.8 1.3l-1.1.8c-.5.2-1 .3-1.6.3zm-1-2.4c.4 0 .7-.1 1-.3s.4-.4.5-.7l.2-1v-1l-.2-1-.5-.7c-.2-.2-.6-.2-1-.2s-.7 0-.9.2l-.5.7c-.2.2-.2.5-.2.8V52.9l.1 1 .6.6c.2.2.5.3 1 .3zm7 2.2-.3-.1a.4.4 0 0 1 0-.3V44.3h2.8l.1.4V56.9l-.4.1zm9.2.2a6 6 0 0 1-2.6-.5c-.6-.3-1.2-.8-1.5-1.4-.4-.6-.6-1.3-.7-2.2a16.4 16.4 0 0 1 0-1.6c0-.8.3-1.6.7-2.2s1-1 1.6-1.4c.7-.3 1.5-.4 2.5-.4s1.8.1 2.5.4c.7.4 1.2.8 1.6 1.4s.6 1.4.7 2.2a15.7 15.7 0 0 1 0 1.6c0 .9-.3 1.6-.7 2.2-.3.6-.9 1-1.5 1.4a6 6 0 0 1-2.6.5zm0-2.2c.5 0 1-.2 1.2-.5.2-.3.4-.8.4-1.5v-1.4c0-.6-.2-1.1-.4-1.4-.3-.4-.7-.5-1.2-.5s-1 .1-1.2.5c-.2.3-.4.8-.4 1.4V53c0 .7.2 1.2.4 1.5s.7.5 1.2.5zm10.9 2.2c-1 0-1.7-.2-2.4-.5s-1.2-.8-1.6-1.4c-.4-.6-.7-1.4-.7-2.2a11.9 11.9 0 0 1 0-1.5c0-.9.3-1.6.7-2.2.4-.7.9-1.1 1.6-1.5.7-.3 1.5-.4 2.4-.4.8 0 1.5 0 2 .3.7.2 1.1.5 1.5.9l.8 1 .4 1c0 .1 0 .2-.2.3l-.3.2h-2.3l-.3-.1a.9.9 0 0 1-.2-.3c-.1-.4-.3-.6-.5-.8l-.9-.2c-.5 0-.8.1-1.1.4-.3.4-.4.8-.4 1.5V53c0 .6.1 1.1.4 1.4.3.3.6.5 1.1.5.4 0 .7-.1.9-.3l.5-.8.2-.2.3-.1h2.3l.3.1.2.3-.2.7-.5.9-1 .8c-.3.3-.7.5-1.2.6l-1.8.3zm6.7-.2-.3-.1a.4.4 0 0 1-.1-.3v-12l.1-.3H147.6l.2.4v6l2.5-2.8.2-.2h3l.2.3v.2l-.2.1-3.2 3.5 3.7 4.5.1.3a.4.4 0 0 1-.4.4h-2.9c0-.2-.1-.2-.2-.3l-2.8-3.4v3.2c0 .2 0 .3-.2.4l-.3.1zm10.5 0-.3-.1a.4.4 0 0 1-.1-.3v-12l.1-.3h2.8l.1.4v11.9l-.1.3-.3.1zm5.8 0-.3-.1a.4.4 0 0 1-.2-.3V48c0-.1 0-.2.2-.3l.3-.2h2.1c.1 0 .2 0 .3.2l.2.3v8.5s0 .2-.2.3l-.3.1zm0-10.7-.3-.1-.2-.4v-1.6s0-.2.2-.3l.3-.1h2.1l.3.1.2.3v1.6c0 .2 0 .3-.2.4h-.3zm8.9 10.9a7 7 0 0 1-2-.3 5 5 0 0 1-1.4-.6 3 3 0 0 1-.7-.8l-.3-.7.1-.3.3-.2h2.1l.2.1.5.4.5.3.7.1c.4 0 .7 0 .9-.2s.3-.3.3-.6l-.1-.4c-.1-.2-.4-.3-.7-.4l-1.5-.4-1.6-.5c-.5-.3-.8-.6-1-1a2.5 2.5 0 0 1 0-2.7c.3-.5.8-.8 1.4-1.1a5 5 0 0 1 2.2-.4 5.7 5.7 0 0 1 3 .8l.9.8.3.7-.1.3-.3.2h-2l-.2-.1-.4-.3-.5-.3-.7-.2c-.3 0-.6 0-.8.2l-.2.6v.4l.7.4 1.5.3c.8.2 1.5.4 2 .7.5.3.8.6 1 1a2.6 2.6 0 0 1-.2 2.8c-.3.4-.8.8-1.5 1-.7.3-1.5.4-2.4.4zm10.8-.2a5 5 0 0 1-2-.4c-.5-.2-1-.6-1.3-1.1a4 4 0 0 1-.4-2V50H176l-.4-.1-.1-.4v-1.4l.1-.3.4-.2h1.4v-3l.1-.3H180.3l.2.4v3h2.5l.2.4v1.4c0 .2 0 .3-.2.4l-.3.1h-2.2v3.2c0 .4 0 .7.2 1s.4.3.8.3h1.4c.1 0 .2 0 .3.2l.1.3v1.6l-.1.3-.3.1zm7.5.2a7 7 0 0 1-2-.3 5 5 0 0 1-1.4-.6 3 3 0 0 1-.7-.8l-.3-.7.1-.3.3-.2h2.2v.1l.6.4.5.3.7.1c.4 0 .7 0 .9-.2s.3-.3.3-.6l-.1-.4c-.1-.2-.4-.3-.7-.4l-1.5-.4-1.6-.5c-.5-.3-.8-.6-1.1-1a2.5 2.5 0 0 1 0-2.7c.4-.5.9-.8 1.5-1.1a5 5 0 0 1 2.2-.4 5.7 5.7 0 0 1 3 .8l.9.8.3.7-.1.3-.3.2h-2l-.2-.1-.4-.3-.5-.3-.7-.2c-.3 0-.6 0-.8.2l-.3.6.2.4c.1.2.3.3.6.4l1.5.3c.8.2 1.5.4 2 .7.5.3.8.6 1 1a2.6 2.6 0 0 1-.2 2.8c-.3.4-.8.8-1.5 1-.7.3-1.5.4-2.4.4z"/><path fill="#9ca4ac" d="M36.3 94.1c-.8 0-1.4-.1-2-.4a3 3 0 0 1-1.2-1c-.3-.5-.5-1.1-.5-1.8v-2.2c0-.7.2-1.3.5-1.8.3-.4.7-.8 1.2-1 .6-.3 1.2-.4 2-.4a4 4 0 0 1 2.7.8c.3.2.5.5.6.8l.3.8v.2H38l-.2-.1-.2-.4-.5-.4-.8-.2c-.5 0-1 .2-1.2.4-.3.3-.5.7-.5 1.3v2.1c0 .6.2 1 .5 1.4a2.2 2.2 0 0 0 2 .2l.7-.5c.2-.2.2-.6.2-1v-.3h-1.5v-1.3H39.9v1.5c0 .7-.1 1.3-.4 1.8a3 3 0 0 1-1.3 1.1c-.5.3-1.2.4-2 .4zm7.8 0a3 3 0 0 1-2.2-.7c-.6-.6-.9-1.3-.9-2.3v-.5c0-.6.2-1.1.4-1.6.3-.4.6-.8 1-1 .5-.2 1-.4 1.6-.4.7 0 1.3.2 1.7.5.5.2.8.6 1 1 .3.6.4 1.1.4 1.7v.3l-.1.2h-4.2v.1l.2.8.4.5.6.2.5-.1.3-.2.2-.2.2-.2h1.7v.3s0 .3-.2.4l-.5.6-1 .4c-.3.2-.7.2-1.1.2zm-1.2-3.8h2.3l-.1-.8-.4-.5-.7-.2-.6.2-.4.5-.1.8zm5.7 3.7h-.2l-.1-.3V87.8H50v.7a2.5 2.5 0 0 1 2-.9c.5 0 1 .1 1.3.4.4.2.6.5.8.9.2.4.4.9.4 1.5v3.3l-.1.2-.2.1h-1.5l-.1-.3v-3.3c0-.4-.1-.7-.3-1-.2-.2-.5-.3-1-.3-.3 0-.6.1-.8.3-.2.3-.4.6-.4 1V94l-.2.1zm10 .1a3 3 0 0 1-2.1-.7c-.6-.6-.8-1.3-.9-2.3v-.5c0-.6.2-1.1.4-1.6.3-.4.6-.8 1-1 .5-.2 1-.4 1.7-.4.6 0 1.2.2 1.6.5.5.2.8.6 1 1 .3.6.4 1.1.4 1.7v.5h-4.3v.1l.2.8.4.5.6.2.5-.1.4-.2.1-.2.2-.2h1.7v.3s0 .3-.2.4c0 .2-.3.4-.5.6-.2.2-.5.3-.9.4-.4.2-.8.2-1.2.2zm-1.1-3.8h2.3l-.1-.8-.4-.5-.6-.2-.7.2-.4.5-.1.8zm5.7 3.7H63v-6.1l.2-.1h1.4v.7l.8-.5c.3-.2.6-.2 1-.2h.7l.1.3v1.2h-1.3c-.4 0-.6.2-.8.4-.2.2-.3.5-.3.8v3.2l-.1.2-.2.1zm6.7.1c-.5 0-.9 0-1.2-.2l-.8-.7c-.2-.3-.3-.6-.3-1 0-.5.2-1 .7-1.3.5-.3 1-.5 1.8-.6l1.6-.3v-.2c0-.3 0-.5-.2-.7s-.4-.3-.8-.3c-.2 0-.5 0-.6.2l-.4.4c0 .1-.1.2-.3.2h-1.1l-.2-.1v-.7c0-.2.3-.3.6-.5l.8-.5 1.2-.2 1.3.2.9.5.5.8.1.9V93.9l-.3.1h-1.4v-.7a2 2 0 0 1-1 .7l-1 .1zm.4-1.2c.3 0 .5 0 .7-.2l.5-.5.2-.9v-.2l-1.1.2c-.4 0-.8.2-1 .3s-.3.3-.3.5 0 .3.2.4l.4.3h.4zm5 1.1H75l-.1-.3v-8.1l.3-.1h1.4V94l-.2.1z"/><path fill="#353a3f" d="M32.5 132h-.2l-.1-.3v-.1l3.3-9 .2-.3.3-.1h1.8l.4.1.1.3 3.4 9v.1l-.1.2-.2.1h-1.5l-.3-.1-.1-.2-.6-1.5h-4l-.5 1.5-.2.2-.3.1zm3-3.7h2.9l-1.5-4zm9.9 3.8c-.5 0-1 0-1.3-.2-.4-.1-.7-.4-1-.7l-.5-1a5.5 5.5 0 0 1-.2-1.8 8.6 8.6 0 0 1 .2-1.8c.1-.4.3-.8.6-1 .2-.4.5-.6.9-.8a3 3 0 0 1 1.3-.2c.4 0 .9 0 1.2.2l.9.7v-3.3l.3-.1h1.7v9.8l-.2.1h-1.4l-.2-.1-.1-.2v-.5l-1 .7a3 3 0 0 1-1.2.2zm.6-1.6c.3 0 .6-.1.8-.3.2-.1.4-.3.5-.6l.2-.8a5 5 0 0 0 0-1l-.2-.7c-.1-.3-.3-.5-.5-.6-.2-.2-.5-.2-.8-.2-.4 0-.6 0-.8.2-.2.1-.4.3-.5.6l-.1.8a4.5 4.5 0 0 0 .1 1.7c.1.3.3.5.5.6.2.2.4.3.8.3zm9.5 1.6c-1 0-1.7-.1-2.3-.4-.6-.3-1.1-.7-1.4-1.3-.4-.6-.6-1.2-.6-2v-2.6c0-.8.2-1.5.6-2 .3-.6.8-1 1.4-1.3.6-.3 1.4-.4 2.3-.4.6 0 1.3 0 1.8.2s1 .4 1.3.7l.8 1c.2.3.3.6.3 1v.1l-.3.1h-2l-.1-.2c0-.2-.2-.3-.3-.5l-.6-.5-1-.1a2 2 0 0 0-1.3.4c-.4.3-.6.8-.6 1.5v2.5c0 .7.2 1.2.6 1.6.3.3.8.4 1.4.4.4 0 .7 0 1-.2.3-.1.6-.3.7-.6.2-.3.3-.7.3-1.1v-.4h-1.8v-1.5H59.7v1.8c0 .8-.1 1.5-.5 2-.3.6-.8 1-1.5 1.4-.6.3-1.4.4-2.2.4zm8.5 0c-.6 0-1 0-1.5-.3-.4-.3-.7-.6-1-1.1a4 4 0 0 1-.3-1.7v-4l.1-.2h2l.1.3v3.8c0 1 .5 1.6 1.4 1.6.4 0 .8-.2 1-.4.3-.3.4-.7.4-1.2V125l.1-.3h2v7.1l-.3.1h-1.3l-.3-.1v-.8l-1 .8c-.4.2-.9.2-1.4.2zm8.3 0c-.5 0-1 0-1.4-.2l-.9-.8c-.2-.4-.3-.7-.3-1.1 0-.7.2-1.2.8-1.6a5 5 0 0 1 2-.8l2-.2v-.3c0-.4-.2-.6-.3-.8s-.5-.3-1-.3c-.2 0-.5 0-.7.2l-.4.4c0 .2-.2.2-.3.2h-1.6v-.3l.1-.5.6-.7 1-.5 1.4-.2c.6 0 1 0 1.5.2l1 .6c.2.3.5.5.6.9l.2 1v4.3l-.1.3-.3.1h-1.4l-.2-.1v-.8a2.3 2.3 0 0 1-1.3.9l-1 .1zm.5-1.4c.3 0 .6 0 .9-.2.2-.1.4-.3.5-.6l.2-1v-.3l-1.3.2c-.5.1-.8.2-1 .4-.3.2-.4.4-.4.6l.1.5.5.3h.5zm5.8 1.3-.2-.1-.1-.2V124.8h1.9l.1.3v.5c.3-.3.5-.5.9-.6.3-.2.7-.3 1.2-.3h.6l.2.1.1.3v1.2l-.1.2-.2.1h-1.3c-.4 0-.7.1-1 .4-.2.2-.3.5-.3 1v3.9l-.3.1zm8.4.1c-.5 0-1 0-1.3-.2l-1-.7-.5-1a5.5 5.5 0 0 1-.2-1.8 8.6 8.6 0 0 1 .2-1.8c.1-.4.3-.8.6-1 .2-.4.5-.6.9-.8a3 3 0 0 1 1.3-.2c.4 0 .9 0 1.2.2l.9.7v-3.3l.3-.1h1.7v9.8l-.2.1h-1.4l-.2-.1-.1-.2v-.5l-1 .7a3 3 0 0 1-1.2.2zm.6-1.6c.4 0 .6-.1.8-.3.2-.1.4-.3.5-.6l.2-.8a5 5 0 0 0 0-1l-.2-.7c-.1-.3-.3-.5-.5-.6-.2-.2-.5-.2-.8-.2-.3 0-.6 0-.8.2-.2.1-.4.3-.5.6l-.1.8a4.5 4.5 0 0 0 .1 1.7c.1.3.3.5.5.6.2.2.5.3.8.3zm9 1.5-.3-.1V122.3l.3-.1h3.5c1 0 1.7.1 2.3.4.6.3 1.1.8 1.4 1.3.4.6.6 1.3.6 2.1v2.1c0 1-.2 1.7-.5 2.2a3 3 0 0 1-1.4 1.3c-.7.3-1.4.4-2.4.4zm1.8-1.8h1.7c.4 0 .8 0 1.1-.2l.7-.7.2-1.2a22.2 22.2 0 0 0 0-2c0-.7-.2-1.3-.5-1.6-.4-.3-.9-.5-1.6-.5h-1.6zm8 1.8-.2-.1V122.3l.3-.1h1.3l.3.1.1.2 3.7 5.8v-5.8a.3.3 0 0 1 .4-.3h1.4l.3.1V131.9l-.3.1h-1.3l-.3-.1-.1-.2-3.7-5.6v5.6l-.1.2-.3.1zm13.2.1c-.8 0-1.6 0-2.2-.4-.6-.2-1-.6-1.4-1s-.4-.8-.5-1.3l.1-.2.2-.1h1.8l.2.3.3.4.6.4 1 .1c.6 0 1 0 1.3-.3.3-.2.5-.4.5-.8 0-.2-.1-.4-.3-.5-.1-.2-.4-.3-.8-.5a15 15 0 0 0-1.3-.3l-1.8-.6c-.5-.3-.9-.6-1.1-1-.3-.3-.4-.8-.4-1.4s.2-1 .5-1.4a3 3 0 0 1 1.3-1c.5-.3 1.2-.4 2-.4a5 5 0 0 1 1.6.2c.5.2.9.4 1.2.7l.8.8c.2.3.2.6.2 1v.1l-.3.1h-1.8l-.2-.2c0-.3-.2-.5-.5-.7l-1-.2a2 2 0 0 0-1.1.2c-.3.2-.4.4-.4.8 0 .2 0 .4.2.6l.7.4 1.3.3 2 .6c.6.2.8.6 1 1 .3.3.5.8.5 1.3 0 .7-.2 1.2-.6 1.7-.3.4-.8.7-1.4 1a6 6 0 0 1-2.2.3zm9.5-.1-.2-.1-.1-.3v-5.2h-1.1l-.3-.1v-1.5h1.3v-.6c0-.6.2-1 .4-1.5s.5-.6 1-.8c.4-.2 1-.3 1.6-.3h3.2l.2.1.1.3v1a.3.3 0 0 1-.3.3h-3.2c-.3 0-.6 0-.7.2l-.2.8v.4h4l.3.1.1.3v6.5a.3.3 0 0 1-.3.4h-1.4l-.3-.1v-5.5h-2.4v5.2a.3.3 0 0 1-.3.4zm8.2 0-.2-.1-.1-.3V122.2l.3-.1h1.7v9.8l-.3.1zm7 0c-.6 0-1 0-1.5-.3a2 2 0 0 1-.9-.9c-.2-.4-.3-.9-.3-1.5v-3H140.2v-1.5h1.3v-2.4l.2-.2.2-.1h1.7V124.8h1.8l.3.1v1.3a.3.3 0 0 1-.3.3h-1.7v2.7l.1.9c.2.2.4.3.7.3h1.3v1.3a.3.3 0 0 1-.3.4zm6 .1c-1 0-1.9-.3-2.5-.9-.6-.6-1-1.4-1-2.6v-.6c0-.7.2-1.3.5-1.8s.7-1 1.2-1.2c.5-.3 1.1-.4 1.8-.4.8 0 1.5.1 2 .5.5.3 1 .7 1.2 1.3.3.5.4 1.2.4 1.9v.3l-.1.3H149v.1l.1.9.5.6.7.2.6-.1.4-.2.2-.3.2-.1h1.9s.1.1 0 .2l-.1.6-.7.6-1 .5c-.4.2-1 .2-1.5.2zm-1.3-4.4h2.7c0-.4 0-.7-.2-1 0-.2-.2-.4-.4-.5l-.8-.2a1.3 1.3 0 0 0-1.2.8l-.1.8zm6.6 4.3-.2-.1-.1-.3v-6.8h1.9l.1.3v.5l.9-.6c.3-.2.7-.3 1.2-.3h.6l.2.1.1.3v1.2a.3.3 0 0 1-.3.3h-1.2c-.5 0-.8.1-1 .4-.2.2-.4.5-.4 1v3.9l-.3.1zM33.3 152h-.2V143.6l.2-.1H34.1l.1.3v7h4l.2.1V152l-.2.1zm6.6 0h-.2v-6.2h1V152l-.2.1zm0-7.4h-.3V143.4l.2-.1h1V144.6l-.2.1zm4.9 7.5-1.2-.1c-.4-.1-.5-.3-.7-.5l-.5-.4a1 1 0 0 1-.2-.4l.1-.2.2-.1h.7v.1l.4.4c.1.2.3.2.5.2l.7.1c.4 0 .7 0 1-.2.3-.1.4-.4.4-.7 0-.2 0-.3-.2-.5l-.5-.3-1.2-.3-1.1-.4-.6-.6-.2-.8c0-.3.1-.5.3-.8l.7-.7a3.2 3.2 0 0 1 2.4-.1 2.3 2.3 0 0 1 1.2.8l.1.4v.2l-.2.1h-.7v-.1l-.4-.3-.4-.3h-.7c-.4 0-.7 0-.9.2s-.3.3-.3.6c0 .2 0 .3.2.4l.5.3 1 .3 1.3.5.7.6c.2.3.2.5.2.8l-.3 1a2 2 0 0 1-1 .6l-1.3.2zm6.4-.1c-.5 0-.8 0-1.1-.3-.3-.1-.5-.4-.6-.7a3 3 0 0 1-.2-1.1v-3.2H48V145.7h1.2v-2.2l.2-.1h.8v2.3h1.8v.8l-.2.1h-1.5v3.1c0 .4 0 .7.2.9s.3.3.7.3h.7l.2.1v.8l-.2.1zm7.7.1c-.6 0-1 0-1.5-.3-.4-.2-.7-.5-1-1-.2-.4-.3-.9-.3-1.4a7.6 7.6 0 0 1 0-1c0-.6.1-1 .4-1.5.2-.4.5-.7.9-1a3 3 0 0 1 1.5-.3l1.2.2.8.5.5.7.2.6-.1.2-.2.1h-.8l-.1-.2c-.1-.4-.3-.7-.6-.9s-.5-.2-1-.2c-.4 0-.8.1-1 .4-.4.3-.5.8-.6 1.5v.8c0 .7.2 1.1.5 1.4.3.3.7.5 1.2.5.4 0 .7-.1 1-.3s.4-.4.5-.8l.1-.2h1v.2a1.8 1.8 0 0 1-.4 1 2.3 2.3 0 0 1-1.2.9l-1 .1zm6.6 0c-.6 0-1-.1-1.5-.3s-.7-.6-1-1c-.1-.4-.3-.9-.3-1.4a9 9 0 0 1 0-1c0-.6.2-1 .4-1.5.2-.4.5-.7 1-1s.8-.3 1.4-.3 1.1.2 1.5.4.8.5 1 1l.4 1.4a8.7 8.7 0 0 1 0 1c0 .5-.2 1-.4 1.4-.2.4-.5.7-1 1s-.9.3-1.5.3zm0-.9c.5 0 1-.2 1.2-.5.3-.3.5-.8.5-1.4a7 7 0 0 0 0-.9c0-.6-.2-1-.5-1.4-.3-.3-.7-.4-1.2-.4s-.9.1-1.2.4c-.3.4-.4.8-.4 1.4a7 7 0 0 0 0 1c0 .5.1 1 .4 1.3.3.3.7.5 1.2.5zm4.6.8H70v-6.2h1v.7c.2-.3.5-.5.8-.6a2 2 0 0 1 1-.3c.9 0 1.5.4 1.9 1.1.2-.3.4-.6.8-.8s.7-.3 1.2-.3c.4 0 .8.1 1.1.3.4.2.6.5.8.9.2.4.3.9.3 1.5v3.6l-.3.1h-.7V148.3c0-.5-.2-.8-.3-1l-.5-.6-.7-.2c-.2 0-.4 0-.6.2l-.6.5-.2 1v3.6l-.3.1H74l-.1-.3v-3.3c0-.5 0-.8-.2-1l-.5-.6-.7-.2c-.2 0-.4 0-.7.2l-.5.5-.2 1v3.6l-.3.1zm10.7 2.3-.2-.1V145.8h1v.8a2.3 2.3 0 0 1 2-1c.5 0 .8.1 1.2.3.3.1.5.3.7.6l.5.9.2 1a6.6 6.6 0 0 1-.2 2l-.5.9a2.2 2.2 0 0 1-1.9.8c-.4 0-.8 0-1.2-.2l-.7-.7v2.8l-.1.2h-.2zm2.6-3.2c.4 0 .7 0 1-.2l.5-.7.1-1v-.7l-.1-.9c-.1-.3-.3-.5-.6-.7-.2-.2-.5-.3-1-.3l-.9.3-.5.7-.2.9a7.4 7.4 0 0 0 0 .9c0 .3 0 .5.2.8l.5.7c.2.2.6.2 1 .2zm6.8 1c-.6 0-1-.1-1.5-.3s-.7-.6-1-1c-.1-.4-.3-.9-.3-1.4a9 9 0 0 1 0-1c0-.6.2-1 .4-1.5.2-.4.5-.7 1-1s.8-.3 1.4-.3 1.1.2 1.6.4.7.5.9 1l.4 1.4a8.7 8.7 0 0 1 0 1c0 .5-.2 1-.4 1.4-.2.4-.5.7-1 1s-.9.3-1.5.3zm0-.9c.5 0 1-.2 1.2-.5.3-.3.5-.8.5-1.4a7 7 0 0 0 0-.9c0-.6-.2-1-.5-1.4-.3-.3-.7-.4-1.2-.4s-.9.1-1.2.4c-.3.4-.4.8-.4 1.4a7 7 0 0 0 0 1c0 .5.1 1 .4 1.3.3.3.7.5 1.2.5zm6.5 1-1.1-.2-.8-.5-.5-.4a1 1 0 0 1-.1-.4v-.2l.3-.1h.6l.1.1.4.4.4.2.7.1c.5 0 .8 0 1-.2.3-.1.5-.4.5-.7l-.2-.5-.6-.3-1.1-.3-1.2-.4-.6-.6-.1-.8c0-.3 0-.5.2-.8l.8-.7c.3-.2.8-.3 1.3-.3.4 0 .7 0 1 .2l.8.4.4.4.2.4-.1.2-.2.1h-.6l-.1-.1-.3-.3-.5-.3h-.6c-.4 0-.7 0-1 .2s-.2.3-.2.6l.1.4.5.3 1.1.3 1.3.5c.3.2.5.3.6.6l.2.8-.3 1a2 2 0 0 1-.9.6l-1.4.2zm6.5 0c-.8 0-1.5-.3-2-.8s-.7-1.2-.8-2.1a5.3 5.3 0 0 1 0-.8c0-.6.2-1 .4-1.5.2-.4.5-.8 1-1 .4-.2.8-.4 1.4-.4.6 0 1 .2 1.5.4.4.3.7.6 1 1.1s.3 1 .3 1.7v.2l-.1.2h-4.4v.1c0 .4.1.7.3 1 0 .3.3.5.5.7s.5.2.9.2a1.7 1.7 0 0 0 1.4-.6l.2-.2H105.7l.1.2c0 .1 0 .3-.2.4l-.5.5-.8.5-1.1.1zm-1.7-3.8h3.3c0-.4 0-.7-.2-1-.1-.3-.3-.5-.5-.6-.3-.2-.6-.3-1-.3s-.6.1-.8.3c-.3.1-.4.3-.6.6s-.2.6-.2 1zm8.2 3.7c-.5 0-.8 0-1.2-.2l-.7-.6a3 3 0 0 1-.5-1 4.8 4.8 0 0 1-.2-1.4 5.8 5.8 0 0 1 .2-1.5l.5-.9c.2-.3.4-.5.7-.6.4-.2.7-.3 1.2-.3s.9.1 1.2.3l.7.6v-2.7l.1-.2.2-.1h.8v8.4l-.2.1h-.8v-.8l-.8.7-1.2.2zm.2-1c.4 0 .8 0 1-.2l.5-.7c.2-.3.2-.6.2-.9a7.4 7.4 0 0 0 0-1c0-.2 0-.5-.2-.8 0-.2-.3-.4-.5-.6-.3-.2-.6-.3-1-.3s-.7.1-1 .3l-.4.7c-.2.3-.2.6-.2 1v.6c0 .4 0 .7.2 1 0 .3.2.5.5.7.2.2.5.2 1 .2zm10.1 1c-.6 0-1-.1-1.5-.3s-.7-.6-1-1c-.1-.4-.3-.9-.3-1.4a9 9 0 0 1 0-1c0-.6.2-1 .4-1.5.2-.4.5-.7 1-1s.8-.3 1.4-.3 1.1.2 1.6.4.7.5.9 1l.4 1.4a8.7 8.7 0 0 1 0 1c0 .5-.2 1-.4 1.4-.2.4-.5.7-1 1s-.8.3-1.5.3zm0-.9c.5 0 1-.2 1.2-.5.3-.3.5-.8.5-1.4a7 7 0 0 0 0-.9c0-.6-.2-1-.5-1.4-.3-.3-.7-.4-1.2-.4s-.9.1-1.2.4c-.3.4-.4.8-.4 1.4a7 7 0 0 0 0 1c0 .5.1 1 .4 1.3.3.3.7.5 1.2.5zm5.2.8h-.2v-5.3h-1.3V145.7h1.2v-.6l.2-1.1c.2-.3.4-.6.7-.7.3-.2.7-.3 1.2-.3h.7l.2.1v.8H127c-.4 0-.6.2-.7.4-.2.2-.3.5-.3.8v.6h1.8v.8l-.2.1H126v5.2l-.2.1zm8.6.1-1.2-.1-.8-.5-.4-.4a1 1 0 0 1-.2-.4l.1-.2.2-.1h.6l.1.1.4.4c0 .2.3.2.5.2l.7.1c.4 0 .7 0 1-.2.2-.1.4-.4.4-.7 0-.2 0-.3-.2-.5l-.6-.3-1.1-.3c-.5-.1-.9-.2-1.1-.4l-.6-.6c-.2-.2-.2-.5-.2-.8 0-.3 0-.5.2-.8l.8-.7a3.2 3.2 0 0 1 2.4-.1 2.3 2.3 0 0 1 1.1.8l.2.4v.2l-.3.1h-.6l-.1-.1-.3-.3-.4-.3h-.7c-.4 0-.7 0-.9.2s-.3.3-.3.6l.1.4.5.3 1.1.3 1.3.5c.3.2.5.3.6.6l.2.8c0 .3 0 .6-.3 1a2 2 0 0 1-.8.6l-1.4.2zm6.4 0c-.8 0-1.5-.2-2-.7-.5-.5-.7-1.2-.8-2.1a5.3 5.3 0 0 1 0-.8c0-.6.2-1 .4-1.5.3-.4.6-.8 1-1 .4-.2.9-.4 1.4-.4.6 0 1.1.2 1.5.4.4.3.8.6 1 1.1s.3 1 .3 1.7v.4H138.5v.1c0 .4 0 .7.2 1l.5.7c.2.2.6.2.9.2a1.7 1.7 0 0 0 1.4-.6l.2-.2h1v.2c0 .1 0 .3-.2.4 0 .2-.3.4-.5.5l-.8.5-1.1.1zm-1.6-3.7h3.3c0-.4-.1-.7-.3-1 0-.3-.3-.5-.5-.6l-.9-.3-.9.3c-.2.1-.4.3-.5.6l-.2 1zm7.8 3.6h-.3l-.2-.3-2.2-5.6a.2.2 0 0 1 .3-.3h.7l.1.2 1.9 4.7 1.8-4.7v-.2H149.6l.1.2v.1l-2.3 5.6-.1.2-.3.1zm6.7.1c-.8 0-1.5-.2-2-.7-.4-.5-.7-1.2-.7-2.1a5.3 5.3 0 0 1 0-.8c0-.6.1-1 .3-1.5.3-.4.6-.8 1-1 .4-.2.9-.4 1.4-.4.6 0 1.1.2 1.5.4.5.3.8.6 1 1.1s.3 1 .3 1.7v.4H151.4v.1c0 .4 0 .7.2 1 .1.3.3.5.6.7s.5.2.8.2a1.7 1.7 0 0 0 1.5-.6l.1-.2h1v.2l-.1.4c-.2.2-.3.4-.6.5l-.8.5-1 .1zm-1.6-3.7h3.3c0-.4 0-.7-.2-1-.2-.3-.3-.5-.6-.6-.2-.2-.5-.3-.9-.3s-.6.1-.9.3c-.2.1-.4.3-.5.6l-.2 1zm6.1 3.6h-.2v-6.2h1v.8c.2-.3.4-.5.7-.6l1-.2h.7V146.7H160c-.4 0-.8.2-1 .5-.3.2-.4.6-.4 1v3.7l-.3.1zm6 .1c-.4 0-.8 0-1.1-.2l-.8-.7c-.2-.3-.3-.5-.3-.9 0-.5.2-1 .6-1.3s1-.6 1.8-.7l1.8-.2v-.4l-.3-.9c-.3-.2-.6-.3-1.1-.3-.4 0-.7 0-.9.2-.2.2-.4.4-.4.6l-.3.2h-.5l-.2-.1-.1-.2.1-.4.5-.6.7-.4a3 3 0 0 1 1-.2l1.3.2a1.8 1.8 0 0 1 1.2 1.2l.1.8v4.1l-.3.1h-.7v-.8l-.5.4a2.4 2.4 0 0 1-1.6.5zm.2-.9c.3 0 .6 0 1-.2.2-.1.4-.3.5-.6.2-.3.3-.7.3-1.2v-.3l-1.4.2c-.6 0-1 .2-1.3.4-.3.2-.4.4-.4.7 0 .2 0 .4.2.6l.5.3.6.1zm5 .8h-.3v-8.4l.2-.1h.8v8.4l-.2.1zm6.2 0h-.2l-.1-.3v-5h-1.2l-.1-.3V145.8h1.3v-.6c0-.4 0-.8.2-1.1.1-.3.4-.6.7-.7.3-.2.7-.3 1.2-.3h1.8l.2.1v.8h-2c-.4 0-.6.2-.8.4l-.2.8v.6h3V152l-.2.1h-.7l-.1-.3v-5h-2v5.2l-.3.1zm6 0h-.3v-8.4l.2-.1h.8v8.4l-.2.1zm5 0c-.4 0-.8 0-1-.3-.4-.1-.6-.4-.7-.7a3 3 0 0 1-.2-1.1v-3.2H183V145.7h1.2v-2.2l.2-.1h.8v2.3h1.7l.1.2V146.6l-.3.1h-1.5v3.1l.2.9c.1.2.4.3.7.3h.7l.2.1.1.2V151.9l-.3.1zm4.8.1c-.9 0-1.5-.2-2-.7-.5-.5-.8-1.2-.8-2.1a5.3 5.3 0 0 1 0-.8c0-.6.1-1 .4-1.5.2-.4.5-.8 1-1 .3-.2.8-.4 1.4-.4.6 0 1 .2 1.5.4.4.3.7.6 1 1.1s.2 1 .2 1.7v.4H189v.1l.2 1 .6.7c.3.2.5.2.9.2a1.7 1.7 0 0 0 1.4-.6l.1-.2h1v.2l-.1.4-.5.5-.8.5-1.1.1zm-1.7-3.7h3.3c0-.4 0-.7-.2-1-.1-.3-.3-.5-.6-.6-.2-.2-.5-.3-.8-.3l-1 .3c-.2.1-.4.3-.5.6l-.2 1zm6.2 3.6h-.2l-.1-.3v-5.9h1l.1.2v.6c.2-.3.4-.5.7-.6l1-.2H198.4l.1.2v.7h-1c-.4 0-.7.2-1 .5-.2.2-.4.6-.4 1v3.7l-.3.1zm6.4.1-1.2-.1c-.4-.1-.5-.3-.7-.5l-.5-.4a1 1 0 0 1-.1-.4v-.2l.2-.1h.6l.2.1.3.4c.1.2.3.2.5.2l.7.1c.4 0 .8 0 1-.2.3-.1.4-.4.4-.7 0-.2 0-.3-.2-.5l-.5-.3-1.2-.3-1.1-.4-.6-.6-.2-.8c0-.3.1-.5.3-.8.2-.3.4-.5.8-.7.3-.2.7-.3 1.2-.3s.8 0 1.1.2l.7.4.5.4.1.4v.2l-.2.1h-.7v-.1l-.4-.3-.4-.3h-.7c-.4 0-.7 0-.9.2s-.3.3-.3.6c0 .2 0 .3.2.4l.5.3 1 .3 1.3.5.7.6c.2.3.2.5.2.8l-.3 1a2 2 0 0 1-.9.6l-1.4.2zm9.5 1.8c-.5 0-1-.1-1.3-.3-.4-.2-.7-.6-.9-1l-.5-1.8a19.3 19.3 0 0 1 0-5l.5-1.8c.2-.5.5-.8.9-1s.8-.3 1.3-.3h.2V143.7h-.2c-.3 0-.6.2-.8.3l-.6.8a6 6 0 0 0-.3 1.4 23.2 23.2 0 0 0 .3 5.8l.6.8.8.2.2.1v.8l-.2.1zm.7-1.9h-.1l-.1-.2v-.2l3-7.7.1-.2.3-.1h1l.2.3 3 7.7v.2l-.1.1-.2.1h-.8l-.1-.2-.7-1.7h-4l-.6 1.7v.1l-.3.1zm2-3h3.2l-1.6-4.2zm8.7 3.1c-.5 0-.8 0-1.2-.2l-.8-.6a3 3 0 0 1-.4-1 4.8 4.8 0 0 1-.2-1.4 5.8 5.8 0 0 1 .2-1.5c0-.3.2-.6.4-.9.3-.3.5-.5.8-.6.4-.2.7-.3 1.2-.3l1.2.3c.4.2.5.4.7.6V143.6l.3-.1h.8v8.4l-.2.1h-.8v-.8l-.8.7-1.2.2zm.2-1c.4 0 .7 0 1-.2s.4-.4.5-.7l.2-.9a7.4 7.4 0 0 0 0-1c0-.2 0-.5-.2-.8l-.5-.6c-.3-.2-.6-.3-1-.3s-.7.1-1 .3l-.5.7-.1 1v.6l.1 1c.1.3.3.5.6.7.2.2.5.2 1 .2zm7.8 1c-.7 0-1.3-.1-1.8-.4-.5-.2-.8-.6-1-1a4 4 0 0 1-.5-1.8 49.2 49.2 0 0 1 0-2.2c0-.7.2-1.2.4-1.7.3-.5.7-.9 1.1-1.1a4.3 4.3 0 0 1 3.3-.2 3 3 0 0 1 1.6 1.4c.2.3.2.5.2.7v.2H232.8v-.2a2 2 0 0 0-1.1-1.1l-1-.2c-.7 0-1.2.2-1.6.5-.4.4-.6 1-.6 1.7v2.2c0 .8.2 1.3.6 1.7a2.7 2.7 0 0 0 2.7.3c.3-.2.6-.4.8-.8s.3-.7.3-1.2v-.5h-2l-.1-.3V147.5h3.2v1.4c0 .6 0 1.2-.4 1.7-.2.5-.6.9-1.1 1.1a4 4 0 0 1-1.9.4zm7.3 0c-.5 0-1 0-1.3-.3-.3-.2-.6-.6-.8-1s-.3-.9-.3-1.4V146l.1-.2h1v3.6c0 1.2.6 1.7 1.7 1.7.4 0 .8-.1 1.1-.4.3-.3.5-.8.5-1.3v-3.6H241V152l-.2.1h-.8v-.8l-.9.7-1.2.2zm6.7 0c-.4 0-.8 0-1.1-.2l-.8-.7c-.2-.3-.3-.5-.3-.9 0-.5.2-1 .6-1.3s1-.6 1.8-.7l1.8-.2v-.4l-.3-.9c-.3-.2-.6-.3-1.1-.3-.4 0-.7 0-.9.2-.2.2-.4.4-.4.6l-.3.2h-.5l-.2-.1-.1-.2.1-.4.5-.6.7-.4a3 3 0 0 1 1-.2l1.3.2a1.8 1.8 0 0 1 1.2 1.2l.1.8v4.1l-.3.1h-.7v-.8l-.5.4a2.4 2.4 0 0 1-1.6.5zm.2-.9c.3 0 .6 0 1-.2.2-.1.4-.3.5-.6.2-.3.3-.7.3-1.2v-.3l-1.4.2c-.6 0-1 .2-1.3.4-.3.2-.4.4-.4.7 0 .2 0 .4.2.6l.5.3.6.1zm5 .8h-.3v-6.2h1v.8c.2-.3.4-.5.7-.6l1-.2h.7V146.7H252c-.4 0-.8.2-1 .5-.3.2-.4.6-.4 1v3.7l-.3.1zm6.3.1c-.4 0-.8 0-1-.2l-.9-.6a3 3 0 0 1-.4-1 4.8 4.8 0 0 1-.2-1.4 5.8 5.8 0 0 1 .2-1.5c0-.3.2-.6.4-.9.2-.3.5-.5.8-.6.3-.2.7-.3 1.1-.3.5 0 1 .1 1.2.3l.8.6V143.6l.3-.1h.7l.1.3v8.1l-.3.1h-.7v-.8l-.9.7-1.2.2zm.3-1c.4 0 .7 0 1-.2s.4-.4.5-.7l.2-.9a7.4 7.4 0 0 0 0-1c0-.2 0-.5-.2-.8l-.6-.6c-.2-.2-.5-.3-.9-.3s-.7.1-1 .3l-.5.7-.2 1v.6l.2 1 .5.7c.3.2.6.2 1 .2zm8 .9h-.2l-.1-.3v-8l.3-.1h3.3c.6 0 1 .1 1.4.3.4.2.7.5.9.8.2.3.2.7.2 1.1a2 2 0 0 1-.5 1.4l-.5.4c.3.1.6.4.8.7.3.4.4.8.4 1.3 0 .4 0 .8-.3 1.2s-.5.7-.9.9a3 3 0 0 1-1.4.3zm.9-1h2.3c.5 0 1-.1 1.2-.4s.4-.6.4-1-.1-.8-.4-1c-.3-.3-.7-.5-1.2-.5h-2.3zm0-3.8h2.2c.5 0 .9-.2 1.2-.4.2-.2.3-.6.3-1s0-.7-.3-.9-.7-.3-1.2-.3h-2.2zm8.4 5c-.4 0-.8-.2-1-.3l-.9-.7c-.2-.3-.3-.5-.3-.9 0-.5.2-1 .7-1.3s1-.6 1.7-.7l1.8-.2v-.4c0-.3 0-.6-.3-.9-.2-.2-.6-.3-1-.3s-.7 0-1 .2l-.4.6c0 .1-.1.2-.3.2h-.5l-.2-.1V146.8l.5-.6.7-.4a3 3 0 0 1 1.1-.2l1.3.2a1.8 1.8 0 0 1 1.1 1.2l.2.8v4l-.1.1-.2.1h-.8v-.8l-.5.4a2.4 2.4 0 0 1-1.6.5zm.3-1c.3 0 .6 0 .9-.2l.6-.6c.2-.3.2-.7.2-1.2v-.3l-1.4.2c-.5 0-1 .2-1.2.4-.3.2-.5.4-.5.7 0 .2 0 .4.2.6l.5.3.7.1zm6.7 1-1.1-.2-.8-.5-.4-.4a1 1 0 0 1-.2-.4v-.2l.3-.1h.6l.1.1.4.4c0 .2.3.2.4.2l.8.1c.4 0 .7 0 1-.2.2-.1.4-.4.4-.7l-.2-.5-.6-.3-1.1-.3-1.2-.4-.6-.6-.1-.8c0-.3 0-.5.2-.8l.8-.7c.3-.2.8-.3 1.3-.3.4 0 .8 0 1 .2l.8.4.4.4.2.4-.1.2-.2.1h-.6l-.1-.1-.3-.3-.4-.3h-.7c-.4 0-.7 0-1 .2s-.2.3-.2.6l.1.4.5.3 1.1.3 1.3.5c.3.2.5.3.6.6l.2.8c0 .3 0 .6-.3 1a2 2 0 0 1-.9.6l-1.4.2zm6.5 0c-.8 0-1.5-.3-2-.8s-.7-1.2-.8-2.1a5.3 5.3 0 0 1 0-.8c0-.6.2-1 .4-1.5.2-.4.6-.8 1-1 .4-.2.8-.4 1.4-.4.6 0 1.1.2 1.5.4.4.3.7.6 1 1.1s.3 1 .3 1.7v.2l-.1.2h-4.3v.1c0 .4 0 .7.2 1l.5.7c.2.2.5.2.9.2a1.7 1.7 0 0 0 1.4-.6l.2-.2H289.7l.1.2c0 .1 0 .3-.2.4l-.5.5-.8.5-1.1.1zm-1.6-3.8h3.2c0-.4 0-.7-.2-1 0-.3-.3-.5-.5-.6-.3-.2-.6-.3-1-.3s-.6.1-.8.3l-.6.6c-.2.3-.1.6-.1 1zM33.8 168h-.2v-5.3h-1.3V161.7h1.2v-.6c0-.4 0-.8.2-1.1.2-.3.4-.6.7-.7.3-.2.7-.3 1.2-.3h1.8l.2.1.1.2V160h-2.1c-.4 0-.6.2-.8.4l-.2.8v.6h3l.1.2v5.9l-.3.1h-.7l-.1-.3v-5h-2v5.2l-.2.1zm6 0h-.2l-.1-.3v-8.1l.3-.1h.7l.1.3v8.1l-.3.1zm5 0c-.4 0-.8 0-1-.3-.3-.1-.5-.4-.7-.7a3 3 0 0 1-.2-1.1v-3.2h-1.1V161.7H43v-2.2l.2-.1h.8v2.3h1.7l.1.2V162.6l-.3.1H44v3.1l.2.9c.1.2.4.3.7.3h.8l.1.1.1.2V167.9l-.2.1zm4.8.1c-.9 0-1.5-.2-2-.7-.5-.5-.8-1.2-.8-2.1a5.3 5.3 0 0 1 0-.8c0-.6.2-1 .4-1.5.2-.4.5-.8 1-1 .3-.2.8-.4 1.4-.4.6 0 1 .2 1.5.4.4.3.7.6 1 1.1s.3 1 .3 1.7v.2l-.1.2h-4.4v.1l.2 1 .6.7c.2.2.5.2.9.2a1.7 1.7 0 0 0 1.4-.6l.2-.2H52s.1.1 0 .2l-.1.4-.5.5-.8.5-1.1.1zm-1.7-3.7h3.3c0-.4 0-.7-.2-1-.1-.3-.3-.5-.5-.6-.3-.2-.6-.3-1-.3s-.6.1-.8.3c-.3.1-.4.3-.6.6s-.2.6-.2 1zm6.2 3.6h-.2l-.1-.3v-5.9h1l.1.2v.6c.2-.3.4-.5.7-.6l1-.2h.7V162.7h-1c-.4 0-.7.2-1 .5-.2.2-.4.6-.4 1v3.7l-.2.1zm3.5.9h-.1v-.3l.2-1.7.1-.2.2-.1h1v.4l-.6 1.6-.2.2-.2.1zm8.9-.8c-.7 0-1.3 0-1.8-.3-.4-.2-.8-.5-1-.8a2 2 0 0 1-.4-1.1v-.2h1l.1.2.3.6.7.4 1 .2c.8 0 1.3-.1 1.6-.4.3-.2.5-.5.5-1 0-.2 0-.4-.3-.6-.1-.2-.4-.3-.7-.5l-1.4-.4-1.5-.6c-.5-.2-.6-.4-.8-.7-.2-.3-.3-.7-.3-1.2 0-.4.1-.8.3-1.1l1-.8c.5-.2 1-.3 1.6-.3.5 0 1 0 1.3.2a2.6 2.6 0 0 1 1.5 1.2c.2.3.2.5.2.8v.1H68.4l-.2-.1c0-.4-.2-.6-.5-.9s-.8-.3-1.3-.3-1 .1-1.2.3c-.4.2-.5.5-.5 1 0 .2 0 .4.2.6l.7.5 1.3.4 1.6.6c.4.2.7.4.9.7.2.3.3.7.3 1.1 0 .5-.1 1-.4 1.3-.3.4-.6.7-1.1.8-.5.2-1 .3-1.7.3zm7.2 0c-.6 0-1.2-.1-1.6-.3s-.7-.6-.9-1l-.4-1.4a9 9 0 0 1 0-1c0-.6.2-1 .4-1.5.2-.4.5-.7 1-1s.9-.3 1.5-.3 1 .2 1.5.4.7.5 1 1c.1.4.3.8.3 1.4a8.7 8.7 0 0 1 0 1c0 .5-.2 1-.4 1.4-.2.4-.5.7-1 1s-.8.3-1.4.3zm0-.9c.5 0 .9-.2 1.1-.5.3-.3.5-.8.5-1.4a7 7 0 0 0 0-.9c0-.6-.2-1-.5-1.4-.2-.3-.6-.4-1.1-.4s-1 .1-1.2.4c-.3.4-.5.8-.5 1.4a7 7 0 0 0 0 1c0 .5.2 1 .5 1.3.3.3.7.5 1.2.5zm6.8 1c-.6 0-1-.2-1.5-.4-.4-.2-.7-.5-1-1-.1-.4-.3-.9-.3-1.4a7.6 7.6 0 0 1 0-1c0-.6.2-1 .4-1.5.2-.4.5-.7 1-1a3 3 0 0 1 1.4-.3l1.2.2.8.5.5.7.2.6v.2l-.3.1h-.7l-.2-.2c-.1-.4-.3-.7-.6-.9s-.5-.2-.9-.2c-.5 0-.8.1-1.2.4-.2.3-.4.8-.4 1.5v.8c0 .7.2 1.1.4 1.4.4.3.7.5 1.2.5.4 0 .7-.1 1-.3s.4-.4.5-.8l.2-.2H83s.1.1 0 .2a1.8 1.8 0 0 1-.3 1 2.3 2.3 0 0 1-1.3.9l-1 .1zm4.4-.2h-.2v-6.2h1V168l-.2.1zm-.1-7.4h-.2V159.4l.2-.1h.9l.1.3v.8l-.2.1zm4.5 7.5c-.4 0-.8 0-1.1-.2l-.8-.7c-.2-.3-.3-.5-.3-.9 0-.5.2-1 .6-1.3s1-.6 1.8-.7l1.8-.2v-.4l-.3-.9c-.3-.2-.6-.3-1.1-.3-.4 0-.7 0-.9.2-.2.2-.4.4-.4.6l-.3.2h-.5l-.2-.1-.1-.2.1-.4.5-.6.7-.4a3 3 0 0 1 1.1-.2l1.2.2a1.8 1.8 0 0 1 1.2 1.2l.1.8v4.1l-.3.1h-.7v-.8l-.5.4a2.4 2.4 0 0 1-1.6.5zm.2-.9c.3 0 .6 0 1-.2.2-.1.4-.3.5-.6.2-.3.3-.7.3-1.2v-.3l-1.4.2c-.6 0-1 .2-1.3.4-.3.2-.4.4-.4.7 0 .2 0 .4.2.6l.5.3.6.1zm5 .8h-.3v-8.4l.2-.1h.8v8.4l-.2.1zm6 0h-.3V159.6l.2-.1h.8l.1.2 2.6 4.8 2.5-4.8.1-.1.2-.1h.8l.1.3v8l-.3.1h-.8v-6.2l-2 4-.2.1H103.4l-.1-.2-2-3.9v6.1l-.3.1zm11.5.1c-.8 0-1.5-.2-2-.7-.4-.5-.7-1.2-.8-2.1a5.3 5.3 0 0 1 0-.8c0-.6.2-1 .4-1.5.3-.4.6-.8 1-1 .4-.2.9-.4 1.4-.4.6 0 1.1.2 1.5.4.5.3.8.6 1 1.1s.3 1 .3 1.7v.4H110.3v.1c0 .4 0 .7.2 1l.5.7c.2.2.6.2 1 .2a1.7 1.7 0 0 0 1.3-.6l.2-.2h1v.2c0 .1 0 .3-.2.4 0 .2-.2.4-.5.5l-.8.5-1 .1zm-1.6-3.7h3.3l-.2-1-.6-.6c-.2-.2-.5-.3-.9-.3s-.6.1-.9.3c-.2.1-.4.3-.5.6l-.2 1zm8.1 3.7c-.4 0-.8 0-1.1-.2l-.8-.6a3 3 0 0 1-.5-1 4.8 4.8 0 0 1-.1-1.4 5.8 5.8 0 0 1 .1-1.5l.5-.9c.2-.3.5-.5.8-.6.3-.2.7-.3 1.1-.3.5 0 .9.1 1.2.3l.8.6V159.6l.2-.1h.8l.1.3v8.1l-.3.1h-.7l-.1-.3v-.5l-.8.7-1.2.2zm.3-1c.4 0 .7 0 1-.2s.4-.4.5-.7l.2-.9a7.4 7.4 0 0 0 0-1l-.2-.8-.6-.6c-.2-.2-.5-.3-1-.3-.3 0-.7.1-.9.3l-.5.7-.2 1v.6c0 .4 0 .7.2 1 0 .3.3.5.5.7.2.2.6.2 1 .2zm4.9.9h-.2l-.1-.3v-5.9h1l.1.2v5.9l-.3.1zm-.1-7.4h-.2l-.1-.3v-.8l.3-.1H124.5V160.6l-.2.1zm4.4 7.5c-.4 0-.7 0-1-.2l-.9-.7c-.2-.3-.3-.5-.3-.9 0-.5.3-1 .7-1.3s1-.6 1.8-.7l1.8-.2v-.4c0-.3-.2-.6-.4-.9-.2-.2-.6-.3-1-.3s-.7 0-1 .2l-.4.6-.2.2h-.6l-.2-.1V162.8l.5-.6.8-.4a3 3 0 0 1 1-.2l1.3.2a1.8 1.8 0 0 1 1.2 1.2V168l-.2.1h-.7l-.1-.3v-.5l-.4.4a2.4 2.4 0 0 1-1.7.5zm.3-.9c.3 0 .6 0 .9-.2.3-.1.5-.3.6-.6.2-.3.3-.7.3-1.2v-.3l-1.4.2c-.6 0-1 .2-1.3.4-.3.2-.5.4-.5.7l.2.6.5.3.7.1zm8.2.8h-.2v-5.3H135V161.7h1.2v-.6c0-.4.1-.8.3-1.1 0-.3.3-.6.6-.7.3-.2.7-.3 1.2-.3h1.9l.2.1v.8h-2.1c-.3 0-.6.2-.7.4-.2.2-.2.5-.2.8v.6h3V168l-.2.1h-.8v-5.3h-2v5l-.1.2-.2.1zm6 0h-.2v-8.4l.2-.1h.8v8.4l-.2.1zm5 0c-.4 0-.7 0-1-.3-.3-.1-.5-.4-.6-.7a3 3 0 0 1-.2-1.1v-3.2h-1.2V161.7h1.2v-2.2l.2-.1h.8v2.3h1.8v.8l-.2.1h-1.5v3.1c0 .4 0 .7.2.9s.3.3.7.3h.7l.2.1v.8l-.2.1zm4.8.1c-.8 0-1.5-.2-2-.7-.5-.5-.7-1.2-.8-2.1a5.3 5.3 0 0 1 0-.8c0-.6.2-1 .4-1.5.3-.4.6-.8 1-1 .4-.2.9-.4 1.4-.4.6 0 1.1.2 1.5.4.4.3.8.6 1 1.1s.3 1 .3 1.7v.4H150.6v.1c0 .4 0 .7.2 1l.5.7c.2.2.6.2.9.2a1.7 1.7 0 0 0 1.4-.6l.2-.2h1v.2c0 .1 0 .3-.2.4 0 .2-.3.4-.5.5l-.8.5-1.1.1zm-1.6-3.7h3.3l-.2-1-.6-.6-.9-.3-.9.3c-.2.1-.4.3-.5.6l-.2 1zm6.1 3.6h-.2v-6.2h1v.8c.2-.3.4-.5.7-.6l1-.2h.7V162.7H159c-.5 0-.8.2-1 .5-.3.2-.4.6-.4 1v3.5l-.1.2-.2.1zm3.6.9h-.2v-.3l.2-1.7.1-.2.3-.1h.9v.4l-.6 1.6-.1.2-.2.1zm8-.9h-.3v-7.3h-2.3l-.2-.1-.1-.2v-.7l.3-.1h5.9l.1.3v.7h-2.5v7.1l-.1.2-.2.1zm4 0h-.3v-6.2h1v.8c.2-.3.4-.5.7-.6l1-.2h.7V162.7H174.6c-.4 0-.8.2-1 .5-.3.2-.4.6-.4 1v3.7l-.3.1zm5.9.1c-.4 0-.8 0-1.1-.2l-.8-.7c-.2-.3-.3-.5-.3-.9 0-.5.2-1 .6-1.3s1-.6 1.8-.7l1.8-.2v-.4c0-.3-.1-.6-.4-.9-.2-.2-.5-.3-1-.3-.4 0-.7 0-.9.2l-.5.6c0 .1 0 .2-.2.2h-.5l-.3-.1v-.2l.1-.4.5-.6.7-.4a3 3 0 0 1 1-.2l1.3.2a1.8 1.8 0 0 1 1.2 1.2l.1.8v4.1l-.3.1h-.7l-.1-.3v-.5l-.4.4a2.4 2.4 0 0 1-1.6.5zm.2-.9c.3 0 .6 0 1-.2.2-.1.4-.3.5-.6.2-.3.3-.7.3-1.2v-.3l-1.4.2c-.6 0-1 .2-1.3.4-.3.2-.4.4-.4.7 0 .2 0 .4.2.6l.5.3.6.1zm7.2 1c-.6 0-1.1-.2-1.5-.4-.4-.2-.7-.5-1-1-.2-.4-.3-.9-.3-1.4a7.6 7.6 0 0 1 0-1c0-.6.1-1 .3-1.5l1-1a3 3 0 0 1 1.5-.3l1.1.2.9.5.5.7.1.6v.2l-.2.1h-.8l-.1-.2-.6-.9c-.2-.2-.6-.2-1-.2s-.8.1-1.1.4c-.3.3-.5.8-.5 1.5v.8c0 .7.2 1.1.5 1.4.3.3.7.5 1.2.5l.9-.3c.3-.2.4-.4.6-.8l.1-.2h1v.2a1.8 1.8 0 0 1-.4 1 2.3 2.3 0 0 1-1.3.9l-1 .1zm4.3-.2h-.2v-8.4l.2-.1h.8V164l2.4-2h.3l.2-.1h.7a.2.2 0 0 1 .2.2v.1l-.1.1-2.8 2.3 3 3 .2.2a.2.2 0 0 1-.2.3H193.8l-.2-.2-2.7-2.6v2.5l-.1.2-.2.1zm6.2 0h-.2v-6.2h1V168l-.2.1zm0-7.4h-.3V159.4l.2-.1h1V160.6l-.2.1zm3 7.4h-.2v-6.2h1v.8l.9-.7c.3-.2.7-.3 1.2-.3s1 .2 1.3.4c.4.2.7.5.8 1 .2.3.3.8.3 1.3v3.6l-.3.1h-.8V164.3c0-.6-.2-1-.4-1.3-.3-.3-.7-.5-1.2-.5s-1 .2-1.2.5c-.3.3-.5.7-.5 1.3v3.5l-.3.1zm9.6 2.6c-.5 0-1 0-1.3-.2-.4-.1-.7-.3-.9-.5a2 2 0 0 1-.4-.6l-.1-.5v-.2h1l.1.2.3.4.4.3c.2.2.5.2.8.2l1-.1.6-.6.2-1v-.8l-.8.6c-.3.2-.7.2-1.2.2-.4 0-.8 0-1.1-.2l-.8-.6a3 3 0 0 1-.5-1 4.8 4.8 0 0 1-.1-1.7l.1-1 .5-1c.2-.3.5-.5.8-.6.3-.2.7-.3 1.1-.3.5 0 1 .1 1.2.3l.8.7v-.8h1l.1.2v5.9c0 .5 0 1-.3 1.4a2 2 0 0 1-.8 1c-.5.2-1 .3-1.7.3zm0-3.5c.4 0 .7-.1 1-.3l.5-.7.2-.8a5.9 5.9 0 0 0 0-.9l-.2-.8c-.1-.3-.3-.5-.6-.7-.2-.2-.5-.3-1-.3s-.6.1-.9.3l-.5.7-.2 1v.6l.2 1 .5.6c.3.2.6.3 1 .3zm8 .9h-.2l-.1-.3v-8l.3-.1h3c.6 0 1.1.1 1.6.3.4.2.7.5 1 .9.2.3.3.8.3 1.4s0 1-.3 1.4-.6.6-1 .8c-.5.2-1 .3-1.6.3h-2.1v3.2l-.3.1zm.9-4.3h2c.7 0 1.1-.1 1.4-.4s.4-.6.4-1.1c0-.5-.1-1-.4-1.2s-.7-.4-1.3-.4h-2.1zm6.6 4.3h-.2v-6.2h1v.8c.2-.3.4-.5.7-.6l1-.2h.7V162.7H226.6c-.4 0-.8.2-1 .5-.3.2-.4.6-.4 1v3.7l-.3.1zm6.7.1c-.6 0-1-.1-1.5-.3s-.7-.6-1-1c-.1-.4-.3-.9-.3-1.4a9 9 0 0 1 0-1c0-.6.2-1 .4-1.5.2-.4.5-.7 1-1s.8-.3 1.4-.3 1.1.2 1.6.4.7.5.9 1l.4 1.4a8.7 8.7 0 0 1 0 1c0 .5-.2 1-.4 1.4-.2.4-.5.7-1 1s-.8.3-1.5.3zm0-.9c.5 0 1-.2 1.2-.5.3-.3.5-.8.5-1.4a7 7 0 0 0 0-.9c0-.6-.2-1-.5-1.4-.3-.3-.7-.4-1.2-.4s-.9.1-1.2.4c-.3.4-.4.8-.4 1.4a7 7 0 0 0 0 1c0 .5.1 1 .4 1.3.3.3.7.5 1.2.5zm6.8.8c-.5 0-.9 0-1.1-.3-.3-.1-.5-.4-.6-.7a3 3 0 0 1-.2-1.1v-3.2h-1.2V161.7h1.2v-2.2l.2-.1h.8v2.3h1.8v.8l-.2.1H237v3.1c0 .4 0 .7.2.9s.3.3.7.3h.7l.2.1v.8l-.2.1zm4.7.1c-.8 0-1.5-.2-2-.7-.5-.5-.7-1.2-.8-2.1a5.3 5.3 0 0 1 0-.8c0-.6.2-1 .4-1.5.2-.4.6-.8 1-1 .4-.2.8-.4 1.4-.4.6 0 1.1.2 1.5.4.4.3.7.6 1 1.1s.3 1 .3 1.7v.2l-.1.2h-4.3v.1c0 .4 0 .7.2 1l.5.7c.2.2.6.2.9.2a1.7 1.7 0 0 0 1.4-.6l.2-.2h.9l.1.2c0 .1 0 .3-.2.4 0 .2-.3.4-.5.5l-.8.5-1.1.1zm-1.6-3.7h3.2c0-.4 0-.7-.2-1 0-.3-.3-.5-.5-.6-.3-.2-.6-.3-1-.3s-.6.1-.8.3l-.6.6c-.2.3-.1.6-.1 1zm8.3 3.7c-.5 0-1 0-1.4-.3-.4-.2-.8-.5-1-1-.2-.4-.3-.9-.3-1.4a7.6 7.6 0 0 1 0-1c0-.6 0-1 .3-1.5.2-.4.6-.7 1-1a3 3 0 0 1 1.4-.3l1.2.2.9.5c.3.2.3.4.4.7l.2.6v.2l-.3.1h-.7l-.1-.2-.6-.9c-.2-.2-.6-.2-1-.2s-.8.1-1.1.4c-.3.3-.5.8-.5 1.5v.8c0 .7.2 1.1.5 1.4.3.3.7.5 1.2.5l.9-.3c.3-.2.4-.4.6-.8v-.2h1l.1.2a1.8 1.8 0 0 1-.4 1 2.3 2.3 0 0 1-1.3.9l-1 .1zm6.6-.1c-.5 0-.8 0-1.1-.3-.3-.1-.5-.4-.6-.7a3 3 0 0 1-.2-1.1v-3.2h-1.2V161.7h1.2v-2.2l.3-.1h.7l.1.3v2h1.7v.8l-.2.1H255v3.1c0 .4 0 .7.2.9s.3.3.7.3h.7l.2.1v.8l-.2.1zm2.5 0h-.2v-6.2h1V168l-.2.1zm0-7.4h-.3V159.4l.2-.1h1V160.6l-.2.1zm5.2 7.5c-.6 0-1.1-.1-1.5-.3s-.7-.6-1-1c-.2-.4-.3-.9-.3-1.4a9 9 0 0 1 0-1c0-.6.1-1 .4-1.5.2-.4.5-.7.9-1s1-.3 1.5-.3 1.1.2 1.5.4.7.5 1 1c.2.4.3.8.3 1.4a8.7 8.7 0 0 1 0 1c0 .5-.1 1-.3 1.4-.2.4-.6.7-1 1s-.9.3-1.5.3zm0-.9c.5 0 1-.2 1.2-.5.3-.3.5-.8.5-1.4a7 7 0 0 0 0-.9c0-.6-.2-1-.5-1.4-.3-.3-.7-.4-1.2-.4s-.9.1-1.2.4c-.3.4-.4.8-.5 1.4a7 7 0 0 0 0 1c0 .5.2 1 .5 1.3.3.3.7.5 1.2.5zm4.6.8h-.2v-6.2h1v.8l.8-.7c.4-.2.8-.3 1.3-.3s1 .2 1.3.4c.4.2.6.5.8 1 .2.3.3.8.3 1.3v3.6l-.3.1h-.8V164.3c0-.6-.2-1-.5-1.3-.2-.3-.6-.5-1.2-.5-.5 0-.9.2-1.2.5-.3.3-.4.7-.4 1.3v3.5l-.3.1zM33.8 184h-.2v-5.3h-1.3V177.7h1.2v-.6c0-.4 0-.8.2-1.1.2-.3.4-.6.7-.7.3-.2.7-.3 1.2-.3h1.8l.2.1.1.2V176h-2.1c-.4 0-.6.2-.8.4l-.2.8v.6h3l.1.2v5.9l-.3.1h-.7l-.1-.3v-5h-2v5.2l-.2.1zm6 0h-.2l-.1-.3v-8.1l.3-.1h.7l.1.3v8.1l-.3.1zm5 0c-.4 0-.8 0-1-.3-.3-.1-.5-.4-.7-.7a3 3 0 0 1-.2-1.1v-3.2h-1.1V177.7H43v-2.2l.2-.1h.8v2.3h1.7l.1.2V178.6l-.3.1H44v3.1l.2.9c.1.2.4.3.7.3h.8l.1.1.1.2V183.9l-.2.1zm4.8.1c-.9 0-1.5-.2-2-.7-.5-.5-.8-1.2-.8-2.1a5.3 5.3 0 0 1 0-.8c0-.6.2-1 .4-1.5.2-.4.5-.8 1-1 .3-.2.8-.4 1.4-.4.6 0 1 .2 1.5.4.4.3.7.6 1 1.1s.3 1 .3 1.7v.2l-.1.2h-4.4v.1l.2 1 .6.7c.2.2.5.2.9.2a1.7 1.7 0 0 0 1.4-.6l.2-.2H52s.1.1 0 .2l-.1.4-.5.5-.8.5-1.1.1zm-1.7-3.7h3.3c0-.4 0-.7-.2-1-.1-.3-.3-.5-.5-.6-.3-.2-.6-.3-1-.3s-.6.1-.8.3c-.3.1-.4.3-.6.6s-.2.6-.2 1zm6.2 3.6h-.2l-.1-.3v-5.9h1l.1.2v.6c.2-.3.4-.5.7-.6l1-.2h.7V178.7h-1c-.4 0-.7.2-1 .5-.2.2-.4.6-.4 1v3.7l-.2.1zm3.5.9h-.1v-.3l.2-1.7.1-.2.2-.1h1v.4l-.6 1.6-.2.2-.2.1zm6.5-.9h-.2l-.1-.3v-8l.3-.1h.8v.2l2.6 4.8 2.6-4.8v-.1l.3-.1h.8V184l-.2.1h-.8l-.1-.3v-5.9l-2 4-.2.1h-.8l-.2-.2-2-3.9v6.1l-.2.1zm11.6.1c-.6 0-1-.1-1.5-.3s-.7-.6-1-1c-.2-.4-.3-.9-.3-1.4a9 9 0 0 1 0-1c0-.6.1-1 .4-1.5.2-.4.5-.7 1-1s.8-.3 1.4-.3 1.1.2 1.5.4.8.5 1 1c.2.4.3.8.3 1.4a8.7 8.7 0 0 1 0 1c0 .5-.1 1-.3 1.4-.2.4-.5.7-1 1s-.9.3-1.5.3zm0-.9c.5 0 1-.2 1.2-.5.3-.3.5-.8.5-1.4a7 7 0 0 0 0-.9c0-.6-.2-1-.5-1.4-.3-.3-.7-.4-1.2-.4s-.9.1-1.2.4c-.3.4-.4.8-.4 1.4a7 7 0 0 0 0 1c0 .5.1 1 .4 1.3.3.3.7.5 1.2.5zm7.4 1-1.2-.3-.7-.7v.5l-.1.2-.2.1h-.8v-8.4l.2-.1h.8l.1.3v2.7l.8-.6c.3-.2.7-.3 1.1-.3.5 0 .9.1 1.2.3.3.1.6.3.8.6l.4 1a4.6 4.6 0 0 1 .2 1.4 5.8 5.8 0 0 1-.2 1.4c0 .4-.2.7-.4 1l-.8.6-1.2.2zm-.2-1c.4 0 .7-.1 1-.3l.5-.7.2-1v-.7l-.2-.9-.5-.7c-.3-.2-.6-.3-1-.3a1.6 1.6 0 0 0-1.5 1l-.2.8a7.7 7.7 0 0 0 0 .9c0 .3 0 .6.2.9l.5.7c.3.2.6.2 1 .2zm4.6.8h-.2l-.1-.3v-5.9h1l.1.2v5.9l-.3.1zm-.1-7.4h-.2l-.1-.3v-.8l.3-.1H88.3l.1.3v.8l-.3.1zm3 7.4h-.2v-8.4l.2-.1h.8v8.4l-.2.1zm5.1.1c-.8 0-1.5-.2-2-.7-.5-.5-.7-1.2-.8-2.1a5.3 5.3 0 0 1 0-.8c0-.6.2-1 .4-1.5.3-.4.6-.8 1-1 .4-.2.9-.4 1.4-.4.6 0 1.1.2 1.5.4.4.3.8.6 1 1.1s.3 1 .3 1.7v.4H93.8v.1c0 .4 0 .7.2 1l.5.7c.2.2.6.2.9.2a1.7 1.7 0 0 0 1.4-.6l.2-.2h1v.2c0 .1 0 .3-.2.4 0 .2-.3.4-.5.5l-.8.5-1.1.1zm-1.6-3.7h3.3l-.2-1-.6-.6-.9-.3-.9.3c-.2.1-.4.3-.5.6l-.2 1zm8 3.6h-.1c-.1 0 0-.2 0-.2v-.2l2.9-7.7.1-.2.3-.1h1l.2.3 3 7.7v.2l-.1.1-.2.1h-.8v-.2l-.7-1.7h-4l-.6 1.7-.1.1-.2.1zm2-3h3.2l-1.6-4.2zm8.7 3.1c-.4 0-.8 0-1.1-.2l-.8-.6a3 3 0 0 1-.5-1 4.8 4.8 0 0 1-.2-1.4 5.8 5.8 0 0 1 .2-1.5l.5-.9c.2-.3.4-.5.8-.6.3-.2.7-.3 1.1-.3.5 0 .9.1 1.2.3l.8.6V175.6l.2-.1h.8v8.4l-.2.1h-.7l-.1-.3v-.5l-.8.7-1.2.2zm.3-1c.4 0 .7 0 1-.2s.3-.4.5-.7l.2-.9a7.4 7.4 0 0 0 0-1l-.3-.8c0-.2-.3-.4-.5-.6-.2-.2-.6-.3-1-.3-.3 0-.7.1-1 .3l-.4.7-.2 1v.6c0 .4 0 .7.2 1 0 .3.2.5.5.7.2.2.6.2 1 .2zm6.7 1-1.1-.1-.8-.5-.5-.4a1 1 0 0 1-.1-.4v-.2l.3-.1h.5l.2.1.4.4.4.2.7.1c.4 0 .8 0 1-.2.3-.1.4-.4.4-.7l-.1-.5-.6-.3-1.1-.3-1.2-.4-.6-.6-.2-.8c0-.3.1-.5.3-.8.2-.3.4-.5.8-.7.3-.2.8-.3 1.3-.3.4 0 .7 0 1 .2l.8.4.4.4.2.4-.1.2-.2.1h-.7v-.1l-.3-.3-.5-.3h-.6c-.4 0-.7 0-1 .2s-.2.3-.2.6v.4l.6.3 1.1.3 1.3.5c.3.2.5.3.6.6l.2.8-.3 1a2 2 0 0 1-.9.6l-1.4.2zm7.6-.1h-.2v-5.3h-1.3V177.7h1.2v-.6c0-.4 0-.8.2-1.1.2-.3.4-.6.7-.7.3-.2.7-.3 1.2-.3h1.8l.2.1.1.2V176H129c-.4 0-.6.2-.8.4l-.2.8v.6h3l.1.2v5.9l-.3.1h-.7v-5.3h-2v5l-.1.2-.2.1zm6 0h-.2l-.1-.3v-8.1l.3-.1h.7l.1.3v8.1l-.3.1zm5 0c-.4 0-.8 0-1-.3-.3-.1-.5-.4-.7-.7a3 3 0 0 1-.2-1.1v-3.2h-1.1V177.7h1.2v-2.2l.2-.1h.8v2.3h1.7l.1.2V178.6l-.3.1h-1.4v3.1c0 .4 0 .7.2.9s.3.3.6.3h.8l.2.1v.8l-.2.1zm4.8.1c-.8 0-1.5-.2-2-.7-.5-.5-.7-1.2-.8-2.1a5.3 5.3 0 0 1 0-.8c0-.6.2-1 .4-1.5.2-.4.5-.8 1-1 .4-.2.8-.4 1.4-.4.6 0 1 .2 1.5.4.4.3.7.6 1 1.1s.3 1 .3 1.7v.2l-.1.2h-4.4v.1c0 .4.1.7.3 1 0 .3.3.5.5.7s.5.2.9.2a1.7 1.7 0 0 0 1.4-.6l.2-.2H145.5l.1.2c0 .1 0 .3-.2.4l-.5.5-.8.5-1.1.1zm-1.7-3.7h3.3c0-.4 0-.7-.2-1-.1-.3-.3-.5-.5-.6-.3-.2-.6-.3-1-.3s-.6.1-.8.3c-.3.1-.4.3-.6.6s-.2.6-.2 1zm6.2 3.6h-.2l-.1-.3v-5.9h1l.1.2v.6c.2-.3.4-.5.7-.6l1-.2h.7V178.7h-1c-.4 0-.7.2-1 .5-.2.2-.3.6-.3 1v3.5l-.1.2-.2.1zm3.5.9h-.1v-.3l.2-1.7.1-.2.3-.1h.8l.2.2-.1.2-.6 1.6-.2.2-.2.1zm6.5-.9h-.2l-.1-.3v-8l.3-.1h5.1l.1.3V176.5l-.3.1h-4v2.6h3.8l.2.1V180.2h-4v2.8h4.3l.1.3V183.9l-.3.1zm8.6.1c-.4 0-.8 0-1.1-.2l-.8-.7c-.2-.3-.3-.5-.3-.9 0-.5.2-1 .7-1.3s1-.6 1.7-.7l1.8-.2v-.4l-.3-.9c-.3-.2-.6-.3-1.1-.3-.4 0-.7 0-.9.2-.2.2-.4.4-.4.6l-.3.2h-.5l-.2-.1-.1-.2.1-.4.5-.6.7-.4a3 3 0 0 1 1.1-.2l1.2.2a1.8 1.8 0 0 1 1.2 1.2l.1.8v4.1l-.3.1h-.7v-.8l-.5.4a2.4 2.4 0 0 1-1.6.5zm.2-.9c.3 0 .6 0 1-.2l.6-.6.2-1.2v-.3l-1.4.2c-.6 0-1 .2-1.3.4-.3.2-.4.4-.4.7 0 .2 0 .4.2.6l.5.3.6.1zm6.8 1-1.1-.2-.8-.5-.5-.4a1 1 0 0 1-.1-.4v-.2l.2-.1h.6l.2.1.3.4c.1.2.3.2.5.2l.7.1c.4 0 .8 0 1-.2.3-.1.4-.4.4-.7l-.1-.5-.6-.3-1.1-.3c-.5-.1-1-.2-1.2-.4l-.6-.6-.2-.8c0-.3.1-.5.3-.8.2-.3.4-.5.8-.7.3-.2.7-.3 1.2-.3s.8 0 1.1.2l.7.4.5.4.1.4v.2l-.2.1h-.7v-.1l-.4-.3-.4-.3h-.7c-.4 0-.7 0-.9.2s-.3.3-.3.6c0 .2 0 .3.2.4l.5.3 1 .3 1.3.5c.3.2.6.3.7.6l.2.8-.3 1a2 2 0 0 1-.9.6l-1.4.2zm4.8 2h-.1c-.1 0 0-.1 0-.2v-.2l.9-2.2-2.3-5.4v-.2a.2.2 0 0 1 .2-.2h.8v.2l1.9 4.3 1.9-4.3v-.2h1v.4l-3.4 7.9-.1.1h-.2zm6-2.2h-.2V175.6l.2-.1h.8v7.3h4l.3.1V184l-.2.1zm6.6 0h-.2v-6.2h1V184l-.2.1zm-.1-7.4h-.2V175.4l.2-.1h1V176.6l-.2.1zm5 7.5-1.2-.1-.8-.5-.4-.4a1 1 0 0 1-.2-.4l.1-.2.2-.1h.6l.1.1.4.4c.1.2.3.2.5.2l.7.1c.4 0 .7 0 1-.2.2-.1.4-.4.4-.7 0-.2 0-.3-.2-.5l-.6-.3-1-.3c-.6-.1-1-.2-1.2-.4l-.6-.6c-.2-.2-.2-.5-.2-.8 0-.3 0-.5.2-.8l.8-.7a3.2 3.2 0 0 1 2.4-.1 2.3 2.3 0 0 1 1.1.8l.2.4v.2l-.3.1h-.6l-.1-.1-.3-.3-.4-.3h-.7c-.4 0-.7 0-.9.2s-.3.3-.3.6l.1.4.5.3 1.1.3 1.3.5c.3.2.5.3.6.6l.2.8c0 .3 0 .6-.3 1a2 2 0 0 1-.8.6l-1.4.2zm6.3-.1c-.4 0-.8 0-1-.3-.3-.1-.5-.4-.7-.7a3 3 0 0 1-.2-1.1v-3.2h-1.1V177.7h1.2v-2.2l.2-.1h.8v2.3H202.7l.1.2V178.6l-.2.1H201v3.1c0 .4 0 .7.2.9s.3.3.6.3h.8l.2.1v.8l-.2.1zm7 .1c-.4 0-.8 0-1.1-.2l-.8-.7c-.2-.3-.3-.5-.3-.9 0-.5.2-1 .7-1.3s1-.6 1.7-.7l1.8-.2v-.4l-.3-.9c-.2-.2-.6-.3-1.1-.3-.4 0-.7 0-.9.2l-.4.6-.3.2h-.5l-.2-.1V178.8l.5-.6.7-.4a3 3 0 0 1 1.1-.2l1.2.2a1.8 1.8 0 0 1 1.2 1.2l.1.8v4.1l-.2.1h-.8v-.8l-.5.4a2.4 2.4 0 0 1-1.6.5zm.2-.9c.4 0 .7 0 1-.2l.6-.6.2-1.2v-.3l-1.4.2c-.6 0-1 .2-1.3.4-.3.2-.4.4-.4.7 0 .2 0 .4.2.6l.5.3.6.1zm5 .8h-.3v-6.2h1v.8l.9-.7c.3-.2.7-.3 1.2-.3s1 .2 1.3.4c.4.2.6.5.8 1 .2.3.3.8.3 1.3v3.6l-.3.1h-.8V180.3c0-.6-.2-1-.4-1.3-.3-.3-.7-.5-1.2-.5s-1 .2-1.2.5c-.3.3-.5.7-.5 1.3v3.5l-.3.1zm9.2.1c-.4 0-.8 0-1.1-.2l-.8-.6a3 3 0 0 1-.5-1 4.8 4.8 0 0 1-.2-1.4 5.8 5.8 0 0 1 .2-1.5l.5-.9c.2-.3.5-.5.8-.6.3-.2.7-.3 1.1-.3.5 0 .9.1 1.2.3l.8.6V175.6l.2-.1h.8v8.4l-.2.1h-.7l-.1-.3v-.5l-.8.7-1.2.2zm.3-1c.4 0 .7 0 1-.2s.3-.4.5-.7l.2-.9a7.4 7.4 0 0 0 0-1l-.2-.8-.6-.6c-.2-.2-.6-.3-1-.3-.3 0-.7.1-1 .3l-.4.7-.2 1v.6c0 .4 0 .7.2 1 0 .3.3.5.5.7.2.2.6.2 1 .2zM33.4 200H33V191.6l.2-.1h5.2V192.6l-.2.1h-4.1v2.6H38l.2.1V196.2h-4v2.8h4.4V200l-.2.1zm8.5.1c-.4 0-.8 0-1-.2l-.9-.7c-.2-.3-.3-.5-.3-.9 0-.5.2-1 .7-1.3s1-.6 1.7-.7l1.8-.2v-.4c0-.3 0-.6-.3-.9-.2-.2-.6-.3-1-.3s-.7 0-1 .2l-.4.6c0 .1-.1.2-.3.2h-.5l-.2-.1V194.8l.5-.6.7-.4a3 3 0 0 1 1.1-.2l1.3.2a1.8 1.8 0 0 1 1.1 1.2l.2.8v4l-.1.1-.2.1H44v-.8l-.5.4a2.4 2.4 0 0 1-1.6.5zm.3-.9c.3 0 .6 0 .9-.2l.6-.6c.2-.3.2-.7.2-1.2v-.3l-1.4.2c-.5 0-1 .2-1.2.4-.3.2-.5.4-.5.7 0 .2 0 .4.2.6l.5.3.7.1zm6.7 1-1.1-.2-.8-.5-.4-.4a1 1 0 0 1-.2-.4v-.2l.3-.1h.6l.1.1.4.4c0 .2.3.2.5.2l.7.1c.4 0 .7 0 1-.2.2-.1.4-.4.4-.7 0-.2 0-.3-.2-.5l-.6-.3-1.1-.3c-.5-.1-.9-.2-1.1-.4l-.6-.6c-.2-.2-.2-.5-.2-.8 0-.3 0-.5.2-.8l.8-.7c.3-.2.8-.3 1.3-.3.4 0 .8 0 1 .2l.8.4.4.4.2.4-.1.2-.2.1h-.6l-.1-.1-.3-.3-.4-.3h-.7c-.4 0-.7 0-1 .2s-.2.3-.2.6l.1.4.5.3 1.1.3 1.3.5c.3.2.5.3.6.6l.2.8c0 .3 0 .6-.3 1a2 2 0 0 1-.8.6l-1.5.2zm4.9 2h-.2v-.4l1-2.2-2.4-5.4v-.2a.2.2 0 0 1 .2-.2h.8l.1.2 1.8 4.3L57 194l.1-.2h.9l.1.2v.2l-3.5 7.9v.1h-.3zm6-2.2h-.3V191.6l.2-.1h3c.7 0 1.2.1 1.6.3.5.2.8.5 1 .9.3.3.4.8.4 1.4s-.1 1-.4 1.4-.5.6-1 .8c-.4.2-1 .3-1.5.3h-2.1v3l-.1.2-.2.1zm.8-4.3h2.1c.6 0 1-.1 1.4-.4s.4-.6.4-1.1c0-.5-.1-1-.4-1.2s-.8-.4-1.4-.4h-2zm6.7 4.3H67l-.1-.3v-5.9h1l.1.2v.6c.2-.3.4-.5.7-.6l1-.2h.7V194.7h-1c-.4 0-.7.2-1 .5-.2.2-.3.6-.3 1v3.5l-.1.2-.2.1zm4.5 0h-.2v-6.2h1V200l-.2.1zm0-7.4h-.3V191.4l.2-.1h1V192.6l-.2.1zm4.8 7.4h-.2l-.2-.3-2.2-5.6a.2.2 0 0 1 .2-.3h.8v.2l1.9 4.7 1.8-4.7.1-.2h1V194.1l-2.2 5.6s0 .2-.2.2l-.2.1zm6 .1c-.4 0-.7 0-1-.2l-.9-.7c-.2-.3-.3-.5-.3-.9 0-.5.3-1 .7-1.3s1-.6 1.8-.7l1.7-.2v-.4c0-.3 0-.6-.3-.9-.2-.2-.6-.3-1-.3s-.7 0-1 .2l-.4.6-.2.2H81l-.2-.1V194.8l.5-.6.7-.4a3 3 0 0 1 1.2-.2l1.2.2a1.8 1.8 0 0 1 1.1 1.2l.2.8v4l-.1.1-.2.1h-.8v-.8l-.5.4a2.4 2.4 0 0 1-1.6.5zm.3-.9c.3 0 .6 0 .9-.2.2-.1.5-.3.6-.6.2-.3.2-.7.2-1.2v-.3l-1.3.2c-.6 0-1 .2-1.3.4-.3.2-.5.4-.5.7l.2.6.5.3.7.1zm7.1 1c-.6 0-1-.2-1.5-.4-.4-.2-.7-.5-1-1-.1-.4-.3-.9-.3-1.4a7.6 7.6 0 0 1 0-1c0-.6.2-1 .4-1.5.2-.4.5-.7 1-1a3 3 0 0 1 1.4-.3l1.2.2.8.5.5.7.2.6v.2l-.3.1h-.7l-.2-.2c-.1-.4-.3-.7-.5-.9s-.6-.2-1-.2c-.5 0-.8.1-1.1.4-.3.3-.5.8-.5 1.5v.8c0 .7.2 1.1.5 1.4.3.3.6.5 1.1.5.4 0 .7-.1 1-.3s.4-.4.5-.8l.2-.2H92.6s.1.1 0 .2a1.8 1.8 0 0 1-.3 1 2.3 2.3 0 0 1-1.3.9l-1 .1zm5 2H95l-.1-.2v-.2l1-2.2-2.3-5.4v-.2a.2.2 0 0 1 .2-.2h.8v.2l1.9 4.3 1.9-4.3v-.2h1v.4l-3.4 7.9-.1.1h-.2zm4.7-.3h-.2V201h.2c.3 0 .6-.2.8-.3l.6-.8.3-1.4a20.7 20.7 0 0 0-.3-5.8l-.6-.8-.8-.2-.2-.1v-.8l.2-.1c.5 0 1 .1 1.3.3s.7.6.9 1l.5 1.8a17.5 17.5 0 0 1-.5 6.8c-.2.4-.5.8-.9 1-.3.2-.8.3-1.3.3zm9-1.8c-.3 0-.7 0-1-.2l-.8-.7c-.2-.3-.3-.5-.3-.9 0-.5.2-1 .6-1.3s1-.6 1.8-.7l1.8-.2v-.4l-.3-.9c-.3-.2-.6-.3-1.1-.3-.4 0-.7 0-.9.2-.2.2-.4.4-.4.6l-.3.2h-.5l-.2-.1-.1-.2.1-.4.5-.6.7-.4a3 3 0 0 1 1.1-.2l1.2.2a1.8 1.8 0 0 1 1.2 1.2l.1.8v4.1l-.3.1h-.7v-.8l-.5.4a2.4 2.4 0 0 1-1.6.5zm.3-.9c.3 0 .6 0 1-.2.2-.1.4-.3.5-.6.2-.3.3-.7.3-1.2v-.3l-1.4.2c-.6 0-1 .2-1.3.4-.3.2-.4.4-.4.7 0 .2 0 .4.2.6l.5.3.6.1zm5 .8h-.3v-6.2h1v.8l.8-.7c.4-.2.8-.3 1.3-.3s1 .2 1.3.4c.4.2.6.5.8 1 .2.3.3.8.3 1.3v3.6l-.3.1h-.8V196.3c0-.6-.2-1-.5-1.3-.2-.3-.6-.5-1.2-.5-.5 0-.9.2-1.2.5-.3.3-.4.7-.4 1.3v3.5l-.3.1zm9.2.1c-.4 0-.8 0-1.1-.2l-.8-.6a3 3 0 0 1-.5-1 4.8 4.8 0 0 1-.2-1.4 5.8 5.8 0 0 1 .2-1.5l.5-.9c.2-.3.4-.5.8-.6.3-.2.7-.3 1.1-.3.5 0 .9.1 1.2.3l.7.6v-2.7l.1-.2.2-.1h.8v8.4l-.2.1h-.7l-.1-.3v-.5l-.8.7-1.2.2zm.3-1c.4 0 .7 0 1-.2s.3-.4.5-.7l.1-.9a7.4 7.4 0 0 0 0-1c0-.2 0-.5-.2-.8 0-.2-.3-.4-.5-.6-.3-.2-.6-.3-1-.3s-.7.1-1 .3l-.4.7-.2 1v.6c0 .4 0 .7.2 1 0 .3.2.5.5.7.2.2.5.2 1 .2zm9.7 1-1.2-.1-.8-.5-.4-.4a1 1 0 0 1-.2-.4l.1-.2.2-.1h.6l.1.1.4.4c0 .2.3.2.5.2l.7.1c.4 0 .7 0 1-.2.2-.1.4-.4.4-.7 0-.2 0-.3-.2-.5l-.6-.3-1.1-.3c-.5-.1-.9-.2-1.1-.4l-.6-.6c-.2-.2-.2-.5-.2-.8 0-.3 0-.5.2-.8l.8-.7a3.2 3.2 0 0 1 2.4-.1 2.3 2.3 0 0 1 1.1.8l.2.4v.2l-.3.1h-.6l-.1-.1-.3-.3-.4-.3h-.7c-.4 0-.7 0-.9.2s-.3.3-.3.6l.1.4.5.3 1.1.3 1.3.5c.3.2.5.3.6.6l.2.8c0 .3 0 .6-.3 1a2 2 0 0 1-.8.6l-1.4.2zm4.2-.1h-.2v-6.2h1V200l-.2.1zm-.1-7.4h-.2V191.4l.2-.1h.9l.1.3v.8l-.2.1zm3.1 7.4h-.2v-6.2h.9l.1.2v.5c.2-.3.4-.5.7-.6a2 2 0 0 1 1-.3c1 0 1.6.4 2 1.1.1-.3.4-.6.8-.8s.7-.3 1.2-.3c.4 0 .8.1 1 .3.4.2.7.5.9.9.2.4.3.9.3 1.5v3.6l-.3.1h-.8V196.3c0-.5 0-.8-.2-1l-.5-.6-.7-.2c-.2 0-.5 0-.7.2l-.5.5c-.2.3-.2.6-.2 1v3.4l-.1.2-.2.1h-.8V196.3l-.2-1c-.1-.3-.4-.5-.6-.6l-.7-.2c-.2 0-.4 0-.6.2l-.5.5c-.2.3-.2.6-.2 1v3.4l-.1.2-.2.1zm10.7 2.3-.2-.1V193.8H151.8l.1.2v.6a2.3 2.3 0 0 1 2-1c.4 0 .8.1 1.1.3.3.1.6.3.8.6l.5.9.1 1a6.6 6.6 0 0 1-.1 2l-.5.9a2.2 2.2 0 0 1-2 .8c-.4 0-.8 0-1-.2-.4-.2-.7-.4-.9-.7v3h-.2zm2.5-3.2c.5 0 .8 0 1-.2l.5-.7.2-1v-.7c0-.3 0-.6-.2-.9 0-.3-.3-.5-.5-.7-.2-.2-.5-.3-1-.3-.4 0-.7.1-1 .3l-.5.7-.2.9a7.4 7.4 0 0 0 0 .9l.2.8.6.7c.2.2.6.2 1 .2zm4.6.9h-.2v-8.4l.2-.1h.8v8.4l-.2.1zm3 0h-.1l-.1-.3v-5.9h1l.1.2v5.9l-.3.1zm0-7.4h-.2l-.1-.3v-.8l.3-.1H162l.1.3v.8l-.3.1zm3.6 7.4h-.2v-5.3h-1.3V193.7h1.2v-.6c0-.4 0-.8.2-1.1.2-.3.4-.6.7-.7.3-.2.7-.3 1.2-.3h1.8l.2.1.1.2V192h-2.1c-.4 0-.6.2-.8.4l-.2.8v.6h3l.1.2v5.9l-.3.1h-.7l-.1-.3v-5h-2v5.2l-.2.1zm8.2.1c-.8 0-1.5-.2-2-.7-.5-.5-.7-1.2-.8-2.1a5.3 5.3 0 0 1 0-.8c0-.6.2-1 .4-1.5.2-.4.6-.8 1-1 .4-.2.8-.4 1.4-.4.6 0 1.1.2 1.5.4.4.3.7.6 1 1.1s.3 1 .3 1.7v.2l-.1.2h-4.3v.1c0 .4 0 .7.2 1l.5.7c.2.2.5.2.9.2a1.7 1.7 0 0 0 1.4-.6l.2-.2H175.5l.1.2c0 .1 0 .3-.2.4l-.5.5-.8.5-1.1.1zm-1.6-3.7h3.2c0-.4 0-.7-.2-1 0-.3-.3-.5-.5-.6-.3-.2-.6-.3-1-.3s-.6.1-.8.3l-.6.6c-.2.3-.1.6-.1 1zm8.1 3.7c-.4 0-.8 0-1.1-.2l-.8-.6a3 3 0 0 1-.5-1 4.8 4.8 0 0 1-.2-1.4 5.8 5.8 0 0 1 .2-1.5l.5-.9c.2-.3.4-.5.8-.6.3-.2.7-.3 1.1-.3.5 0 .9.1 1.2.3l.7.6v-2.7l.1-.2.2-.1h.8v8.4l-.2.1h-.8v-.8l-.8.7-1.2.2zm.2-1c.4 0 .8 0 1-.2l.5-.7c.2-.3.2-.6.2-.9a7.4 7.4 0 0 0 0-1c0-.2 0-.5-.2-.8 0-.2-.3-.4-.5-.6-.3-.2-.6-.3-1-.3s-.7.1-1 .3l-.4.7-.2 1v.6c0 .4 0 .7.2 1 0 .3.2.5.5.7.2.2.5.2 1 .2zm9.8 1-1.2-.1-.8-.5-.4-.4a1 1 0 0 1-.2-.4v-.2l.3-.1h.6l.1.1.4.4c0 .2.3.2.5.2l.7.1c.4 0 .7 0 1-.2.2-.1.4-.4.4-.7 0-.2 0-.3-.2-.5l-.6-.3-1.1-.3c-.5-.1-.9-.2-1.1-.4l-.6-.6c-.2-.2-.2-.5-.2-.8 0-.3 0-.5.2-.8l.8-.7a3.2 3.2 0 0 1 2.4-.1 2.3 2.3 0 0 1 1.1.8l.2.4v.2l-.3.1h-.6l-.1-.1-.3-.3-.4-.3h-.7c-.4 0-.7 0-1 .2s-.2.3-.2.6l.1.4.5.3 1.1.3 1.3.5c.3.2.5.3.6.6l.2.8c0 .3 0 .6-.3 1a2 2 0 0 1-.8.6l-1.4.2zm4.2 2.2-.2-.1V193.8h.9l.1.2v.6a2.3 2.3 0 0 1 2-1c.4 0 .8.1 1.1.3.4.1.6.3.8.6l.5.9.2 1a6.6 6.6 0 0 1-.2 2l-.5.9a2.2 2.2 0 0 1-1.9.8c-.5 0-.9 0-1.2-.2l-.7-.7v2.8l-.1.2h-.2zm2.5-3.2c.5 0 .8 0 1-.2.3-.2.4-.4.5-.7l.2-1v-.7c0-.3 0-.6-.2-.9 0-.3-.2-.5-.5-.7-.2-.2-.5-.3-1-.3-.3 0-.7.1-1 .3l-.5.7-.1.9a7.4 7.4 0 0 0 0 .9l.1.8.6.7c.2.2.6.2 1 .2zm6.8 1c-.8 0-1.4-.2-2-.7-.4-.5-.7-1.2-.7-2.1a5.3 5.3 0 0 1 0-.8c0-.6.1-1 .4-1.5.2-.4.5-.8 1-1 .3-.2.8-.4 1.3-.4.7 0 1.2.2 1.6.4.4.3.7.6 1 1.1s.2 1 .2 1.7v.4h-4.4v.1l.2 1 .6.7c.3.2.5.2.8.2a1.7 1.7 0 0 0 1.5-.6l.1-.2h1v.2l-.1.4-.5.5c-.2.1-.5.4-.9.5l-1 .1zm-1.6-3.7h3.3c0-.4 0-.7-.2-1-.1-.3-.3-.5-.6-.6-.2-.2-.5-.3-.9-.3s-.6.1-.8.3c-.3.1-.5.3-.6.6l-.2 1zm8.4 3.7c-.6 0-1 0-1.5-.3-.4-.2-.7-.5-1-1-.2-.4-.3-.9-.3-1.4a7.6 7.6 0 0 1 0-1c0-.6.1-1 .4-1.5.2-.4.5-.7 1-1a3 3 0 0 1 1.4-.3l1.2.2.8.5.5.7.2.6-.1.2-.2.1h-.8v-.2c-.2-.4-.4-.7-.7-.9s-.5-.2-.9-.2c-.5 0-.9.1-1.2.4-.3.3-.4.8-.4 1.5v.8c0 .7.1 1.1.4 1.4.3.3.7.5 1.2.5.4 0 .7-.1 1-.3s.4-.4.5-.8l.1-.2h1c.1 0 0 .1 0 .2a1.8 1.8 0 0 1-.3 1 2.3 2.3 0 0 1-1.3.9l-1 .1zm4.4-.1h-.2l-.1-.3v-5.9h1l.1.2v5.9l-.3.1zm-.1-7.4h-.2l-.1-.3v-.8l.3-.1H215l.1.3v.8l-.3.1zm3.6 7.4h-.2v-5.3h-1.3V193.7h1.2v-.6c0-.4 0-.8.2-1.1.2-.3.4-.6.7-.7.3-.2.7-.3 1.2-.3h1.8l.2.1.1.2V192h-2.1c-.4 0-.6.2-.8.4l-.2.8v.6h3l.1.2v5.9l-.3.1h-.7v-5.3h-2v5l-.1.2-.2.1zm8.2.1c-.5 0-1 0-1.4-.3-.5-.2-.8-.5-1-1l-.4-1.4a7.6 7.6 0 0 1 0-1c0-.6.2-1 .4-1.5.2-.4.5-.7 1-1a3 3 0 0 1 1.4-.3l1.2.2.8.5.5.7.2.6v.2l-.3.1h-.7l-.1-.2-.6-.9c-.2-.2-.6-.2-1-.2s-.8.1-1.1.4c-.3.3-.5.8-.5 1.5v.8c0 .7.2 1.1.5 1.4.3.3.7.5 1.1.5.4 0 .7-.1 1-.3s.4-.4.6-.8v-.2h1l.1.2a1.8 1.8 0 0 1-.4 1 2.3 2.3 0 0 1-1.3.9l-1 .1zm5.9 0c-.4 0-.8 0-1.1-.2l-.8-.7c-.2-.3-.3-.5-.3-.9 0-.5.2-1 .7-1.3s1-.6 1.7-.7l1.8-.2v-.4l-.3-.9c-.3-.2-.6-.3-1.1-.3-.4 0-.7 0-.9.2l-.4.6-.3.2h-.5l-.2-.1V194.8l.5-.6.7-.4a3 3 0 0 1 1.1-.2l1.2.2a1.8 1.8 0 0 1 1.2 1.2l.1.8v4.1l-.2.1h-.8v-.8l-.5.4a2.4 2.4 0 0 1-1.6.5zm.2-.9c.4 0 .7 0 1-.2l.6-.6.2-1.2v-.3l-1.4.2c-.6 0-1 .2-1.3.4-.3.2-.4.4-.4.7 0 .2 0 .4.2.6l.5.3.6.1zm5 .8h-.3v-8.4l.2-.1h.8v8.4l-.2.1zm2.9 0h-.2l-.1-.3v-8.1l.3-.1h.7l.1.3v8.1l-.3.1zm3.7 2.3h-.2v-.5l1-2.2-2.4-5.4v-.2a.2.2 0 0 1 .2-.2h.8l.1.2 1.8 4.3 1.9-4.3v-.2H247.9l.1.2v.2l-3.5 7.9v.1h-.3zm10.3-2.3c-.4 0-.8 0-1-.3-.4-.1-.6-.4-.7-.7a3 3 0 0 1-.2-1.1v-3.2H251l-.1-.3V193.8h1.3v-2.2l.2-.1h.7l.1.3v2h1.7v.8l-.2.1h-1.5v3.1c0 .4 0 .7.2.9s.4.3.7.3h.7l.2.1.1.2V199.9l-.3.1zm4.8.1c-.6 0-1.1-.1-1.5-.3s-.7-.6-1-1c-.2-.4-.3-.9-.3-1.4a9 9 0 0 1 0-1c0-.6.1-1 .4-1.5.2-.4.5-.7.9-1s1-.3 1.5-.3 1.1.2 1.5.4.7.5 1 1c.2.4.3.8.3 1.4a8.7 8.7 0 0 1 0 1c0 .5-.1 1-.3 1.4-.2.4-.6.7-1 1s-.9.3-1.5.3zm0-.9c.5 0 .9-.2 1.2-.5.3-.3.5-.8.5-1.4a7 7 0 0 0 0-.9c0-.6-.2-1-.5-1.4-.3-.3-.7-.4-1.2-.4s-.9.1-1.2.4c-.3.4-.4.8-.5 1.4a7 7 0 0 0 0 1c0 .5.2 1 .5 1.3.3.3.7.5 1.2.5zm10.4 1c-.5 0-1-.2-1.2-.3l-.8-.7v.7l-.3.1h-.7l-.1-.3v-8.1l.3-.1h.8v3l.8-.6c.3-.2.7-.3 1.2-.3.4 0 .8.1 1.1.3.3.1.6.3.8.6l.5 1a4.6 4.6 0 0 1 .1 1.4 5.8 5.8 0 0 1-.1 1.4l-.5 1-.8.6-1.1.2zm-.3-1c.4 0 .8-.1 1-.3l.5-.7.2-1v-.7c0-.3 0-.6-.2-.9l-.5-.7c-.2-.2-.6-.3-1-.3a1.6 1.6 0 0 0-1.5 1l-.2.8a7.7 7.7 0 0 0 0 .9l.2.9c.1.3.3.5.6.7.2.2.5.2 1 .2zm6.8 1c-.8 0-1.5-.3-2-.8-.4-.5-.7-1.2-.8-2.1a5.3 5.3 0 0 1 0-.8c0-.6.2-1 .4-1.5.3-.4.6-.8 1-1 .4-.2.9-.4 1.4-.4.6 0 1.1.2 1.5.4.4.3.8.6 1 1.1s.3 1 .3 1.7v.4H274v.1c0 .4 0 .7.2 1l.5.7c.2.2.6.2 1 .2a1.7 1.7 0 0 0 1.3-.6l.2-.2h1v.2c0 .1 0 .3-.2.4 0 .2-.2.4-.5.5l-.8.5-1 .1zm-1.6-3.8h3.3l-.2-1-.6-.6c-.3-.2-.5-.3-.9-.3s-.6.1-.9.3c-.2.1-.4.3-.5.6l-.2 1z"/><path fill="#6e757c" d="M35.5 232.1c-.6 0-1.2 0-1.6-.3-.4-.2-.8-.5-1-.9l-.4-1 .1-.3h1l.2.2c0 .3.2.6.3.8a1.8 1.8 0 0 0 1.4.5c.3 0 .7 0 1-.2l.6-.6c.2-.3.3-.6.3-1a1.6 1.6 0 0 0-1-1.6 2 2 0 0 0-.9-.2l-.6.1-.5.2a5 5 0 0 1-.3.3H33v-.2l.3-4v-.2l.3-.1H38V224.6l-.2.1h-3.5l-.2 2.4.6-.3 1-.1c.4 0 .7 0 1 .2.4 0 .7.3 1 .5s.5.5.6.8c.2.4.3.7.3 1.2 0 .6-.2 1.1-.4 1.5-.3.4-.7.8-1.1 1-.5.2-1 .3-1.6.3zm7.4 0-1.2-.1c-.4-.2-.8-.3-1-.6a2.4 2.4 0 0 1-.6-3c.3-.4.6-.7 1-.9-.3-.2-.6-.4-.7-.7l-.3-1c0-.5.1-1 .3-1.3.3-.3.6-.6 1-.7l1.5-.3c.6 0 1 0 1.5.3.4.1.8.4 1 .7.3.4.4.8.4 1.2a2 2 0 0 1-1 1.8 2.2 2.2 0 0 1 1.3 2c0 .6-.1 1-.4 1.4-.3.4-.6.7-1.1 1l-1.7.2zm0-1 1-.1c.3-.1.6-.3.7-.6.2-.2.3-.5.3-.8 0-.3 0-.6-.3-.8-.1-.3-.4-.4-.7-.6l-1-.2-1 .2-.7.6c-.2.2-.2.5-.2.8 0 .3 0 .6.2.8l.7.6 1 .2zm0-4c.3 0 .6 0 .9-.2.2 0 .5-.2.6-.4.2-.2.2-.5.2-.7l-.2-.7c-.1-.2-.3-.4-.6-.5l-.9-.2a2 2 0 0 0-.8.2c-.3.1-.5.3-.6.5l-.3.7c0 .3.1.5.3.7.1.2.3.3.6.4l.8.2zm5.2 4.9h-.2l-.1-.3v-8l.3-.1h.8v3.3l3.3-3.1.1-.1.3-.1H53.4l.1.2v.2l-3.7 3.6 4 4v.2l-.1.1-.2.1h-1l-.1-.2-3.4-3.4v3.3l-.1.2-.2.1zm9.8 0h-.2v-6.2h1c.1 0 0 .2 0 .2v.6l.7-.6 1-.2h.7l.1.2v.7h-1c-.4 0-.8.2-1 .5-.3.2-.4.6-.4 1v3.7l-.3.1zm6.7.1c-.6 0-1 0-1.3-.3-.4-.2-.7-.6-.9-1s-.2-.9-.2-1.4v-3.6h1l.1.2v3.4c0 1.2.5 1.7 1.6 1.7.5 0 .9-.1 1.2-.4.3-.3.4-.8.4-1.3V226l.1-.2h1V232l-.2.1h-.8v-.8l-.8.7-1.2.2zm5.1-.1h-.2v-8.4l.2-.1h.8v8.4l-.2.1zm5.2.1c-.9 0-1.5-.2-2-.7-.5-.5-.8-1.2-.8-2.1a5.3 5.3 0 0 1 0-.8c0-.6.1-1 .4-1.5.2-.4.5-.8 1-1 .3-.2.8-.4 1.4-.4.6 0 1 .2 1.5.4.4.3.7.6 1 1.1s.2 1 .2 1.7v.4h-4.4v.1l.2 1 .6.7c.3.2.5.2.9.2a1.7 1.7 0 0 0 1.4-.6l.1-.2h1v.2l-.1.4-.5.5-.8.5-1.1.1zm-1.7-3.7h3.3c0-.4 0-.7-.2-1-.1-.3-.3-.5-.6-.6-.2-.2-.5-.3-.8-.3l-1 .3c-.2.1-.4.3-.5.6l-.2 1zm8 3.7-1.1-.1-.8-.5-.4-.4a1 1 0 0 1-.2-.4v-.2l.3-.1h.6l.1.1.4.4c0 .2.3.2.4.2l.8.1c.4 0 .7 0 1-.2.2-.1.4-.4.4-.7l-.2-.5-.6-.3-1.1-.3-1.2-.4-.6-.6-.1-.8c0-.3 0-.5.2-.8l.8-.7c.3-.2.8-.3 1.3-.3.4 0 .8 0 1 .2l.8.4.4.4.2.4-.1.2-.2.1h-.6l-.1-.1-.3-.3-.4-.3h-.7c-.4 0-.7 0-1 .2s-.2.3-.2.6l.1.4.5.3 1.1.3 1.3.5c.3.2.5.3.6.6l.2.8c0 .3 0 .6-.3 1a2 2 0 0 1-.9.6l-1.4.2zM105.2 232.1c-.7 0-1.2-.1-1.7-.3-.5-.3-.9-.6-1.1-1.1-.3-.5-.4-1.2-.4-2v-5l.2-.1H103.1v5.2c0 .8.2 1.3.6 1.7s.9.6 1.5.6a2 2 0 0 0 1.5-.6c.4-.4.6-1 .6-1.7v-5.1l.3-.1h.8v5.2a4 4 0 0 1-.3 1.9c-.3.5-.7.8-1.1 1s-1.1.4-1.8.4zm5.4 2.2-.2-.1V225.8H111.3l.1.2v.6a2.3 2.3 0 0 1 2-1c.4 0 .8.1 1.1.3.3.1.6.3.8.6l.5.9.1 1a6.6 6.6 0 0 1-.1 2l-.5.9a2.2 2.2 0 0 1-2 .8c-.4 0-.8 0-1-.2-.4-.2-.7-.4-.9-.7v3h-.2zm2.5-3.2c.5 0 .8 0 1-.2l.5-.7.2-1v-.7c0-.3 0-.6-.2-.9 0-.3-.3-.5-.5-.7-.2-.2-.5-.3-1-.3-.4 0-.7.1-1 .3l-.5.7-.2.9a7.4 7.4 0 0 0 0 .9l.2.8.6.7c.2.2.6.2 1 .2zm6.6 1c-.4 0-.8 0-1.1-.2l-.8-.6a3 3 0 0 1-.5-1 4.8 4.8 0 0 1-.1-1.4 5.8 5.8 0 0 1 .1-1.5l.5-.9c.2-.3.5-.5.8-.6.3-.2.7-.3 1.1-.3.5 0 .9.1 1.2.3l.8.6V223.6l.3-.1h.7l.1.3v8.1l-.3.1h-.7v-.8l-.9.7-1.2.2zm.3-1c.4 0 .7 0 1-.2s.4-.4.5-.7l.2-.9a7.4 7.4 0 0 0 0-1l-.2-.8-.6-.6c-.2-.2-.5-.3-1-.3l-.9.3-.5.7-.2 1v.6c0 .4 0 .7.2 1l.5.7c.3.2.6.2 1 .2zm6.3 1c-.4 0-.7 0-1-.2l-.9-.7c-.2-.3-.3-.5-.3-.9 0-.5.3-1 .7-1.3s1-.6 1.8-.7l1.8-.2v-.4c0-.3-.2-.6-.4-.9-.2-.2-.6-.3-1-.3s-.7 0-1 .2l-.4.6-.2.2h-.6l-.2-.1V226.8l.5-.6.8-.4a3 3 0 0 1 1-.2l1.3.2a1.8 1.8 0 0 1 1.2 1.2V232l-.2.1h-.7l-.1-.3v-.5l-.4.4a2.4 2.4 0 0 1-1.7.5zm.3-.9c.3 0 .6 0 .9-.2.3-.1.5-.3.6-.6.2-.3.3-.7.3-1.2v-.3l-1.4.2c-.6 0-1 .2-1.3.4-.3.2-.5.4-.5.7l.2.6.5.3.7.1zm7 .8c-.5 0-.8 0-1.1-.3-.3-.1-.5-.4-.6-.7a3 3 0 0 1-.2-1.1v-3.2h-1.2V225.7h1.2v-2.2l.3-.1h.7l.1.3v2h1.7v.8l-.2.1h-1.5v3.1c0 .4 0 .7.2.9s.4.3.7.3h.7l.2.1v.8l-.2.1zm4.7.1c-.8 0-1.5-.2-2-.7-.4-.5-.7-1.2-.8-2.1a5.3 5.3 0 0 1 0-.8c0-.6.2-1 .4-1.5.3-.4.6-.8 1-1 .4-.2.9-.4 1.4-.4.6 0 1.1.2 1.5.4.5.3.8.6 1 1.1s.3 1 .3 1.7v.4H136.6v.1c0 .4 0 .7.2 1 .1.3.3.5.6.7s.5.2.8.2a1.7 1.7 0 0 0 1.4-.6l.2-.2h1v.2l-.1.4c-.2.2-.3.4-.6.5l-.8.5-1 .1zm-1.6-3.7h3.3c0-.4 0-.7-.2-1-.2-.3-.3-.5-.6-.6-.2-.2-.5-.3-.9-.3s-.6.1-.9.3c-.2.1-.4.3-.5.6l-.2 1zm8.1 3.7c-.4 0-.8 0-1.1-.2l-.8-.6a3 3 0 0 1-.5-1 4.8 4.8 0 0 1-.1-1.4 5.8 5.8 0 0 1 .1-1.5l.5-.9c.2-.3.5-.5.8-.6.3-.2.7-.3 1.1-.3.5 0 .9.1 1.2.3l.8.6V223.6l.3-.1h.7l.1.3v8.1l-.3.1h-.7v-.8l-.9.7-1.2.2zm.3-1c.4 0 .7 0 1-.2s.4-.4.5-.7l.2-.9a7.4 7.4 0 0 0 0-1l-.2-.8-.6-.6c-.2-.2-.5-.3-1-.3l-.9.3-.5.7-.2 1v.6c0 .4 0 .7.2 1l.5.7c.3.2.6.2 1 .2zm11.5.9h-.2l-.1-.3V230h-4.1v-1.1l3.6-5.1.5-.2h1l.1.3v5h1.1l.2.1.1.2v.7l-.3.1h-1v1.7l-.2.2-.1.1zm-3.2-3h2.9v-4.1zm10 3h-.3v-8.4l.2-.1h.8V226.7l.9-.7c.3-.2.7-.3 1.2-.3s1 .2 1.3.4c.4.2.6.5.8 1 .2.3.3.8.3 1.3v3.6l-.3.1h-.8V228.3c0-.6-.2-1-.5-1.3-.2-.3-.6-.5-1.2-.5-.5 0-.9.2-1.2.5-.3.3-.4.7-.4 1.3v3.5l-.3.1zm9.5.1c-.6 0-1.1-.1-1.5-.3s-.8-.6-1-1c-.2-.4-.3-.9-.3-1.4a9 9 0 0 1 0-1c0-.6.1-1 .3-1.5l1-1c.4-.2.9-.3 1.5-.3s1.1.2 1.5.4.7.5 1 1c.2.4.3.8.3 1.4a8.7 8.7 0 0 1 0 1c0 .5-.1 1-.3 1.4l-1 1c-.4.3-.9.3-1.5.3zm0-.9c.5 0 .9-.2 1.2-.5.3-.3.4-.8.5-1.4a7 7 0 0 0 0-.9c0-.6-.2-1-.5-1.4-.3-.3-.7-.4-1.2-.4s-.9.1-1.2.4c-.3.4-.5.8-.5 1.4a7 7 0 0 0 0 1c0 .5.2 1 .5 1.3.3.3.7.5 1.2.5zm6.7 1c-.6 0-1-.2-1.4-.4-.3-.2-.6-.6-.8-1s-.2-.9-.2-1.4v-3.6h1l.1.2v3.4c0 1.2.5 1.7 1.6 1.7.5 0 .9-.1 1.2-.4.3-.3.4-.8.4-1.3V226l.1-.2h1V232l-.2.1h-.8v-.8l-.8.7-1.2.2zm5.1-.2h-.2v-6.2h1v.8c.2-.3.4-.5.7-.6l1-.2h.7V226.7H187c-.4 0-.8.2-1 .5-.3.2-.4.6-.4 1v3.7l-.3.1zm6.5.1-1.2-.1-.8-.5-.4-.4a1 1 0 0 1-.2-.4l.1-.2.2-.1h.6l.2.1.3.4c.1.2.3.2.5.2l.7.1c.4 0 .7 0 1-.2.2-.1.4-.4.4-.7 0-.2 0-.3-.2-.5l-.6-.3-1-.3c-.6-.1-1-.2-1.2-.4l-.6-.6c-.2-.2-.2-.5-.2-.8 0-.3 0-.5.3-.8.1-.3.4-.5.7-.7a3.2 3.2 0 0 1 2.4-.1 2.3 2.3 0 0 1 1.1.8l.2.4v.2l-.3.1h-.6l-.1-.1-.3-.3-.4-.3h-.7c-.4 0-.7 0-.9.2s-.3.3-.3.6l.1.4.5.3 1.1.3 1.3.5c.3.2.5.3.6.6l.2.8c0 .3 0 .6-.3 1a2 2 0 0 1-.8.6l-1.4.2zm8.6 0c-.4 0-.8 0-1-.2l-.9-.7c-.2-.3-.3-.5-.3-.9 0-.5.2-1 .7-1.3s1-.6 1.7-.7l1.8-.2v-.4c0-.3 0-.6-.3-.9-.2-.2-.6-.3-1-.3s-.7 0-1 .2l-.4.6c0 .1-.1.2-.3.2h-.5l-.2-.1V226.8l.5-.6.7-.4a3 3 0 0 1 1.1-.2l1.3.2a1.8 1.8 0 0 1 1.1 1.2l.2.8v4l-.1.1-.2.1h-.8v-.8l-.5.4a2.4 2.4 0 0 1-1.6.5zm.3-.9c.3 0 .6 0 .9-.2l.6-.6c.2-.3.2-.7.2-1.2v-.3l-1.4.2c-.5 0-1 .2-1.2.4-.3.2-.5.4-.5.7 0 .2 0 .4.2.6l.5.3.7.1zm7.1 3.4c-.5 0-1 0-1.3-.2l-.8-.5a2 2 0 0 1-.4-.6l-.2-.5.1-.2h1v.2l.3.4.4.3c.2.2.5.2.9.2l1-.1c.2-.1.4-.3.5-.6l.2-1v-.8l-.7.6c-.4.2-.8.2-1.2.2-.5 0-.9 0-1.2-.2l-.8-.6a3 3 0 0 1-.4-1 4.8 4.8 0 0 1-.2-1.7c0-.4 0-.7.2-1 0-.4.2-.7.4-1 .2-.3.5-.5.8-.6.3-.2.7-.3 1.2-.3s.9.1 1.2.3l.7.7v-.6l.1-.2h1V232c0 .5 0 1-.2 1.4a2 2 0 0 1-.9 1c-.4.2-1 .3-1.7.3zm0-3.5c.4 0 .7-.1 1-.3l.5-.7.2-.8a5.9 5.9 0 0 0 0-.9c0-.3 0-.5-.2-.8 0-.3-.3-.5-.5-.7-.3-.2-.6-.3-1-.3s-.7.1-1 .3l-.5.7-.1 1v.6l.1 1 .6.6c.2.2.5.3 1 .3zm7.2 1c-.6 0-1.1-.1-1.5-.3s-.7-.6-1-1c-.2-.4-.3-.9-.3-1.4a9 9 0 0 1 0-1c0-.6.1-1 .3-1.5l1-1c.4-.2.9-.3 1.5-.3s1.1.2 1.5.4.7.5 1 1c.2.4.3.8.3 1.4a8.7 8.7 0 0 1 0 1c0 .5-.1 1-.3 1.4l-1 1c-.4.3-.9.3-1.5.3zm0-.9c.5 0 .9-.2 1.2-.5.3-.3.4-.8.5-1.4a7 7 0 0 0 0-.9c0-.6-.2-1-.5-1.4-.3-.3-.7-.4-1.2-.4s-.9.1-1.2.4c-.3.4-.5.8-.5 1.4a7 7 0 0 0 0 1c0 .5.2 1 .5 1.3.3.3.7.5 1.2.5z"/><path fill="#3c81f6" d="M237.7 232.1c-.7 0-1.2 0-1.7-.3-.5-.2-.8-.5-1.1-.8a2 2 0 0 1-.4-1.1v-.2H235.7c.1 0 0 .1 0 .2l.4.6.6.4 1.1.2c.7 0 1.2-.1 1.6-.4.3-.2.4-.5.4-1 0-.2 0-.4-.2-.6l-.8-.5-1.4-.4-1.4-.6c-.4-.2-.7-.4-.9-.7-.2-.3-.3-.7-.3-1.2a2.4 2.4 0 0 1 1.3-2l1.7-.2c.5 0 1 0 1.3.2a2.6 2.6 0 0 1 1.5 1.2l.2.8v.1H239.5l-.1-.1c0-.4-.2-.6-.6-.9s-.7-.3-1.2-.3-1 .1-1.3.3c-.3.2-.5.5-.5 1l.3.6c.1.2.4.4.7.5l1.3.4 1.5.6 1 .7.2 1.1c0 .5-.1 1-.4 1.3-.2.4-.6.7-1 .8-.5.2-1.1.3-1.8.3zm7.2 0c-.6 0-1.1-.1-1.5-.3s-.7-.6-1-1c-.2-.4-.3-.9-.3-1.4a9 9 0 0 1 0-1c0-.6.1-1 .3-1.5l1-1c.4-.2 1-.3 1.5-.3s1.1.2 1.5.4.7.5 1 1c.2.4.3.8.3 1.4a8.7 8.7 0 0 1 0 1c0 .5-.1 1-.3 1.4-.2.4-.6.7-1 1s-.9.3-1.5.3zm0-.9c.5 0 .9-.2 1.2-.5.3-.3.5-.8.5-1.4a7 7 0 0 0 0-.9c0-.6-.2-1-.5-1.4-.3-.3-.7-.4-1.2-.4s-.9.1-1.2.4c-.3.4-.4.8-.5 1.4a7 7 0 0 0 0 1c0 .5.2 1 .5 1.3.3.3.7.5 1.2.5zm6.7 1c-.5 0-1-.2-1.3-.4-.4-.2-.7-.6-.8-1s-.3-.9-.3-1.4v-3.6H250.4v3.6c0 1.2.6 1.7 1.6 1.7.5 0 .9-.1 1.2-.4.3-.3.4-.8.4-1.3V226l.1-.2h1V232l-.2.1h-.8v-.8l-.8.7-1.2.2zm5.1-.2h-.2v-6.2h1v.8l.7-.6 1-.2h.7V226.7H259c-.4 0-.8.2-1 .5-.3.2-.4.6-.4 1v3.7l-.3.1zm6.7.1c-.5 0-1 0-1.5-.3-.4-.2-.7-.5-.9-1l-.4-1.4a7.6 7.6 0 0 1 0-1c0-.6.2-1 .4-1.5.2-.4.5-.7 1-1a3 3 0 0 1 1.4-.3l1.2.2.8.5.5.7.2.6v.2l-.3.1h-.7l-.2-.2c-.1-.4-.3-.7-.5-.9s-.6-.2-1-.2-.8.1-1.1.4c-.3.3-.5.8-.5 1.5v.8c0 .7.2 1.1.5 1.4.3.3.7.5 1.1.5.4 0 .7-.1 1-.3s.4-.4.5-.8l.2-.2H266l.1.2a1.8 1.8 0 0 1-.4 1 2.3 2.3 0 0 1-1.3.9l-1 .1zm6.6 0c-.8 0-1.5-.2-2-.7-.4-.5-.7-1.2-.8-2.1a5.3 5.3 0 0 1 0-.8c0-.6.2-1 .4-1.5.3-.4.6-.8 1-1 .4-.2.9-.4 1.4-.4.6 0 1.1.2 1.5.4.4.3.8.6 1 1.1s.3 1 .3 1.7v.4H268.3v.1c0 .4 0 .7.2 1l.5.7c.2.2.6.2 1 .2a1.7 1.7 0 0 0 1.3-.6l.2-.2h1v.2c0 .1 0 .3-.2.4 0 .2-.2.4-.5.5l-.8.5-1 .1zm-1.6-3.7h3.3l-.2-1-.6-.6c-.3-.2-.5-.3-.9-.3s-.6.1-.9.3c-.2.1-.4.3-.5.6l-.2 1zM291.3 232h-.2V223.6l.2-.1h.8l.1.3v3.3h4.1v-3.3l.1-.2.2-.1h.8l.1.3v8l-.3.1h-.8V228.2h-4.2v3.6l-.3.1zm10.7.1c-.6 0-1.1-.1-1.5-.3s-.7-.6-1-1c-.2-.4-.3-.9-.3-1.4a9 9 0 0 1 0-1c0-.6.1-1 .3-1.5l1-1c.4-.2.9-.3 1.5-.3s1.1.2 1.5.4.7.5 1 1c.2.4.3.8.3 1.4a8.7 8.7 0 0 1 0 1c0 .5-.1 1-.3 1.4l-1 1c-.4.3-.9.3-1.5.3zm0-.9c.5 0 .9-.2 1.2-.5.3-.3.4-.8.5-1.4a7 7 0 0 0 0-.9c0-.6-.2-1-.5-1.4-.3-.3-.7-.4-1.2-.4s-.9.1-1.2.4c-.3.4-.5.8-.5 1.4a7 7 0 0 0 0 1c0 .5.2 1 .5 1.3.3.3.7.5 1.2.5zm4.6.8h-.2v-6.2H307.3l.1.2v.5c.2-.3.4-.5.7-.6a2 2 0 0 1 1-.3c1 0 1.6.4 2 1.1.1-.3.4-.6.8-.8s.7-.3 1.2-.3c.4 0 .7.1 1 .3.4.2.7.5.9.9.2.4.3.9.3 1.5v3.4l-.1.2-.2.1h-.8V228.3l-.2-1c-.1-.3-.3-.5-.5-.6l-.7-.2c-.3 0-.5 0-.7.2l-.5.5c-.2.3-.2.6-.2 1v3.4l-.1.2-.2.1h-.8V228.3l-.2-1c-.1-.3-.4-.5-.6-.6l-.7-.2c-.2 0-.4 0-.6.2l-.5.5c-.2.3-.2.6-.2 1v3.4l-.1.2-.2.1zm12.9.1c-.8 0-1.5-.2-2-.7-.5-.5-.7-1.2-.8-2.1a5.3 5.3 0 0 1 0-.8c0-.6.2-1 .4-1.5.2-.4.6-.8 1-1 .4-.2.8-.4 1.4-.4.6 0 1.1.2 1.5.4.4.3.7.6 1 1.1s.3 1 .3 1.7v.2l-.1.2h-4.4v.1c0 .4.1.7.3 1 0 .3.3.5.5.7s.5.2.9.2a1.7 1.7 0 0 0 1.4-.6l.2-.2H322l.1.2c0 .1 0 .3-.2.4l-.5.5-.8.5-1.1.1zm-1.7-3.7h3.3c0-.4 0-.7-.2-1 0-.3-.3-.5-.5-.6-.3-.2-.6-.3-1-.3s-.6.1-.8.3l-.6.6c-.2.3-.2.6-.2 1zm6.2 5.9-.2-.1V225.8h.9l.1.2v.6a2.3 2.3 0 0 1 2-1c.4 0 .8.1 1.1.3.4.1.6.3.8.6l.5.9.2 1a6.6 6.6 0 0 1-.2 2l-.5.9a2.2 2.2 0 0 1-1.9.8c-.5 0-.9 0-1.2-.2l-.7-.7v2.8l-.1.2h-.2zm2.5-3.2c.5 0 .8 0 1-.2.3-.2.4-.4.5-.7l.2-1v-.7c0-.3 0-.6-.2-.9 0-.3-.2-.5-.5-.7-.2-.2-.5-.3-1-.3-.3 0-.7.1-1 .3l-.5.7-.1.9a7.4 7.4 0 0 0 0 .9l.1.8.6.7c.2.2.6.2 1 .2zm6.1 1c-.4 0-.8 0-1-.2l-.9-.7c-.2-.3-.3-.5-.3-.9 0-.5.2-1 .7-1.3s1-.6 1.7-.7l1.8-.2v-.4c0-.3 0-.6-.3-.9-.2-.2-.6-.3-1-.3s-.7 0-1 .2l-.4.6c0 .1-.1.2-.3.2h-.5l-.2-.1V226.8l.5-.6.7-.4a3 3 0 0 1 1.1-.2l1.2.2a1.8 1.8 0 0 1 1.2 1.2l.2.8v4l-.1.1-.2.1h-.8v-.8l-.5.4a2.4 2.4 0 0 1-1.6.5zm.3-.9c.3 0 .6 0 .9-.2l.6-.6.2-1.2v-.3l-1.4.2c-.5 0-1 .2-1.2.4-.3.2-.5.4-.5.7 0 .2 0 .4.2.6l.5.3.7.1zm7.1 3.4c-.5 0-1 0-1.3-.2l-.8-.5a2 2 0 0 1-.4-.6l-.2-.5.1-.2h1v.2l.3.4.4.3c.2.2.5.2.9.2l1-.1c.2-.1.4-.3.5-.6l.2-1v-.8l-.7.6c-.4.2-.8.2-1.2.2-.5 0-.9 0-1.2-.2l-.8-.6a3 3 0 0 1-.4-1 4.8 4.8 0 0 1-.2-1.7c0-.4 0-.7.2-1 0-.4.2-.7.4-1 .2-.3.5-.5.8-.6.3-.2.7-.3 1.2-.3s.9.1 1.2.3l.7.7v-.6l.1-.2h1V232c0 .5 0 1-.2 1.4a2 2 0 0 1-1 1c-.3.2-.9.3-1.6.3zm0-3.5c.4 0 .7-.1 1-.3l.5-.7.2-.8a5.9 5.9 0 0 0 0-.9c0-.3 0-.5-.2-.8l-.5-.7c-.3-.2-.6-.3-1-.3s-.7.1-1 .3l-.5.7-.1 1v.6l.1 1 .6.6c.2.2.5.3 1 .3zm7.1 1c-.8 0-1.5-.2-2-.7-.4-.5-.7-1.2-.7-2.1a5.3 5.3 0 0 1 0-.8c0-.6.1-1 .4-1.5.2-.4.5-.8.9-1 .4-.2.9-.4 1.4-.4.6 0 1.1.2 1.6.4.4.3.7.6.9 1.1s.3 1 .3 1.7v.4H345.4v.1c0 .4 0 .7.2 1 .1.3.3.5.6.7s.5.2.8.2a1.7 1.7 0 0 0 1.5-.6l.1-.2h1v.2l-.1.4c-.2.2-.3.4-.6.5l-.8.5-1 .1zm-1.6-3.7h3.3c0-.4 0-.7-.2-1-.1-.3-.3-.5-.6-.6-.2-.2-.5-.3-.9-.3s-.6.1-.9.3c-.2.1-.4.3-.5.6l-.2 1z"/><rect width="66" height="23" x="32.5" y="252.5" fill="#fff" rx="11.5"/><rect width="66" height="23" x="32.5" y="252.5" stroke="#d2d2d2" rx="11.5"/><path fill="#3d3d3d" d="M48 268.1c-.6 0-1.2-.1-1.7-.4-.5-.2-.9-.6-1.1-1a4 4 0 0 1-.5-1.8 49.2 49.2 0 0 1 0-2.2c0-.7.2-1.2.5-1.7.2-.5.6-.9 1.1-1.1s1.1-.4 1.8-.4c.6 0 1 0 1.5.2l1 .6c.3.3.5.5.6.8l.2.7v.2h-1.1l-.1-.2a2 2 0 0 0-1-1.1l-1.1-.2c-.6 0-1.2.2-1.5.5-.4.4-.6 1-.7 1.7v2.2c0 .8.3 1.3.7 1.7a2.7 2.7 0 0 0 2.7.3c.3-.2.5-.4.7-.8s.3-.7.3-1.2v-.5h-2V263.4H51.4l.1.2v1.2c0 .6-.1 1.2-.4 1.7-.3.5-.7.9-1.2 1.1a4 4 0 0 1-1.8.4zm7.5 0c-.8 0-1.4-.2-2-.7-.4-.5-.7-1.2-.7-2.1a5.3 5.3 0 0 1 0-.8c0-.6.1-1 .4-1.5.2-.4.5-.8 1-1 .3-.2.8-.4 1.3-.4.6 0 1.2.2 1.6.4.4.3.7.6 1 1.1s.2 1 .2 1.7v.4h-4.4v.1l.2 1 .6.7c.3.2.5.2.8.2a1.7 1.7 0 0 0 1.5-.6l.1-.2h1v.2l-.1.4-.5.5c-.2.1-.5.4-.9.5l-1 .1zm-1.6-3.7h3.3c0-.4 0-.7-.2-1-.1-.3-.3-.5-.6-.6-.2-.2-.5-.3-.9-.3s-.6.1-.8.3c-.3.1-.5.3-.6.6l-.2 1zM60 268h-.2v-6.2h1v.8l.9-.7c.3-.2.7-.3 1.2-.3s1 .2 1.3.4c.4.2.7.5.8 1 .2.3.3.8.3 1.3v3.6l-.2.1H64.2V264.3c0-.6-.2-1-.4-1.3-.3-.3-.7-.5-1.2-.5s-1 .2-1.2.5c-.3.3-.5.7-.5 1.3v3.5l-.3.1zm9.5.1c-.8 0-1.4-.2-2-.7-.4-.5-.7-1.2-.7-2.1a5.3 5.3 0 0 1 0-.8c0-.6.1-1 .4-1.5.2-.4.5-.8.9-1 .4-.2.9-.4 1.4-.4.6 0 1.1.2 1.6.4.4.3.7.6.9 1.1s.3 1 .3 1.7v.4h-4.4v.1c0 .4 0 .7.2 1 .1.3.3.5.6.7s.5.2.8.2a1.7 1.7 0 0 0 1.5-.6l.1-.2h1v.2l-.1.4-.5.5c-.2.1-.5.4-.9.5l-1 .1zm-1.6-3.7h3.3c0-.4 0-.7-.2-1-.1-.3-.3-.5-.6-.6-.2-.2-.5-.3-.9-.3s-.6.1-.9.3c-.2.1-.4.3-.5.6l-.2 1zM74 268h-.2v-6.2h1c.1 0 0 .2 0 .2v.6l.7-.6 1-.2h.7V262.7H76.3c-.4 0-.8.2-1 .5-.3.2-.4.6-.4 1v3.7l-.3.1zm6 .1c-.4 0-.8 0-1.1-.2l-.8-.7c-.2-.3-.3-.5-.3-.9 0-.5.2-1 .7-1.3s1-.6 1.7-.7l1.8-.2v-.4l-.3-.9c-.3-.2-.6-.3-1.1-.3-.4 0-.7 0-.9.2-.2.2-.4.4-.4.6l-.3.2h-.5l-.2-.1-.1-.2.1-.4.5-.6.7-.4a3 3 0 0 1 1.1-.2l1.2.2A1.8 1.8 0 0 1 83 263l.1.8v4.1l-.3.1h-.7v-.8l-.5.4a2.4 2.4 0 0 1-1.6.5zm.2-.9c.3 0 .6 0 1-.2l.6-.6.2-1.2v-.3l-1.4.2c-.6 0-1 .2-1.3.4-.3.2-.4.4-.4.7 0 .2 0 .4.2.6l.5.3.6.1zm5 .8h-.3v-8.4l.2-.1h.8v8.4l-.2.1z"/><rect width="81" height="39" x="311.5" y="118.5" fill="#fff" rx="7.5"/><rect width="81" height="39" x="311.5" y="118.5" stroke="#9ca4ac" rx="7.5"/><path fill="#6e757c" d="M330.8 142h-.2V133.6l.2-.1h3c.9 0 1.6.2 2.1.6s.8 1 .8 2c0 .5-.2 1-.5 1.4-.3.4-.7.7-1.2.8l1.8 3.2V142l-.2.1h-.6l-.3-.1-.1-.2-1.8-3h-2v3l-.2.2-.2.1zm1-4.4h2c.5 0 1-.1 1.3-.4.3-.2.4-.6.4-1 0-.6-.1-1-.4-1.2-.3-.3-.8-.4-1.4-.4h-2zm8.9 4.5c-.8 0-1.5-.2-2-.7-.5-.5-.7-1.2-.8-2.1a5.3 5.3 0 0 1 0-.8c0-.6.2-1 .4-1.5.2-.4.5-.8 1-1 .4-.2.8-.4 1.4-.4.6 0 1 .2 1.5.4.4.3.7.6 1 1.1s.3 1 .3 1.7v.2l-.1.2H339v.1c0 .4.1.7.3 1 0 .3.3.5.5.7s.5.2.9.2a1.7 1.7 0 0 0 1.4-.6l.2-.2H343.2l.1.2c0 .1 0 .3-.2.4l-.5.5-.8.5-1.1.1zm-1.7-3.7h3.3c0-.4 0-.7-.2-1-.1-.3-.3-.5-.5-.6-.3-.2-.6-.3-1-.3s-.6.1-.8.3c-.3.1-.4.3-.6.6s-.2.6-.2 1zm6.2 3.6h-.2v-6.2H345.9l.1.2v.5c.2-.3.4-.5.7-.6a2 2 0 0 1 1-.3c1 0 1.5.4 2 1.1.1-.3.4-.6.7-.8s.8-.3 1.2-.3l1.2.3c.3.2.6.5.8.9.2.4.3.9.3 1.5v3.4l-.1.2-.2.1h-.8V138.3l-.2-1c-.1-.3-.3-.5-.6-.6l-.7-.2c-.2 0-.4 0-.6.2l-.5.5c-.2.3-.3.6-.3 1v3.6l-.2.1h-.8V138.3c0-.5-.1-.8-.3-1l-.5-.6-.7-.2c-.2 0-.4 0-.6.2l-.6.5-.2 1v3.6l-.2.1zm13 .1c-.7 0-1.2-.1-1.6-.3s-.7-.6-1-1c-.1-.4-.3-.9-.3-1.4a9 9 0 0 1 0-1c0-.6.2-1 .4-1.5.2-.4.5-.7 1-1s.8-.3 1.4-.3 1.1.2 1.5.4.8.5 1 1c.2.4.3.8.3 1.4a8.7 8.7 0 0 1 0 1c0 .5-.1 1-.3 1.4-.2.4-.5.7-1 1s-.9.3-1.5.3zm0-.9c.4 0 .8-.2 1.1-.5.3-.3.5-.8.5-1.4a7 7 0 0 0 0-.9c0-.6-.2-1-.5-1.4-.3-.3-.7-.4-1.2-.4s-.9.1-1.2.4c-.3.4-.4.8-.4 1.4a7 7 0 0 0 0 1c0 .5.1 1 .4 1.3.3.3.7.5 1.2.5zm6.2.8h-.3l-.1-.3-2.3-5.6a.2.2 0 0 1 .3-.3h.8v.2l1.9 4.7 1.8-4.7v-.2H367.6l.1.2v.1l-2.2 5.6-.2.2-.3.1zm6.7.1c-.8 0-1.4-.2-2-.7-.4-.5-.7-1.2-.7-2.1a5.3 5.3 0 0 1 0-.8c0-.6.1-1 .4-1.5.2-.4.5-.8 1-1 .3-.2.8-.4 1.3-.4.7 0 1.2.2 1.6.4.4.3.7.6 1 1.1s.2 1 .2 1.7v.4h-4.4v.1l.2 1 .6.7c.3.2.5.2.8.2a1.7 1.7 0 0 0 1.5-.6l.1-.2h1v.2l-.1.4-.5.5c-.2.1-.5.4-.9.5l-1 .1zm-1.6-3.7h3.3c0-.4 0-.7-.2-1-.1-.3-.3-.5-.6-.6-.2-.2-.5-.3-.9-.3s-.6.1-.8.3c-.3.1-.5.3-.6.6l-.2 1z"/><path fill="#353a3f" d="M32.5 310h-.2l-.1-.3v-.1l3.3-9 .2-.3.3-.1h1.8l.4.1.1.3 3.4 9v.1l-.1.2-.2.1h-1.5l-.3-.1-.1-.2-.6-1.5h-4l-.5 1.5-.2.2-.3.1zm3-3.7h2.9l-1.5-4zm9.9 3.8c-.5 0-1 0-1.3-.2-.4-.1-.7-.4-1-.7l-.5-1a5.5 5.5 0 0 1-.2-1.8 8.6 8.6 0 0 1 .2-1.8c.1-.4.3-.8.6-1 .2-.4.5-.6.9-.8a3 3 0 0 1 1.3-.2c.4 0 .9 0 1.2.2l.9.7v-3.3l.3-.1h1.7v9.8l-.2.1h-1.4l-.2-.1-.1-.2v-.5l-1 .7a3 3 0 0 1-1.2.2zm.6-1.6c.3 0 .6-.1.8-.3.2-.1.4-.3.5-.6l.2-.8a5 5 0 0 0 0-1l-.2-.7c-.1-.3-.3-.5-.5-.6-.2-.2-.5-.2-.8-.2-.4 0-.6 0-.8.2-.2.1-.4.3-.5.6l-.1.8a4.5 4.5 0 0 0 .1 1.7c.1.3.3.5.5.6.2.2.4.3.8.3zm5 1.5h-.3v-.4l3.3-9c0-.1 0-.2.2-.3l.3-.1h1.8l.4.1.1.3 3.4 9v.1l-.1.2-.2.1h-1.5l-.3-.1-.1-.2-.6-1.5h-4l-.6 1.5v.2l-.4.1zm3-3.7h2.9l-1.5-4zm8.9 3.7-.3-.1-.2-.2-2-6.5v-.4h1.8l.2.2 1.2 4.3L65 303l.1-.2H66.5l.1.2 1.4 4.3 1.3-4.3v-.2h1.8l.1.2v.2l-2 6.4c0 .2-.1.2-.2.3l-.3.1h-1l-.4-.1-.1-.2-1.4-4.2-1.4 4.1-.1.3-.3.1zm11.5.1c-.5 0-1 0-1.3-.2l-1-.8c-.2-.4-.3-.7-.3-1.1 0-.7.3-1.2.8-1.6a5 5 0 0 1 2.1-.8l1.9-.2v-.3c0-.3-.1-.6-.3-.8s-.5-.3-.9-.3c-.3 0-.5 0-.7.2-.2 0-.4.2-.5.4 0 .2-.1.2-.3.2h-1.5l-.1-.3c0-.1 0-.3.2-.5 0-.3.3-.5.5-.7l1-.5 1.4-.2c.6 0 1.1 0 1.5.2l1 .6c.3.3.5.5.6.9l.2 1v4.4l-.1.2-.3.1H77l-.3-.1v-.8a2.3 2.3 0 0 1-1.3.9l-1 .1zm.6-1.4c.3 0 .6 0 .8-.2l.6-.6c.2-.3.2-.6.2-1v-.3l-1.3.2c-.5.1-.9.2-1.1.4-.3.2-.4.4-.4.6 0 .2 0 .4.2.5l.4.3h.6zm6.5 4-.2-.1a.3.3 0 0 1 0-.3v-.1l1-2.6-2.6-6.4v-.4h1.9v.2l1.8 4.3 1.8-4.3.1-.2h1.8l.1.2v.2l-4 9.2-.1.2h-.3zm10.1-2.7-.3-.1V300.3l.3-.1h3.5c1 0 1.7.1 2.4.4.6.3 1 .8 1.4 1.3.3.6.5 1.3.5 2.1v2.1c0 1-.2 1.7-.5 2.2a3 3 0 0 1-1.4 1.3c-.6.3-1.4.4-2.3.4zm1.9-1.8H95c.5 0 .9 0 1.2-.2.3-.2.5-.4.6-.7.2-.3.2-.7.3-1.2a21.2 21.2 0 0 0 0-2c0-.8-.2-1.3-.6-1.6-.3-.3-.8-.5-1.6-.5h-1.5zm10.8 2c-1.1 0-2-.4-2.6-1-.6-.6-1-1.4-1-2.6v-.6c0-.7.2-1.3.5-1.8s.7-1 1.2-1.2c.5-.3 1.2-.4 1.9-.4s1.4.1 2 .5c.4.3.8.7 1.1 1.3.3.5.4 1.2.4 1.9v.3l-.1.2-.2.1h-4.6v.1c0 .4 0 .6.2.9 0 .2.2.4.4.6l.7.2.6-.1.4-.2.2-.3.2-.1h1.9l.1.2-.2.6-.7.6-1 .5c-.4.2-.9.2-1.4.2zm-1.4-4.5h2.7l-.1-1-.5-.5c-.2-.2-.5-.2-.7-.2-.3 0-.6 0-.8.2l-.5.6-.1.8zm7.4 4.3-.2-.1-.1-.2v-5.3h-1.1l-.3-.1v-1.5h1.3v-.6c0-.6.2-1 .4-1.5s.5-.6 1-.8c.4-.2 1-.3 1.6-.3h1l.2.1.1.3v1.2h-1.3c-.3 0-.6.2-.7.3l-.2.8v.4h1.7l.3.1v1.5h-2v5.4a.3.3 0 0 1-.3.3zm6.9.1c-.5 0-1 0-1.4-.2l-.9-.8c-.2-.4-.3-.7-.3-1.1 0-.7.2-1.2.8-1.6a5 5 0 0 1 2-.8l2-.2v-.3c0-.3-.2-.6-.3-.8s-.5-.3-1-.3c-.2 0-.5 0-.7.2l-.4.4c0 .2-.2.2-.3.2H115v-.3l.1-.5.6-.7 1-.5 1.4-.2c.6 0 1 0 1.5.2l1 .6c.2.3.5.5.6.9l.2 1v4.4l-.1.2-.3.1h-1.4l-.2-.1-.1-.2v-.6a2.2 2.2 0 0 1-1.2.9l-1 .1zm.5-1.4c.3 0 .6 0 .9-.2.2-.1.4-.3.5-.6l.2-1v-.3l-1.3.2c-.5.1-.8.2-1 .4-.3.2-.4.4-.4.6l.1.5.5.3h.5zm8.1 1.4c-.5 0-1 0-1.4-.3-.4-.3-.7-.6-1-1.1a4 4 0 0 1-.3-1.7v-4.2h2.1v4.1c0 1 .5 1.6 1.4 1.6.5 0 .8-.2 1-.4.3-.3.5-.7.5-1.2v-4.1h2l.1.3v6.6a.3.3 0 0 1-.3.3h-1.4l-.2-.1-.1-.2v-.6l-1 .8c-.4.2-.8.2-1.4.2zm6.5-.1-.2-.1-.1-.2v-9.5l.3-.1h1.7v9.5a.3.3 0 0 1-.3.4zm7 0c-.5 0-1 0-1.4-.3a2 2 0 0 1-1-.9c-.2-.4-.3-.9-.3-1.5v-3h-1.3l-.1-.3v-1.2H136.7v-2.4l.1-.2.3-.1h1.6V302.8h1.8l.3.1v1.5h-2v2.8c0 .4 0 .7.2.9.1.2.3.3.6.3h1.3l.1.3v1l-.1.3-.2.1zm6.4 0-.2-.1-.1-.2V300.3l.3-.1h4.2c.7 0 1.4.1 1.9.3s.8.6 1 1c.3.4.4.9.4 1.4 0 .4 0 .7-.2 1a2.2 2.2 0 0 1-1 1c.4.1.7.4 1 .8.3.4.4.8.4 1.4 0 .6-.1 1-.4 1.5s-.6.8-1.1 1-1.2.4-1.9.4zm1.9-1.6h2.1c.5 0 .8-.2 1-.4.3-.3.4-.6.4-1 0-.3-.1-.6-.3-.8-.3-.3-.6-.4-1-.4h-2.2zm0-4.2h2c.4 0 .8-.1 1-.4.2-.2.3-.5.3-.8s0-.6-.3-.8c-.2-.3-.6-.4-1-.4h-2zm7.7 5.8-.3-.1v-9.7l.3-.1H156.9l.1.3v9.5l-.3.1zm6.8.1c-.7 0-1.4 0-2-.3l-1.1-1.1c-.3-.5-.4-1-.5-1.7a13.2 13.2 0 0 1 0-1.3c0-.6.2-1.2.5-1.6.3-.5.7-.9 1.2-1.1.6-.3 1.2-.4 2-.4.7 0 1.3.1 1.8.4.5.2 1 .6 1.2 1 .3.5.5 1 .5 1.7a6 6 0 0 1 0 1.3c0 .6-.2 1.2-.4 1.7-.3.4-.7.8-1.2 1-.6.3-1.2.4-2 .4zm0-1.5c.5 0 .8-.1 1-.4.3-.3.4-.7.4-1.3v-1.1c0-.5-.1-1-.3-1.2s-.6-.5-1-.5-.9.2-1.1.5a2 2 0 0 0-.4 1.2v1.1c0 .6.1 1 .4 1.3.2.3.6.4 1 .4zm8.3 1.5c-.6 0-1.2 0-1.8-.3a3 3 0 0 1-1.2-1.1c-.3-.5-.4-1-.5-1.8a9.5 9.5 0 0 1 0-1.1c0-.7.2-1.3.5-1.7.3-.5.7-.9 1.2-1.1.6-.3 1.2-.4 1.8-.4.7 0 1.2 0 1.6.2l1.1.7a2.7 2.7 0 0 1 .9 1.6l-.1.2-.3.1H172l-.1-.3-.5-.7-.8-.2c-.4 0-.8.1-1 .4-.3.3-.4.7-.4 1.3v1c0 .5.2 1 .4 1.2.2.3.6.4 1 .4.3 0 .6 0 .8-.2l.5-.7.1-.2h2v.8l-.5.7a3 3 0 0 1-1.6 1c-.4.2-.8.2-1.4.2zm5.3-.1-.3-.1v-9.7l.3-.1H177.3v5l2.2-2.1.2-.2h2.1l.1.2v.2h-.1l-2.7 2.8 3 3.5.2.2-.1.2-.2.1h-2c0-.1 0-.2-.2-.2l-2.4-2.8v2.6a.3.3 0 0 1-.3.4zm8 0-.3-.1-.1-.2v-9.5l.3-.1h1.7v9.8l-.3.1zm4.1 0-.2-.1v-7.1h1.9l.1.3v6.6l-.1.2-.3.1zm0-8.4-.2-.1-.1-.2v-1.4l.3-.1h1.7l.1.3v1.4l-.3.1zm6.6 8.5c-.5 0-1 0-1.5-.2l-1-.5-.5-.5-.2-.6v-.2l.3-.1H193l.4.4.4.2.7.1.8-.1.3-.6c0-.2 0-.3-.2-.4l-.5-.3-1.2-.3-1.3-.5a2 2 0 0 1-.8-.7 2 2 0 0 1 0-2c.3-.4.7-.7 1.1-.9.5-.2 1-.3 1.7-.3a4.1 4.1 0 0 1 2.3.7c.3.1.5.3.6.5l.2.6v.2h-1.7a7 7 0 0 1-.4-.2l-.4-.3-.6-.1a1 1 0 0 0-.7.2.6.6 0 0 0-.2.9l.6.3 1.2.3c.6 0 1 .2 1.5.5l.8.7.2 1c0 .4-.1.8-.4 1.2-.2.3-.6.6-1.1.8l-1.9.2zm8.2-.1c-.5 0-1 0-1.5-.3a2 2 0 0 1-.9-.9c-.2-.4-.3-.9-.3-1.5v-3h-1.3l-.1-.3v-1.2H200v-2.4l.1-.2.3-.1h1.6V302.8h1.8l.3.1v1.5h-2v2.8c0 .4 0 .7.2.9 0 .2.3.3.6.3h1.3v1.6l-.2.1zM36 330.1a4 4 0 0 1-1.7-.3c-.5-.3-.9-.6-1.1-1.1-.3-.5-.4-1.1-.5-1.9a44.4 44.4 0 0 1 0-2c0-.7.2-1.4.5-1.8.3-.5.7-1 1.1-1.1.5-.3 1.1-.4 1.8-.4.6 0 1.2.1 1.7.4.5.2.9.6 1.1 1 .3.5.5 1.2.5 1.9a22.5 22.5 0 0 1 0 2c0 .8-.2 1.4-.5 1.9-.2.5-.6.8-1 1a4 4 0 0 1-1.8.4zm0-1a2 2 0 0 0 1.6-.6c.3-.3.6-1 .6-1.7a21.9 21.9 0 0 0 0-2c0-.5-.1-1-.3-1.3l-.8-.8c-.3-.2-.6-.2-1-.2s-.8 0-1.1.2-.6.5-.8.8l-.3 1.3a42.6 42.6 0 0 0 0 2c0 .8.3 1.4.7 1.7s.9.6 1.5.6zm5.3 3.2-.2-.1V323.8H42l.1.2v.6a2.3 2.3 0 0 1 2-1c.4 0 .8.1 1.1.3.4.1.6.3.8.6l.5.9.1 1a6.6 6.6 0 0 1-.1 2l-.5.9a2.2 2.2 0 0 1-2 .8c-.4 0-.8 0-1-.2-.4-.2-.7-.4-.9-.7v3h-.2zm2.5-3.2c.5 0 .8 0 1-.2.3-.2.4-.4.5-.7l.2-1v-.7c0-.3 0-.6-.2-.9 0-.3-.2-.5-.5-.7-.2-.2-.5-.3-1-.3-.4 0-.7.1-1 .3l-.5.7-.2.9a7.4 7.4 0 0 0 0 .9l.2.8.6.7c.2.2.6.2 1 .2zm6.8 1c-.8 0-1.4-.2-2-.7-.4-.5-.7-1.2-.7-2.1a5.3 5.3 0 0 1 0-.8c0-.6.1-1 .4-1.5.2-.4.5-.8 1-1 .3-.2.8-.4 1.3-.4.6 0 1.2.2 1.6.4.4.3.7.6 1 1.1s.2 1 .2 1.7v.4H49v.1l.2 1 .6.7c.3.2.5.2.8.2a1.7 1.7 0 0 0 1.5-.6l.1-.2h1v.2l-.1.4-.5.5c-.2.1-.5.4-.9.5l-1 .1zm-1.6-3.7h3.3c0-.4 0-.7-.2-1-.1-.3-.3-.5-.6-.6-.2-.2-.5-.3-.9-.3s-.6.1-.8.3c-.3.1-.5.3-.6.6l-.2 1zm6.1 3.6H55v-6.2h1v.8l.9-.7c.3-.2.7-.3 1.2-.3s1 .2 1.3.4c.4.2.7.5.8 1 .2.3.3.8.3 1.3v3.6l-.2.1H59.3V326.3c0-.6-.2-1-.4-1.3-.3-.3-.7-.5-1.2-.5s-1 .2-1.2.5c-.3.3-.5.7-.5 1.3v3.5l-.3.1zm7.3-3.1h-.2l-.1-.3V326l.3-.1H66.2V326.9l-.2.1zm7.7 3.2L69 330l-.8-.5-.5-.4a1 1 0 0 1-.1-.4v-.2l.3-.1h.5l.2.1.4.4.4.2.7.1c.4 0 .8 0 1-.2.3-.1.4-.4.4-.7l-.1-.5-.6-.3-1.1-.3-1.2-.4-.6-.6-.2-.8c0-.3.1-.5.3-.8.2-.3.4-.5.8-.7.3-.2.8-.3 1.3-.3.4 0 .7 0 1 .2l.8.4.4.4.2.4-.1.2-.2.1h-.7v-.1l-.3-.3-.5-.3h-.6c-.4 0-.7 0-1 .2s-.2.3-.2.6v.4l.6.3 1.1.3 1.3.5c.3.2.5.3.6.6l.2.8-.3 1a2 2 0 0 1-.9.6l-1.4.2zm6.5 0c-.6 0-1-.1-1.5-.3s-.7-.6-1-1c-.1-.4-.3-.9-.3-1.4a9 9 0 0 1 0-1c0-.6.2-1 .4-1.5.2-.4.5-.7 1-1s.8-.3 1.4-.3 1.1.2 1.5.4.8.5 1 1l.4 1.4a8.7 8.7 0 0 1 0 1c0 .5-.2 1-.4 1.4-.2.4-.5.7-1 1s-.9.3-1.5.3zm0-.9c.5 0 1-.2 1.2-.5.3-.3.5-.8.5-1.4a7 7 0 0 0 0-.9c0-.6-.2-1-.5-1.4-.3-.3-.7-.4-1.2-.4s-.9.1-1.2.4c-.3.4-.4.8-.4 1.4a7 7 0 0 0 0 1c0 .5.1 1 .4 1.3.3.3.7.5 1.2.5zm6.7 1c-.5 0-1-.2-1.3-.4-.4-.2-.6-.6-.8-1s-.3-.9-.3-1.4v-3.6H82v3.6c0 1.2.6 1.7 1.6 1.7.5 0 1-.1 1.2-.4.3-.3.5-.8.5-1.3v-3.6h1l.1.2v5.9l-.3.1h-.7l-.1-.3v-.5l-.8.7-1.2.2zm5.2-.2h-.2l-.1-.3v-5.9h1l.1.2v.6c.2-.3.4-.5.7-.6l1-.2h.6l.1.2v.7h-1c-.4 0-.7.2-1 .5-.2.2-.4.6-.4 1v3.7l-.2.1zm6.7.1c-.6 0-1.1 0-1.5-.3-.4-.2-.7-.5-1-1-.2-.4-.3-.9-.3-1.4a7.6 7.6 0 0 1 0-1c0-.6.1-1 .3-1.5l1-1a3 3 0 0 1 1.5-.3l1.1.2.9.5.4.7c.2.2.2.4.2.6v.2l-.2.1h-.8l-.1-.2-.6-.9c-.2-.2-.6-.2-1-.2s-.8.1-1.1.4c-.3.3-.5.8-.5 1.5v.8c0 .7.2 1.1.5 1.4.3.3.7.5 1.2.5l.9-.3c.3-.2.4-.4.6-.8v-.2H97.9v.2a1.8 1.8 0 0 1-.4 1 2.3 2.3 0 0 1-1.3.9l-1 .1zm6.5 0c-.8 0-1.4-.2-2-.7-.4-.5-.7-1.2-.7-2.1a5.3 5.3 0 0 1 0-.8c0-.6.1-1 .4-1.5.2-.4.5-.8 1-1 .3-.2.8-.4 1.3-.4.6 0 1.2.2 1.6.4.4.3.7.6 1 1.1s.2 1 .2 1.7v.4H100v.1c0 .4 0 .7.2 1 .1.3.3.5.6.7s.5.2.8.2a1.7 1.7 0 0 0 1.5-.6l.1-.2h1v.2l-.1.4-.5.5c-.2.1-.5.4-.9.5l-1 .1zm-1.6-3.7h3.3c0-.4 0-.7-.2-1-.1-.3-.3-.5-.6-.6-.2-.2-.5-.3-.9-.3s-.6.1-.9.3c-.2.1-.4.3-.5.6l-.2 1zm10.5 3.7c-.4 0-.7 0-1-.2l-.8-.7c-.2-.3-.3-.5-.3-.9 0-.5.2-1 .6-1.3s1-.6 1.8-.7l1.8-.2v-.4c0-.3-.1-.6-.4-.9-.2-.2-.5-.3-1-.3-.4 0-.7 0-.9.2l-.5.6c0 .1 0 .2-.2.2h-.6l-.2-.1v-.2l.1-.4.4-.6c.1-.2.5-.3.8-.4a3 3 0 0 1 1-.2l1.3.2a1.8 1.8 0 0 1 1.2 1.2l.1.8v4.1l-.3.1h-.7l-.1-.3v-.5l-.4.4a2.4 2.4 0 0 1-1.7.5zm.3-.9c.3 0 .6 0 .9-.2.3-.1.5-.3.6-.6.2-.3.3-.7.3-1.2v-.3l-1.4.2c-.6 0-1 .2-1.3.4-.3.2-.4.4-.4.7 0 .2 0 .4.2.6l.5.3.6.1zm7 1c-.5 0-1-.2-1.2-.3l-.8-.6a3 3 0 0 1-.5-1 4.8 4.8 0 0 1-.2-1.4 5.8 5.8 0 0 1 .2-1.5l.5-.9c.2-.3.4-.5.8-.6.3-.2.7-.3 1.1-.3.5 0 .9.1 1.2.3l.8.6V321.6l.2-.1h.8v8.4l-.2.1h-.7l-.1-.3v-.5l-.8.7-1.2.2zm.2-1c.4 0 .7-.1 1-.3s.3-.4.5-.7l.2-.9a7.4 7.4 0 0 0 0-1l-.3-.8c0-.2-.3-.4-.5-.6-.2-.2-.6-.3-1-.3-.3 0-.7.1-1 .3l-.4.7-.2 1v.6c0 .4 0 .7.2 1 0 .3.2.5.5.7.2.2.6.2 1 .2zm10.6 1c-.5 0-.9-.2-1.2-.3l-.8-.7v.7l-.3.1h-.7v-8.4l.2-.1h.8v3l.8-.6c.3-.2.7-.3 1.2-.3.4 0 .8.1 1.1.3.4.1.6.3.8.6l.5 1a4.6 4.6 0 0 1 .2 1.4 5.8 5.8 0 0 1-.2 1.4l-.5 1-.8.6-1.1.2zm-.3-1c.5 0 .8-.1 1-.3.3-.2.4-.4.5-.7l.2-1v-.7c0-.3 0-.6-.2-.9 0-.3-.2-.5-.5-.7-.2-.2-.5-.3-1-.3a1.6 1.6 0 0 0-1.5 1l-.2.8a7.7 7.7 0 0 0 0 .9l.2.9.6.7c.2.2.5.2 1 .2zm4.6.8h-.2v-8.4l.2-.1h.8v8.4l-.2.1zm5.2.1c-.6 0-1.1-.1-1.5-.3s-.7-.6-1-1c-.2-.4-.3-.9-.3-1.4a9 9 0 0 1 0-1c0-.6.1-1 .4-1.5.2-.4.5-.7.9-1s1-.3 1.5-.3 1.1.2 1.5.4.7.5 1 1c.2.4.3.8.3 1.4a8.7 8.7 0 0 1 0 1c0 .5-.1 1-.3 1.4-.2.4-.6.7-1 1s-.9.3-1.5.3zm0-.9c.5 0 1-.2 1.2-.5.3-.3.5-.8.5-1.4a7 7 0 0 0 0-.9c0-.6-.2-1-.5-1.4-.3-.3-.7-.4-1.2-.4s-.9.1-1.2.4c-.3.4-.4.8-.5 1.4a7 7 0 0 0 0 1c0 .5.2 1 .5 1.3.3.3.7.5 1.2.5zm6.9 1c-.6 0-1-.2-1.5-.4-.4-.2-.7-.5-1-1-.2-.4-.3-.9-.3-1.4a7.6 7.6 0 0 1 0-1c0-.6.1-1 .3-1.5l1-1a3 3 0 0 1 1.5-.3l1.2.2.8.5.5.7.1.6v.2l-.2.1h-.8l-.1-.2c-.1-.4-.3-.7-.6-.9s-.5-.2-1-.2c-.4 0-.8.1-1 .4-.4.3-.5.8-.6 1.5v.8c0 .7.2 1.1.5 1.4.3.3.7.5 1.2.5.4 0 .7-.1 1-.3s.4-.4.5-.8l.1-.2h1v.2a1.8 1.8 0 0 1-.4 1 2.3 2.3 0 0 1-1.2.9l-1 .1zm4.4-.2h-.2l-.1-.3v-8.1l.3-.1h.7l.1.3v4.1l2.4-2h.2l.2-.1h.7a.2.2 0 0 1 .2.2v.1l-.1.1-2.8 2.3 3 3 .2.2a.2.2 0 0 1-.2.3H153.2l-.2-.2-2.7-2.6v2.7l-.3.1zm8 .1c-.8 0-1.4-.2-2-.7-.4-.5-.7-1.2-.7-2.1a5.3 5.3 0 0 1 0-.8c0-.6.1-1 .4-1.5.2-.4.5-.8 1-1 .3-.2.8-.4 1.4-.4.6 0 1 .2 1.5.4.4.3.7.6 1 1.1s.2 1 .2 1.7v.4h-4.4v.1l.2 1 .6.7c.3.2.5.2.9.2a1.7 1.7 0 0 0 1.4-.6l.1-.2h1v.2l-.1.4-.5.5-.8.5-1.1.1zm-1.6-3.7h3.3c0-.4 0-.7-.2-1-.1-.3-.3-.5-.6-.6-.2-.2-.5-.3-.8-.3l-1 .3c-.2.1-.4.3-.5.6l-.2 1zm6.2 3.6h-.2l-.1-.3v-5.9h1l.1.2v.6c.2-.3.4-.5.7-.6l1-.2H165.2l.1.2v.7h-1c-.4 0-.7.2-1 .5-.2.2-.4.6-.4 1v3.7l-.3.1zm7.6 0h-.2l-.1-.3v-5h-1.2V323.7h1.2v-.6c0-.4 0-.8.2-1.1.1-.3.4-.6.7-.7.3-.2.7-.3 1.2-.3h.7l.2.1v.8H171.5c-.4 0-.6.2-.8.4l-.2.8v.6h1.8v.8l-.2.1h-1.6v5.2l-.3.1zm6.1.1c-.6 0-1-.1-1.5-.3s-.7-.6-1-1c-.1-.4-.3-.9-.3-1.4a9 9 0 0 1 0-1c0-.6.2-1 .4-1.5.2-.4.5-.7 1-1s.8-.3 1.4-.3 1.1.2 1.5.4.8.5 1 1l.4 1.4a8.7 8.7 0 0 1 0 1c0 .5-.2 1-.4 1.4-.2.4-.5.7-1 1s-.9.3-1.5.3zm0-.9c.5 0 1-.2 1.2-.5.3-.3.5-.8.5-1.4a7 7 0 0 0 0-.9c0-.6-.2-1-.5-1.4-.3-.3-.7-.4-1.2-.4s-.9.1-1.2.4c-.3.4-.4.8-.4 1.4a7 7 0 0 0 0 1c0 .5.1 1 .4 1.3.3.3.7.5 1.2.5zm4.6.8h-.2v-6.2h1c.1 0 0 .2 0 .2v.6l.7-.6 1-.2h.7l.1.2v.7h-1c-.4 0-.8.2-1 .5-.3.2-.4.6-.4 1v3.7l-.3.1zm6.3 0h-.2v-.4l3-7.7v-.2l.3-.1h1.1l.1.3 3 7.7V330l-.3.1h-.8v-.2l-.7-1.7h-4l-.6 1.7-.1.1-.2.1zm1.9-3h3.2l-1.6-4.2zm6.8 3h-.2v-6.2h.9l.1.2v.6l.8-.7c.3-.2.7-.3 1.2-.3.6 0 1 .2 1.4.4.3.2.6.5.8 1 .2.3.3.8.3 1.3v3.4l-.1.2-.2.1h-.8V326.3c0-.6-.2-1-.5-1.3-.3-.3-.7-.5-1.2-.5s-.9.2-1.2.5c-.3.3-.4.7-.4 1.3v3.3l-.1.2-.2.1zm9.3.1c-.5 0-.9 0-1.2-.2l-.8-.6a3 3 0 0 1-.4-1 4.8 4.8 0 0 1-.2-1.4 5.8 5.8 0 0 1 .2-1.5c0-.3.2-.6.4-.9.2-.3.5-.5.8-.6.3-.2.7-.3 1.2-.3.4 0 .8.1 1.1.3l.8.6V321.6l.3-.1h.8v8.4l-.2.1h-.8v-.8l-.8.7-1.2.2zm.2-1c.4 0 .7 0 1-.2s.4-.4.5-.7l.2-.9a7.4 7.4 0 0 0 0-1c0-.2 0-.5-.2-.8l-.5-.6c-.3-.2-.6-.3-1-.3s-.7.1-1 .3l-.5.7-.1 1v.6l.1 1 .5.7c.3.2.6.2 1 .2zm4.9.9h-.2v-6.2h1v.8c.2-.3.4-.5.7-.6l1-.2h.7V324.7H212c-.5 0-.8.2-1 .5-.3.2-.4.6-.4 1v3.5l-.1.2-.2.1zm6.7.1c-.6 0-1-.1-1.5-.3s-.7-.6-1-1c-.2-.4-.3-.9-.3-1.4a9 9 0 0 1 0-1c0-.6.1-1 .4-1.5.2-.4.5-.7 1-1s.8-.3 1.4-.3 1.1.2 1.5.4.8.5 1 1c.2.4.3.8.3 1.4a8.7 8.7 0 0 1 0 1c0 .5-.1 1-.3 1.4-.2.4-.5.7-1 1s-.9.3-1.5.3zm0-.9c.5 0 1-.2 1.2-.5.3-.3.5-.8.5-1.4a7 7 0 0 0 0-.9c0-.6-.2-1-.5-1.4-.3-.3-.7-.4-1.2-.4s-.9.1-1.2.4c-.3.4-.4.8-.4 1.4a7 7 0 0 0 0 1c0 .5.1 1 .4 1.3.3.3.7.5 1.2.5zm4.6.8h-.2v-6.2h1V330l-.2.1zm0-7.4h-.3V321.4l.2-.1h1V322.6l-.2.1zm5 7.5c-.5 0-.9 0-1.2-.2l-.8-.6a3 3 0 0 1-.4-1 4.8 4.8 0 0 1-.2-1.4 5.8 5.8 0 0 1 .2-1.5c0-.3.2-.6.4-.9.2-.3.5-.5.8-.6.3-.2.7-.3 1.1-.3.5 0 1 .1 1.2.3l.8.6V321.6l.3-.1h.7l.1.3v8.1l-.3.1h-.7v-.8l-.9.7-1.2.2zm.2-1c.4 0 .7 0 1-.2s.4-.4.5-.7l.2-.9a7.4 7.4 0 0 0 0-1c0-.2 0-.5-.2-.8l-.6-.6c-.2-.2-.5-.3-.9-.3s-.7.1-1 .3l-.5.7-.2 1v.6l.2 1 .5.7c.3.2.6.2 1 .2zm9.9 1c-.5 0-1 0-1.3-.3-.4-.2-.7-.6-.8-1s-.3-.9-.3-1.4v-3.6H234.9l.1.2v3.4c0 1.2.6 1.7 1.6 1.7.5 0 .9-.1 1.2-.4.3-.3.4-.8.4-1.3V324l.1-.2h1V330l-.2.1h-.8v-.8l-.8.7-1.2.2zm7 0-1.1-.1-.8-.5-.5-.4a1 1 0 0 1-.1-.4v-.2l.3-.1h.5l.2.1.4.4.4.2.7.1c.4 0 .8 0 1-.2.3-.1.4-.4.4-.7l-.1-.5-.6-.3-1.1-.3-1.2-.4-.6-.6-.2-.8c0-.3.1-.5.3-.8.2-.3.4-.5.8-.7.3-.2.7-.3 1.3-.3.4 0 .7 0 1 .2l.8.4.4.4.1.4v.2l-.2.1h-.7v-.1l-.3-.3-.5-.3h-.6c-.4 0-.7 0-1 .2s-.2.3-.2.6v.4l.6.3 1.1.3c.5.2 1 .3 1.2.5l.7.6.2.8-.3 1a2 2 0 0 1-.9.6l-1.4.2zm4.3-.1h-.3v-6.2h1V330l-.2.1zm-.1-7.4h-.2l-.1-.3v-.8l.3-.1H248.3V322.6l-.2.1zm3 7.4h-.1l-.1-.3v-5.9h1l.1.2v.6l.8-.7c.3-.2.7-.3 1.2-.3s1 .2 1.3.4c.4.2.7.5.9 1 .2.3.2.8.2 1.3v3.6l-.2.1h-.8V326.3c0-.6-.2-1-.5-1.3-.3-.3-.7-.5-1.2-.5s-.9.2-1.2.5c-.3.3-.4.7-.4 1.3v3.3l-.1.2-.2.1zm9.6 2.6c-.5 0-1 0-1.3-.2-.4-.1-.6-.3-.8-.5a2 2 0 0 1-.4-.6l-.2-.5v-.2H258.5v.2l.3.4.4.3c.2.2.5.2.9.2l1-.1c.2-.1.4-.3.5-.6l.2-1v-.8l-.8.6c-.3.2-.7.2-1.1.2-.5 0-.9 0-1.2-.2l-.8-.6a3 3 0 0 1-.4-1 4.8 4.8 0 0 1-.2-1.7c0-.4 0-.7.2-1 0-.4.2-.7.4-1 .2-.3.5-.5.8-.6.3-.2.7-.3 1.2-.3s.8.1 1.2.3l.7.7v-.6l.1-.2h1V330c0 .5 0 1-.2 1.4a2 2 0 0 1-1 1c-.3.2-.9.3-1.6.3zm0-3.5c.4 0 .7-.1 1-.3l.5-.7.2-.8a5.9 5.9 0 0 0 0-.9c0-.3 0-.5-.2-.8l-.5-.7c-.3-.2-.6-.3-1-.3s-.7.1-1 .3l-.5.7-.1 1v.6l.1 1 .5.6c.3.2.6.3 1 .3zm9.8.9c-.5 0-.9 0-1.1-.3-.3-.1-.5-.4-.6-.7a3 3 0 0 1-.2-1.1v-3.2h-1.2V323.7h1.2v-2.2l.2-.1h.8v2.3h1.8v.8l-.2.1H269v3.1c0 .4 0 .7.2.9s.3.3.7.3h.7l.2.1v.8l-.2.1zm2.5 0h-.2v-8.4l.2-.1h.8V324.7l.9-.7c.3-.2.7-.3 1.2-.3s1 .2 1.3.4c.3.2.6.5.8 1 .2.3.3.8.3 1.3v3.6l-.3.1h-.8V326.3c0-.6-.2-1-.5-1.3-.2-.3-.6-.5-1.2-.5-.5 0-.9.2-1.2.5-.3.3-.4.7-.4 1.3v3.3l-.1.2-.2.1zm9.5.1c-.8 0-1.5-.2-2-.7-.5-.5-.7-1.2-.8-2.1a5.3 5.3 0 0 1 0-.8c0-.6.2-1 .4-1.5.3-.4.6-.8 1-1 .4-.2.9-.4 1.4-.4.6 0 1.1.2 1.5.4.4.3.8.6 1 1.1s.3 1 .3 1.7v.4H280.1v.1c0 .4 0 .7.2 1l.5.7c.2.2.6.2 1 .2a1.7 1.7 0 0 0 1.3-.6l.2-.2h1v.2c0 .1 0 .3-.2.4 0 .2-.2.4-.5.5l-.8.5-1 .1zm-1.6-3.7h3.3l-.2-1-.6-.6-.9-.3-.9.3c-.2.1-.4.3-.5.6l-.2 1zM33.2 346H33l-.1-.3v-8.1l.3-.1h.8V340.7l.8-.7c.3-.2.8-.3 1.2-.3.6 0 1 .2 1.4.4.3.2.6.5.8 1 .2.3.3.8.3 1.3v3.4l-.1.2-.2.1h-.8V342.3c0-.6-.2-1-.5-1.3-.3-.3-.7-.5-1.2-.5s-.9.2-1.2.5c-.3.3-.4.7-.4 1.3v3.3l-.1.2-.2.1zm9.6.1c-.7 0-1.2-.1-1.6-.3s-.7-.6-.9-1l-.4-1.4a9 9 0 0 1 0-1c0-.6.2-1 .4-1.5.2-.4.5-.7 1-1s.9-.3 1.5-.3 1 .2 1.5.4.7.5.9 1c.2.4.4.8.4 1.4a8.7 8.7 0 0 1 0 1c0 .5-.2 1-.4 1.4-.2.4-.5.7-1 1s-.8.3-1.4.3zm0-.9c.5 0 .8-.2 1.1-.5.3-.3.5-.8.5-1.4a7 7 0 0 0 0-.9c0-.6-.2-1-.5-1.4-.3-.3-.6-.4-1.1-.4s-1 .1-1.2.4c-.3.4-.5.8-.5 1.4a7 7 0 0 0 0 1c0 .5.2 1 .5 1.3.3.3.7.5 1.2.5zm6.5 1L48 346l-.8-.5-.4-.4a1 1 0 0 1-.2-.4v-.2l.3-.1h.6l.1.1.4.4c0 .2.3.2.5.2l.7.1c.4 0 .7 0 1-.2.2-.1.4-.4.4-.7 0-.2 0-.3-.2-.5l-.6-.3-1.1-.3c-.5-.1-.9-.2-1.1-.4l-.6-.6c-.2-.2-.2-.5-.2-.8 0-.3 0-.5.2-.8l.8-.7a3.2 3.2 0 0 1 2.4-.1 2.3 2.3 0 0 1 1.1.8l.2.4v.2l-.3.1h-.6l-.1-.1-.3-.3-.4-.3h-.7c-.4 0-.7 0-1 .2s-.2.3-.2.6l.1.4.5.3 1.1.3 1.3.5c.3.2.5.3.6.6l.2.8c0 .3 0 .6-.3 1a2 2 0 0 1-.8.6l-1.4.2zm6.3-.2c-.4 0-.8 0-1-.3-.3-.1-.5-.4-.7-.7a3 3 0 0 1-.2-1.1v-3.2h-1.1V339.7h1.2v-2.2l.2-.1h.8v2.3h1.7l.1.2V340.6l-.3.1H55v3.1l.1.9c.1.2.4.3.7.3h.8l.2.1v.8l-.2.1zm4.4.1L59 346l-.8-.5-.4-.4a1 1 0 0 1-.2-.4v-.2l.3-.1h.6l.1.1.4.4c0 .2.3.2.4.2l.8.1c.4 0 .7 0 1-.2.2-.1.4-.4.4-.7l-.2-.5-.6-.3-1.1-.3-1.2-.4-.6-.6-.1-.8c0-.3 0-.5.2-.8l.8-.7c.3-.2.8-.3 1.3-.3.4 0 .8 0 1 .2l.8.4.4.4.2.4-.1.2-.2.1h-.6l-.1-.1-.3-.3-.4-.3H60c-.4 0-.7 0-1 .2s-.2.3-.2.6l.1.4.5.3 1.1.3 1.3.5c.3.2.5.3.6.6l.2.8c0 .3 0 .6-.3 1a2 2 0 0 1-.9.6l-1.4.2zm7.6-.1h-.2v-5.3H66V339.7h1.2v-.6l.2-1.1c.2-.3.4-.6.7-.7.3-.2.7-.3 1.2-.3h1.9l.1.1.1.2V338h-2.1c-.3 0-.6.2-.7.4-.2.2-.2.5-.2.8v.6h2.9l.1.2v5.9l-.2.1h-.8v-5.3h-2v5l-.1.2-.2.1zm6 0h-.2v-8.4l.2-.1h.8v8.4l-.2.1zm5.1.1c-.8 0-1.5-.2-2-.7-.4-.5-.7-1.2-.8-2.1a5.3 5.3 0 0 1 0-.8c0-.6.2-1 .4-1.5.3-.4.6-.8 1-1 .4-.2.9-.4 1.4-.4.6 0 1.1.2 1.5.4.4.3.8.6 1 1.1s.3 1 .3 1.7v.4H77v.1c0 .4 0 .7.2 1l.5.7c.2.2.6.2 1 .2a1.7 1.7 0 0 0 1.3-.6l.2-.2h1v.2c0 .1 0 .3-.2.4 0 .2-.2.4-.5.5l-.8.5-1 .1zm-1.6-3.7h3.3l-.2-1-.6-.6c-.3-.2-.5-.3-.9-.3s-.6.1-.9.3c-.2.1-.4.3-.5.6l-.2 1z"/><path fill="#6e757c" d="M34.3 378h-.2v-.4L36 375l-.7.1c-.4 0-.8 0-1.2-.2l-.9-.7a2.7 2.7 0 0 1-.7-1.9l.1-1 .6-1 1-.6 1.3-.2c.5 0 1 0 1.3.2a2.6 2.6 0 0 1 1.5 1.6 3 3 0 0 1-.3 2.6l-.3.6-2.4 3.3v.1l-.3.1zm1.2-3.9c.3 0 .6 0 .9-.2.3-.1.5-.4.7-.6.2-.3.2-.6.2-1a1.7 1.7 0 0 0-.9-1.6 2 2 0 0 0-1-.2 1.9 1.9 0 0 0-1.5.9c-.2.2-.3.5-.3 1s.1.6.3.9a1.8 1.8 0 0 0 1.6.8zm5 3.9h-.3V369.6l.2-.1h.8l.1.3v3l3.2-3.1.2-.1.3-.1h.8v.4l-3.7 3.6 4 4V377.9l-.2.1h-1l-.1-.2-3.5-3.4v3.5l-.3.1zm9.8 0h-.2v-6.2h1v.8c.2-.3.4-.5.7-.6l1-.2h.7V372.7H52.6c-.5 0-.8.2-1 .5-.3.2-.4.6-.4 1v3.5l-.1.2-.2.1zm6.6.1c-.5 0-1 0-1.3-.3-.3-.2-.6-.6-.8-1s-.3-.9-.3-1.4V372l.1-.2h1v3.6c0 1.2.6 1.7 1.6 1.7.5 0 1-.1 1.2-.4.3-.3.5-.8.5-1.3v-3.6H60V378l-.2.1H59v-.8l-.9.7-1.2.2zm5.2-.1h-.2v-8.4l.2-.1h.8v8.4l-.2.1zm5.1.1c-.8 0-1.5-.2-2-.7-.4-.5-.7-1.2-.8-2.1a5.3 5.3 0 0 1 0-.8c0-.6.2-1 .4-1.5.3-.4.6-.8 1-1 .4-.2.9-.4 1.4-.4.6 0 1.1.2 1.5.4.5.3.8.6 1 1.1s.3 1 .3 1.7v.4H65.5v.1c0 .4 0 .7.2 1l.5.7c.2.2.6.2 1 .2a1.7 1.7 0 0 0 1.3-.6l.2-.2h1v.2c0 .1 0 .3-.2.4 0 .2-.2.4-.5.5l-.8.5-1 .1zm-1.6-3.7h3.3l-.2-1-.6-.6c-.2-.2-.5-.3-.9-.3s-.6.1-.9.3c-.2.1-.4.3-.5.6l-.2 1zm8 3.7-1.1-.1-.8-.5-.5-.4a1 1 0 0 1-.1-.4v-.2l.2-.1h.6l.2.1.3.4c.1.2.3.2.5.2l.7.1c.4 0 .8 0 1-.2.3-.1.4-.4.4-.7l-.1-.5-.6-.3-1.2-.3c-.4-.1-.8-.2-1-.4-.4-.2-.6-.4-.7-.6l-.2-.8c0-.3.1-.5.3-.8.2-.3.4-.5.8-.7.3-.2.7-.3 1.2-.3s.8 0 1.1.2l.7.4.5.4.1.4v.2l-.2.1H75v-.1l-.4-.3-.4-.3h-.7c-.4 0-.7 0-.9.2s-.3.3-.3.6c0 .2 0 .3.2.4l.5.3 1 .3 1.3.5c.3.2.6.3.7.6l.2.8-.3 1a2 2 0 0 1-.9.6l-1.4.2zM97.2 378.1c-.7 0-1.2-.1-1.7-.3-.5-.3-.9-.6-1.1-1.1-.3-.5-.4-1.2-.4-2v-5l.2-.1H95.1v5.2c0 .8.2 1.3.6 1.7s.9.6 1.5.6a2 2 0 0 0 1.5-.6c.4-.4.6-1 .6-1.7v-5.1l.3-.1h.8v5.2a4 4 0 0 1-.3 1.9c-.3.5-.7.8-1.1 1s-1.1.4-1.8.4zm5.4 2.2-.2-.1V371.8H103.3l.1.2v.6a2.3 2.3 0 0 1 2-1c.4 0 .8.1 1.1.3.3.1.6.3.8.6l.5.9.1 1a6.6 6.6 0 0 1-.1 2l-.5.9a2.2 2.2 0 0 1-2 .8c-.4 0-.8 0-1-.2-.4-.2-.7-.4-.9-.7v3h-.2zm2.5-3.2c.5 0 .8 0 1-.2l.5-.7.2-1v-.7c0-.3 0-.6-.2-.9 0-.3-.3-.5-.5-.7-.2-.2-.5-.3-1-.3-.4 0-.7.1-1 .3l-.5.7-.2.9a7.4 7.4 0 0 0 0 .9l.2.8.6.7c.2.2.6.2 1 .2zm6.6 1c-.4 0-.8 0-1.1-.2l-.8-.6a3 3 0 0 1-.5-1 4.8 4.8 0 0 1-.1-1.4 5.8 5.8 0 0 1 .1-1.5l.5-.9c.2-.3.5-.5.8-.6.3-.2.7-.3 1.1-.3.5 0 .9.1 1.2.3l.8.6V369.6l.3-.1h.7l.1.3v8.1l-.3.1h-.7v-.8l-.9.7-1.2.2zm.3-1c.4 0 .7 0 1-.2s.4-.4.5-.7l.2-.9a7.4 7.4 0 0 0 0-1l-.2-.8-.6-.6c-.2-.2-.5-.3-1-.3l-.9.3-.5.7-.2 1v.6c0 .4 0 .7.2 1l.5.7c.3.2.6.2 1 .2zm6.3 1c-.4 0-.7 0-1-.2l-.9-.7c-.2-.3-.3-.5-.3-.9 0-.5.3-1 .7-1.3s1-.6 1.8-.7l1.8-.2v-.4c0-.3-.2-.6-.4-.9-.2-.2-.6-.3-1-.3s-.7 0-1 .2l-.4.6-.2.2h-.6l-.2-.1V372.8l.5-.6.8-.4a3 3 0 0 1 1-.2l1.3.2a1.8 1.8 0 0 1 1.2 1.2V378l-.2.1h-.7l-.1-.3v-.5l-.4.4a2.4 2.4 0 0 1-1.7.5zm.3-.9c.3 0 .6 0 .9-.2.3-.1.5-.3.6-.6.2-.3.3-.7.3-1.2v-.3l-1.4.2c-.6 0-1 .2-1.3.4-.3.2-.5.4-.5.7l.2.6.5.3.7.1zm7 .8c-.5 0-.8 0-1.1-.3-.3-.1-.5-.4-.6-.7a3 3 0 0 1-.2-1.1v-3.2h-1.1l-.1-.3V371.8h1.2v-2.2l.3-.1h.7l.1.3v2h1.7v.8l-.2.1h-1.5v3.1c0 .4 0 .7.2.9s.4.3.7.3h.7l.2.1v.8l-.2.1zm4.7.1c-.8 0-1.5-.2-2-.7-.4-.5-.7-1.2-.8-2.1a5.3 5.3 0 0 1 0-.8c0-.6.2-1 .4-1.5.3-.4.6-.8 1-1 .4-.2.9-.4 1.4-.4.6 0 1.1.2 1.5.4.5.3.8.6 1 1.1s.3 1 .3 1.7v.4H128.6v.1c0 .4 0 .7.2 1 .1.3.3.5.6.7s.5.2.8.2a1.7 1.7 0 0 0 1.4-.6l.2-.2h1v.2l-.1.4c-.2.2-.3.4-.6.5l-.8.5-1 .1zm-1.6-3.7h3.3c0-.4 0-.7-.2-1-.2-.3-.3-.5-.6-.6-.2-.2-.5-.3-.9-.3s-.6.1-.9.3c-.2.1-.4.3-.5.6l-.2 1zm8.1 3.7c-.4 0-.8 0-1.1-.2l-.8-.6a3 3 0 0 1-.5-1 4.8 4.8 0 0 1-.1-1.4 5.8 5.8 0 0 1 .1-1.5l.5-.9c.2-.3.5-.5.8-.6.3-.2.7-.3 1.1-.3.5 0 .9.1 1.2.3l.8.6V369.6l.3-.1h.7l.1.3v8.1l-.3.1h-.7v-.8l-.9.7-1.2.2zm.3-1c.4 0 .7 0 1-.2s.4-.4.5-.7l.2-.9a7.4 7.4 0 0 0 0-1l-.2-.8-.6-.6c-.2-.2-.5-.3-1-.3l-.9.3-.5.7-.2 1v.6c0 .4 0 .7.2 1l.5.7c.3.2.6.2 1 .2zm10 .9h-.2l-.1-.3V371l-2 1.5-.2.1-.2-.1-.3-.4v-.4l2.7-2h.1l.2-.1h.8V378l-.2.1zm7.9.1c-.5 0-.8 0-1.2-.2l-.7-.6a3 3 0 0 1-.5-1 4.8 4.8 0 0 1-.2-1.4 5.8 5.8 0 0 1 .2-1.5l.5-.9c.2-.3.4-.5.7-.6.4-.2.7-.3 1.2-.3s.8.1 1.2.3l.7.6v-2.7l.1-.2.2-.1h.8v8.4l-.2.1h-.8v-.8l-.8.7-1.2.2zm.2-1c.4 0 .8 0 1-.2l.5-.7c.2-.3.2-.6.2-.9a7.4 7.4 0 0 0 0-1c0-.2 0-.5-.2-.8l-.5-.6c-.3-.2-.6-.3-1-.3s-.7.1-1 .3l-.5.7-.1 1v.6l.1 1 .6.7c.2.2.5.2 1 .2zm6.4 1c-.4 0-.8 0-1.1-.2l-.8-.7c-.2-.3-.3-.5-.3-.9 0-.5.2-1 .7-1.3s1-.6 1.7-.7l1.8-.2v-.4l-.3-.9c-.2-.2-.6-.3-1.1-.3-.4 0-.6 0-.9.2l-.4.6-.3.2h-.5l-.2-.1V372.8l.5-.6.7-.4a3 3 0 0 1 1.1-.2l1.2.2a1.8 1.8 0 0 1 1.2 1.2l.1.8v4.1l-.2.1h-.8v-.8l-.5.4a2.4 2.4 0 0 1-1.6.5zm.2-.9c.4 0 .7 0 1-.2l.6-.6.2-1.2v-.3l-1.4.2c-.6 0-1 .2-1.3.4-.3.2-.4.4-.4.7 0 .2 0 .4.2.6l.5.3.6.1zm5.6 3h-.1l-.1-.2v-.2l1-2.2-2.3-5.4v-.2a.2.2 0 0 1 .2-.2h.7l.1.2 1.9 4.3 1.8-4.3.1-.2h1v.4l-3.4 7.9-.1.1h-.2zm10-2c-.5 0-.9-.2-1.2-.3s-.6-.4-.8-.7-.3-.5-.3-.9c0-.5.2-1 .7-1.3s1-.6 1.7-.7l1.8-.2v-.4c0-.3 0-.6-.3-.9-.2-.2-.6-.3-1-.3s-.7 0-1 .2l-.4.6c0 .1-.1.2-.3.2h-.5l-.2-.1V372.8l.5-.6.7-.4a3 3 0 0 1 1.1-.2l1.3.2a1.8 1.8 0 0 1 1.1 1.2l.2.8v4l-.1.1-.2.1h-.8v-.8l-.5.4a2.4 2.4 0 0 1-1.6.5zm.2-1c.3 0 .6 0 .9-.2l.6-.6c.2-.3.2-.7.2-1.2v-.3l-1.4.2c-.5 0-1 .2-1.2.4-.3.2-.5.4-.5.7 0 .2 0 .4.2.6l.5.3.7.1zm7.1 3.4c-.5 0-1 0-1.3-.2l-.8-.5a2 2 0 0 1-.4-.6l-.2-.5.1-.2h1v.2l.3.4.4.3c.2.2.5.2.9.2l1-.1c.2-.1.4-.3.5-.6l.2-1v-.8l-.7.6c-.4.2-.7.2-1.2.2s-.9 0-1.2-.2l-.8-.6a3 3 0 0 1-.4-1 4.8 4.8 0 0 1-.2-1.7c0-.4 0-.7.2-1 0-.4.2-.7.4-1 .2-.3.5-.5.8-.6.3-.2.7-.3 1.2-.3s.9.1 1.2.3l.7.7v-.6l.1-.2h1V378c0 .5 0 1-.2 1.4a2 2 0 0 1-.9 1c-.4.2-1 .3-1.7.3zm0-3.5c.4 0 .7-.1 1-.3l.5-.7.2-.8a5.9 5.9 0 0 0 0-.9c0-.3 0-.5-.2-.8 0-.3-.3-.5-.5-.7-.3-.2-.6-.3-1-.3s-.7.1-1 .3l-.5.7-.1 1v.6l.1 1 .6.6c.2.2.5.3 1 .3zm7.2 1c-.6 0-1.1-.1-1.5-.3s-.7-.6-1-1c-.2-.4-.3-.9-.3-1.4a9 9 0 0 1 0-1c0-.6.1-1 .3-1.5l1-1c.4-.2 1-.3 1.5-.3s1.1.2 1.5.4.7.5 1 1c.2.4.3.8.3 1.4a8.7 8.7 0 0 1 0 1c0 .5-.1 1-.3 1.4l-1 1c-.4.3-.9.3-1.5.3zm0-.9c.5 0 .9-.2 1.2-.5.3-.3.4-.8.5-1.4a7 7 0 0 0 0-.9c0-.6-.2-1-.5-1.4-.3-.3-.7-.4-1.2-.4s-.9.1-1.2.4c-.3.4-.4.8-.5 1.4a7 7 0 0 0 0 1c0 .5.2 1 .5 1.3.3.3.7.5 1.2.5z"/><path fill="#3c81f6" d="M215.7 378.1c-.7 0-1.2 0-1.7-.3-.5-.2-.8-.5-1.1-.8a2 2 0 0 1-.4-1.1v-.2H213.7c.1 0 0 .1 0 .2l.4.6.6.4 1.1.2c.7 0 1.2-.1 1.6-.4.3-.2.4-.5.4-1 0-.2 0-.4-.2-.6l-.8-.5-1.4-.4-1.4-.6c-.4-.2-.7-.4-.9-.7-.2-.3-.3-.7-.3-1.2a2.4 2.4 0 0 1 1.3-2l1.7-.2c.5 0 1 0 1.3.2a2.6 2.6 0 0 1 1.5 1.2l.2.8v.1H217.5l-.1-.1c0-.4-.2-.6-.6-.9s-.7-.3-1.2-.3-1 .1-1.3.3c-.3.2-.5.5-.5 1l.3.6c.1.2.4.4.7.5l1.3.4 1.5.6 1 .7.2 1.1c0 .5-.1 1-.4 1.3-.2.4-.6.7-1 .8-.5.2-1.1.3-1.8.3zm7.2 0c-.6 0-1.1-.1-1.5-.3s-.7-.6-1-1c-.2-.4-.3-.9-.3-1.4a9 9 0 0 1 0-1c0-.6.1-1 .3-1.5l1-1c.4-.2 1-.3 1.5-.3s1.1.2 1.5.4.7.5 1 1c.2.4.3.8.3 1.4a8.7 8.7 0 0 1 0 1c0 .5-.1 1-.3 1.4-.2.4-.6.7-1 1s-.9.3-1.5.3zm0-.9c.5 0 .9-.2 1.2-.5.3-.3.5-.8.5-1.4a7 7 0 0 0 0-.9c0-.6-.2-1-.5-1.4-.3-.3-.7-.4-1.2-.4s-.9.1-1.2.4c-.3.4-.4.8-.5 1.4a7 7 0 0 0 0 1c0 .5.2 1 .5 1.3.3.3.7.5 1.2.5zm6.7 1c-.5 0-1-.2-1.3-.4-.4-.2-.7-.6-.8-1s-.3-.9-.3-1.4v-3.6H228.4v3.6c0 1.2.6 1.7 1.6 1.7.5 0 .9-.1 1.2-.4.3-.3.4-.8.4-1.3V372l.1-.2h1V378l-.2.1h-.8v-.8l-.8.7-1.2.2zm5.1-.2h-.2v-6.2h1v.8l.7-.6 1-.2h.7V372.7H237c-.4 0-.8.2-1 .5-.3.2-.4.6-.4 1v3.7l-.3.1zm6.7.1c-.5 0-1 0-1.5-.3-.4-.2-.7-.5-.9-1l-.4-1.4a7.6 7.6 0 0 1 0-1c0-.6.2-1 .4-1.5.2-.4.5-.7 1-1a3 3 0 0 1 1.4-.3l1.2.2.8.5.5.7.2.6v.2l-.3.1h-.7l-.2-.2c-.1-.4-.3-.7-.5-.9s-.6-.2-1-.2-.8.1-1.1.4c-.3.3-.5.8-.5 1.5v.8c0 .7.2 1.1.5 1.4.3.3.7.5 1.1.5.4 0 .7-.1 1-.3s.4-.4.5-.8l.2-.2H244l.1.2a1.8 1.8 0 0 1-.4 1 2.3 2.3 0 0 1-1.3.9l-1 .1zm6.6 0c-.8 0-1.5-.2-2-.7-.4-.5-.7-1.2-.8-2.1a5.3 5.3 0 0 1 0-.8c0-.6.2-1 .4-1.5.3-.4.6-.8 1-1 .4-.2.9-.4 1.4-.4.6 0 1.1.2 1.5.4.4.3.8.6 1 1.1s.3 1 .3 1.7v.4H246.3v.1c0 .4 0 .7.2 1l.5.7c.2.2.6.2 1 .2a1.7 1.7 0 0 0 1.3-.6l.2-.2h1v.2c0 .1 0 .3-.2.4 0 .2-.2.4-.5.5l-.8.5-1 .1zm-1.6-3.7h3.3l-.2-1-.6-.6c-.3-.2-.5-.3-.9-.3s-.6.1-.9.3c-.2.1-.4.3-.5.6l-.2 1zM269.3 378h-.2V369.6l.2-.1h.8l.1.3v3.3h4.1v-3.3l.1-.2.2-.1h.8l.1.3v8l-.3.1h-.8V374.2h-4.2v3.6l-.3.1zm10.7.1c-.6 0-1.1-.1-1.5-.3s-.7-.6-1-1c-.2-.4-.3-.9-.3-1.4a9 9 0 0 1 0-1c0-.6.1-1 .3-1.5l1-1c.4-.2.9-.3 1.5-.3s1.1.2 1.5.4.7.5 1 1c.2.4.3.8.3 1.4a8.7 8.7 0 0 1 0 1c0 .5-.1 1-.3 1.4l-1 1c-.4.3-.9.3-1.5.3zm0-.9c.5 0 .9-.2 1.2-.5.3-.3.4-.8.5-1.4a7 7 0 0 0 0-.9c0-.6-.2-1-.5-1.4-.3-.3-.7-.4-1.2-.4s-.9.1-1.2.4c-.3.4-.5.8-.5 1.4a7 7 0 0 0 0 1c0 .5.2 1 .5 1.3.3.3.7.5 1.2.5zm4.6.8h-.2v-6.2H285.3l.1.2v.5c.2-.3.4-.5.7-.6a2 2 0 0 1 1-.3c1 0 1.6.4 2 1.1.1-.3.4-.6.8-.8s.7-.3 1.2-.3c.4 0 .7.1 1 .3.4.2.7.5.9.9.2.4.3.9.3 1.5v3.4l-.1.2-.2.1h-.8V374.3l-.2-1c-.1-.3-.3-.5-.5-.6l-.7-.2c-.3 0-.5 0-.7.2l-.5.5c-.2.3-.2.6-.2 1v3.4l-.1.2-.2.1h-.8V374.3l-.2-1c-.1-.3-.4-.5-.6-.6l-.7-.2c-.2 0-.4 0-.6.2l-.5.5c-.2.3-.2.6-.2 1v3.4l-.1.2-.2.1zm12.9.1c-.8 0-1.5-.2-2-.7-.5-.5-.7-1.2-.8-2.1a5.3 5.3 0 0 1 0-.8c0-.6.2-1 .4-1.5.2-.4.6-.8 1-1 .4-.2.8-.4 1.4-.4.6 0 1.1.2 1.5.4.4.3.7.6 1 1.1s.3 1 .3 1.7v.2l-.1.2h-4.4v.1c0 .4.1.7.3 1 0 .3.3.5.5.7s.5.2.9.2a1.7 1.7 0 0 0 1.4-.6l.2-.2H300l.1.2c0 .1 0 .3-.2.4l-.5.5-.8.5-1.1.1zm-1.7-3.7h3.3c0-.4 0-.7-.2-1 0-.3-.3-.5-.5-.6-.3-.2-.6-.3-1-.3s-.6.1-.8.3l-.6.6c-.2.3-.2.6-.2 1zm6.2 5.9-.2-.1V371.8h.9l.1.2v.6a2.3 2.3 0 0 1 2-1c.4 0 .8.1 1.1.3.4.1.6.3.8.6l.5.9.2 1a6.6 6.6 0 0 1-.2 2l-.5.9a2.2 2.2 0 0 1-1.9.8c-.5 0-.9 0-1.2-.2l-.7-.7v2.8l-.1.2h-.2zm2.5-3.2c.5 0 .8 0 1-.2.3-.2.4-.4.5-.7l.2-1v-.7c0-.3 0-.6-.2-.9 0-.3-.2-.5-.5-.7-.2-.2-.5-.3-1-.3-.3 0-.7.1-1 .3l-.5.7-.1.9a7.4 7.4 0 0 0 0 .9l.1.8.6.7c.2.2.6.2 1 .2zm6.1 1c-.4 0-.8 0-1-.2l-.9-.7c-.2-.3-.3-.5-.3-.9 0-.5.2-1 .7-1.3s1-.6 1.7-.7l1.8-.2v-.4c0-.3 0-.6-.3-.9-.2-.2-.6-.3-1-.3s-.7 0-1 .2l-.4.6c0 .1-.1.2-.3.2h-.5l-.2-.1V372.8l.5-.6.7-.4a3 3 0 0 1 1.1-.2l1.2.2a1.8 1.8 0 0 1 1.2 1.2l.2.8v4l-.1.1-.2.1h-.8v-.8l-.5.4a2.4 2.4 0 0 1-1.6.5zm.3-.9c.3 0 .6 0 .9-.2l.6-.6.2-1.2v-.3l-1.4.2c-.5 0-1 .2-1.2.4-.3.2-.5.4-.5.7 0 .2 0 .4.2.6l.5.3.7.1zm7.1 3.4c-.5 0-1 0-1.3-.2l-.8-.5a2 2 0 0 1-.4-.6l-.2-.5.1-.2h1v.2l.3.4.4.3c.2.2.5.2.9.2l1-.1c.2-.1.4-.3.5-.6l.2-1v-.8l-.7.6c-.4.2-.8.2-1.2.2-.5 0-.9 0-1.2-.2l-.8-.6a3 3 0 0 1-.4-1 4.8 4.8 0 0 1-.2-1.7c0-.4 0-.7.2-1 0-.4.2-.7.4-1 .2-.3.5-.5.8-.6.3-.2.7-.3 1.2-.3s.9.1 1.2.3l.7.7v-.6l.1-.2h1V378c0 .5 0 1-.2 1.4a2 2 0 0 1-1 1c-.3.2-.9.3-1.6.3zm0-3.5c.4 0 .7-.1 1-.3l.5-.7.2-.8a5.9 5.9 0 0 0 0-.9c0-.3 0-.5-.2-.8l-.5-.7c-.3-.2-.6-.3-1-.3s-.7.1-1 .3l-.5.7-.1 1v.6l.1 1 .6.6c.2.2.5.3 1 .3zm7.1 1c-.8 0-1.5-.2-2-.7-.4-.5-.7-1.2-.7-2.1a5.3 5.3 0 0 1 0-.8c0-.6.1-1 .4-1.5.2-.4.5-.8.9-1 .4-.2.9-.4 1.4-.4.6 0 1.1.2 1.6.4.4.3.7.6.9 1.1s.3 1 .3 1.7v.4H323.4v.1c0 .4 0 .7.2 1 .1.3.3.5.6.7s.5.2.8.2a1.7 1.7 0 0 0 1.5-.6l.1-.2h1v.2l-.1.4c-.2.2-.3.4-.6.5l-.8.5-1 .1zm-1.6-3.7h3.3c0-.4 0-.7-.2-1-.1-.3-.3-.5-.6-.6-.2-.2-.5-.3-.9-.3s-.6.1-.9.3c-.2.1-.4.3-.5.6l-.2 1z"/><rect width="66" height="23" x="32.5" y="398.5" fill="#fff" rx="11.5"/><rect width="66" height="23" x="32.5" y="398.5" stroke="#d2d2d2" rx="11.5"/><path fill="#3d3d3d" d="M48 414.1c-.6 0-1.2-.1-1.7-.4-.5-.2-.9-.6-1.1-1a4 4 0 0 1-.5-1.8 49.2 49.2 0 0 1 0-2.2c0-.7.2-1.2.5-1.7.2-.5.6-.9 1.1-1.1s1.1-.4 1.8-.4c.6 0 1 0 1.5.2l1 .6c.3.3.5.5.6.8l.2.7v.2h-1.1l-.1-.2a2 2 0 0 0-1-1.1l-1.1-.2c-.6 0-1.2.2-1.5.5-.4.4-.6 1-.7 1.7v2.2c0 .8.3 1.3.7 1.7a2.7 2.7 0 0 0 2.7.3c.3-.2.5-.4.7-.8s.3-.7.3-1.2v-.5h-2V409.4H51.4l.1.2v1.2c0 .6-.1 1.2-.4 1.7-.3.5-.7.9-1.2 1.1a4 4 0 0 1-1.8.4zm7.5 0c-.8 0-1.4-.2-2-.7-.4-.5-.7-1.2-.7-2.1a5.3 5.3 0 0 1 0-.8c0-.6.1-1 .4-1.5.2-.4.5-.8 1-1 .3-.2.8-.4 1.3-.4.6 0 1.2.2 1.6.4.4.3.7.6 1 1.1s.2 1 .2 1.7v.4h-4.4v.1l.2 1 .6.7c.3.2.5.2.8.2a1.7 1.7 0 0 0 1.5-.6l.1-.2h1v.2l-.1.4-.5.5c-.2.1-.5.4-.9.5l-1 .1zm-1.6-3.7h3.3c0-.4 0-.7-.2-1-.1-.3-.3-.5-.6-.6-.2-.2-.5-.3-.9-.3s-.6.1-.8.3c-.3.1-.5.3-.6.6l-.2 1zM60 414h-.2v-6.2h1v.8l.9-.7c.3-.2.7-.3 1.2-.3s1 .2 1.3.4c.4.2.7.5.8 1 .2.3.3.8.3 1.3v3.6l-.2.1H64.2V410.3c0-.6-.2-1-.4-1.3-.3-.3-.7-.5-1.2-.5s-1 .2-1.2.5c-.3.3-.5.7-.5 1.3v3.5l-.3.1zm9.5.1c-.8 0-1.4-.2-2-.7-.4-.5-.7-1.2-.7-2.1a5.3 5.3 0 0 1 0-.8c0-.6.1-1 .4-1.5.2-.4.5-.8.9-1 .4-.2.9-.4 1.4-.4.6 0 1.1.2 1.6.4.4.3.7.6.9 1.1s.3 1 .3 1.7v.4h-4.4v.1c0 .4 0 .7.2 1 .1.3.3.5.6.7s.5.2.8.2a1.7 1.7 0 0 0 1.5-.6l.1-.2h1v.2l-.1.4-.5.5c-.2.1-.5.4-.9.5l-1 .1zm-1.6-3.7h3.3c0-.4 0-.7-.2-1-.1-.3-.3-.5-.6-.6-.2-.2-.5-.3-.9-.3s-.6.1-.9.3c-.2.1-.4.3-.5.6l-.2 1zM74 414h-.2v-6.2h1c.1 0 0 .2 0 .2v.6l.7-.6 1-.2h.7V408.7H76.3c-.4 0-.8.2-1 .5-.3.2-.4.6-.4 1v3.7l-.3.1zm6 .1c-.4 0-.8 0-1.1-.2l-.8-.7c-.2-.3-.3-.5-.3-.9 0-.5.2-1 .7-1.3s1-.6 1.7-.7l1.8-.2v-.4l-.3-.9c-.3-.2-.6-.3-1.1-.3-.4 0-.7 0-.9.2-.2.2-.4.4-.4.6l-.3.2h-.5l-.2-.1-.1-.2.1-.4.5-.6.7-.4a3 3 0 0 1 1.1-.2l1.2.2A1.8 1.8 0 0 1 83 409l.1.8v4.1l-.3.1h-.7v-.8l-.5.4a2.4 2.4 0 0 1-1.6.5zm.2-.9c.3 0 .6 0 1-.2l.6-.6.2-1.2v-.3l-1.4.2c-.6 0-1 .2-1.3.4-.3.2-.4.4-.4.7 0 .2 0 .4.2.6l.5.3.6.1zm5 .8h-.3v-8.4l.2-.1h.8v8.4l-.2.1z"/><rect width="82" height="40" x="311" y="296" fill="#3c81f6" rx="8"/><path fill="#fff" d="M327.9 320h-.2v-.4l3-7.7v-.2l.3-.1h1l.2.3 3 7.7V320l-.3.1h-.8v-.2l-.7-1.7h-4l-.6 1.7-.1.1-.2.1zm1.9-3h3.2l-1.6-4.2zm8.7 3.1c-.4 0-.8 0-1.1-.2l-.8-.6a3 3 0 0 1-.5-1 4.8 4.8 0 0 1-.2-1.4 5.8 5.8 0 0 1 .2-1.5l.5-.9c.2-.3.5-.5.8-.6.3-.2.7-.3 1.1-.3.5 0 .9.1 1.2.3l.8.6V311.6l.2-.1h.8v8.4l-.2.1h-.7l-.1-.3v-.5l-.8.7-1.2.2zm.3-1c.4 0 .7 0 1-.2s.3-.4.5-.7l.2-.9a7.4 7.4 0 0 0 0-1l-.2-.8-.6-.6c-.2-.2-.5-.3-1-.3-.3 0-.7.1-.9.3l-.5.7-.2 1v.6c0 .4 0 .7.2 1 0 .3.3.5.5.7.2.2.6.2 1 .2zm6.9 1c-.5 0-.9 0-1.2-.2l-.8-.6a3 3 0 0 1-.4-1 4.8 4.8 0 0 1-.2-1.4 5.8 5.8 0 0 1 .2-1.5c0-.3.2-.6.4-.9.2-.3.5-.5.8-.6.3-.2.7-.3 1.2-.3.4 0 .8.1 1.1.3l.8.6V311.6l.3-.1h.7l.1.3v8.1l-.3.1h-.7v-.8l-.8.7-1.2.2zm.2-1c.4 0 .7 0 1-.2s.4-.4.5-.7l.2-.9a7.4 7.4 0 0 0 0-1c0-.2 0-.5-.2-.8l-.6-.6c-.2-.2-.5-.3-.9-.3s-.7.1-1 .3l-.5.7-.2 1v.6l.2 1 .5.7c.3.2.6.2 1 .2z"/><g stroke="#fff" stroke-linecap="round" stroke-width="1.5"><path d="M361.2 316h12.6M367.5 309.7v12.6"/></g></svg>