<svg fill="none" height="933" viewBox="0 0 576 280" width="1920" xmlns="http://www.w3.org/2000/svg" xmlns:xlink="http://www.w3.org/1999/xlink"><linearGradient id="a" gradientUnits="userSpaceOnUse" x1="117" x2="117" y1="57.8" y2="124"><stop offset="0" stop-color="#3c81f6"/><stop offset="1" stop-color="#3169c7"/></linearGradient><path clip-rule="evenodd" d="m133 95.1c4.3-29.5 33.2-52.3 68.2-52.3s63.8 22.8 68.2 52.2c33.8 3.8 60 29 60 59.6 0 33.2-30.8 60-68.8 60-6.3 0-12.3-.7-18-2-12 8.7-20 12.6-44.2 14-112.8 6.4-125.4-38.7-125.4-71.9 0-30.7 26.1-55.8 60-59.7z" fill="#3c81f6" fill-rule="evenodd" opacity=".6"/><path d="m121.6 124.1s6.8 47.3 78.1 46.6" stroke="#fff" stroke-miterlimit="10" stroke-width="2"/><path clip-rule="evenodd" d="m315.2 126.9c5.4-20.6 31-35 60.4-32.8s52.4 20 54.3 41c28.3 4.8 48.8 24.2 47 45.7-2 23.4-17.1 50.2-114.3 42.9-95-7.2-103.1-35-101.2-58.4 1.8-21.6 25.2-37.8 53.8-38.4z" fill="#3c81f6" fill-rule="evenodd" opacity=".6"/><path d="m396.1 215.2s50.6 4.7 66.4-60.5" stroke="#fff" stroke-miterlimit="10" stroke-width="2"/><path d="m386.7 82h-202.7c-3.3 0-5.9 2-5.9 4.5v117.8c0 2.5 2.6 4.5 5.9 4.5h202.8c3.2 0 5.9-2 5.9-4.5v-117.8c0-2.5-2.7-4.5-5.9-4.5z" fill="#d8e0e0"/><path d="m384.9 88h-199.2v114.8h199.2z" fill="#fff"/><path d="m337.8 102.1h-105.7c-2.1 0-3.8 1.6-3.8 3.6s1.7 3.6 3.8 3.6h105.7c2.1 0 3.8-1.6 3.8-3.6s-1.7-3.6-3.8-3.6z" fill="#e8edef"/><path d="m333.6 103.1c-1-1-2.9-.9-3.8.3-.5.8-.5 1.8 0 2.6.8 1 2.1 1.3 3.2.8l1.3 1.2c.3.3.8.3 1 0 .4-.3.4-.7 0-1l-1.3-1.2c.5-1 .4-2-.4-2.7zm-.7 2.6c-.6.5-1.5.5-2 0-.6-.6-.6-1.4 0-2 .5-.5 1.4-.5 2 0 .5.6.5 1.4 0 2zm-140.4-10.3c1.1 0 2-.8 2-1.9s-.9-2-2-2-2 1-2 2 .9 2 2 2zm7.2 0c1.1 0 2-.8 2-1.9s-.9-2-2-2-2 1-2 2 .9 2 2 2zm7.2 0c1.1 0 2-.8 2-1.9s-.9-2-2-2-2 1-2 2 .9 2 2 2z" fill="#ec4899" opacity=".6"/><path d="m384.8 187.8v15.2h-199.4v-48.9c23.7-9.6 70.1-26 71.5-13.8 1.7 14.8-11.1 38.6 17.7 35.3 28.9-3.3 88.8-30.4 87.1-9-.9 11.3 11.4 17.7 23.1 21.2z" fill="#71abff" opacity=".6"/><path d="m144.2 231.5v4.2c0 .9.7 1.5 1.6 1.5h284.2c.8 0 1.6-.6 1.6-1.5v-4.2z" fill="#899695"/><path d="m430.9 232.6h-286.4c-.8 0-1.1-.9-.5-1.4l34.4-26.9 110 .1h.4l103.7-.1 38.9 26.9c.6.5.3 1.4-.6 1.4z" fill="#d8e0e0"/><path d="m396 223.1h-216.3l13.5-14.3h185.3z" fill="#899695"/><path d="m377.7 68.7h-3c-.2-.5-.3-1-.6-1.3l2.2-2c.5-.5.5-1.3 0-1.7l-2.8-2.6c-.5-.5-1.3-.5-1.8 0l-2.1 2-1.4-.6v-2.8c0-.7-.6-1.2-1.3-1.2h-3.9c-.7 0-1.3.6-1.3 1.2v2.8l-1.4.6-2.1-2c-.5-.5-1.4-.5-1.9 0l-2.7 2.6c-.5.4-.5 1.2 0 1.7l2.1 2-.5 1.3h-3c-.8 0-1.4.5-1.4 1.2v3.6c0 .7.6 1.2 1.3 1.2h3l.6 1.3-2 2c-.6.5-.6 1.3 0 1.8l2.6 2.5c.5.5 1.4.5 1.9 0l2.1-2 1.4.6v2.8c0 .7.6 1.2 1.3 1.2h3.9c.7 0 1.3-.5 1.3-1.2v-2.8l1.4-.6 2 2c.6.5 1.4.5 2 0l2.7-2.5c.5-.5.5-1.3 0-1.8l-2.2-2 .6-1.3h3c.7 0 1.3-.5 1.3-1.2v-3.5c0-.7-.6-1.2-1.3-1.2zm-12.8 8c-2.9 0-5.3-2.3-5.3-5s2.4-5 5.3-5 5.3 2.3 5.3 5-2.4 5-5.3 5z" fill="#fcb4d9"/><path d="m376.6 66.9h-3l-.6-1.3 2-2c.6-.5.6-1.3 0-1.7l-2.6-2.6c-.5-.5-1.4-.5-1.9 0l-2.1 2-1.4-.5v-2.9c0-.6-.6-1.2-1.3-1.2h-3.8c-.8 0-1.3.6-1.3 1.2v2.9l-1.5.5-2-2c-.6-.5-1.4-.5-2 0l-2.6 2.6c-.6.4-.6 1.2 0 1.7l2 2-.5 1.3h-3c-.7 0-1.3.5-1.3 1.2v3.6c0 .7.6 1.2 1.3 1.2h3l.6 1.4-2.1 2c-.6.4-.6 1.2 0 1.7l2.7 2.5c.5.5 1.3.5 1.8 0l2.1-2 1.5.6v2.8c0 .7.5 1.2 1.3 1.2h3.8c.7 0 1.3-.5 1.3-1.2v-2.8l1.4-.6 2.1 2c.5.5 1.4.5 1.9 0l2.6-2.5c.5-.5.5-1.3 0-1.7l-2.1-2 .6-1.4h3c.7 0 1.3-.5 1.3-1.2v-3.6c0-.7-.6-1.2-1.3-1.2zm-12.8 8c-3 0-5.3-2.2-5.3-5 0-2.7 2.4-5 5.3-5s5.3 2.3 5.3 5c0 2.8-2.4 5-5.3 5z" stroke="#ec4899" stroke-miterlimit="10"/><path d="m426 87.7h-5c-.2-.8-.6-1.5-1-2.2l3.6-3.3c.8-.8.8-2 0-2.9l-4.5-4.2c-.8-.8-2.2-.8-3 0l-3.6 3.3a17 17 0 0 0 -2.3-.9v-4.7c0-1-1-2-2.2-2h-6.3c-1.2 0-2.2 1-2.2 2v4.7l-2.3 1-3.5-3.4c-.9-.8-2.2-.8-3 0l-4.6 4.2a2 2 0 0 0 0 2.9l3.5 3.3-1 2.2h-5c-1.1 0-2 .9-2 2v6c0 1 .9 2 2 2h5l1 2.2-3.5 3.3a2 2 0 0 0 0 2.8l4.5 4.3c.9.7 2.2.7 3 0l3.6-3.4 2.3 1v4.6c0 1.1 1 2 2.2 2h6.3c1.2 0 2.2-.9 2.2-2v-4.5a18 18 0 0 0 2.3-1l3.6 3.4c.8.7 2.2.7 3 0l4.5-4.3c.8-.8.8-2 0-2.8l-3.5-3.3 1-2.2h5c1.1 0 2-1 2-2v-6c0-1.1-.9-2-2-2zm-21 13.2c-4.9 0-8.8-3.7-8.8-8.2s4-8.2 8.8-8.2 8.7 3.7 8.7 8.2-4 8.2-8.7 8.2z" fill="#e3eeff"/><path d="m424.1 84.7h-5c-.2-.7-.6-1.5-1-2.2l3.6-3.3c.8-.8.8-2 0-2.8l-4.5-4.3c-.9-.7-2.2-.7-3 0l-3.6 3.4a17 17 0 0 0 -2.3-1v-4.5c0-1.1-1-2-2.2-2h-6.3c-1.2 0-2.2.9-2.2 2v4.6l-2.3 1-3.6-3.4c-.8-.7-2.2-.7-3 0l-4.5 4.3a2 2 0 0 0 0 2.8l3.5 3.3-1 2.2h-5c-1.1 0-2 1-2 2v6c0 1.1.9 2 2 2h5l1 2.2-3.5 3.3a2 2 0 0 0 0 2.9l4.5 4.2c.8.8 2.2.8 3 0l3.6-3.3 2.3.9v4.7c0 1 1 2 2.2 2h6.3c1.2 0 2.2-1 2.2-2v-4.7a18 18 0 0 0 2.3-1l3.5 3.4c.9.8 2.2.8 3 0l4.6-4.2c.8-.8.8-2 0-2.9l-3.5-3.3 1-2.2h5c1.1 0 2-.9 2-2v-6c0-1-.9-2-2-2zm-21.1 13.3c-4.8 0-8.7-3.6-8.7-8.2 0-4.5 4-8.2 8.7-8.2 4.9 0 8.8 3.7 8.8 8.2 0 4.6-4 8.2-8.8 8.2z" stroke="#2d76e0" stroke-miterlimit="10"/><path d="m457.9 152.5c-.3-10 8.2-18.1 18.7-18.3s19.3 7.7 19.5 17.5l.6 29.4-5.7.1-.7-29.4c-.1-6.9-6.2-12.4-13.6-12.2-7.4.1-13.2 5.8-13.1 12.8l.2 6.5-5.8.5-.1-7z" fill="#fcb4d9"/><path d="m457 187.6 40.1.2c3.2 0 5.8-2.4 5.8-5.4l.1-20.2c0-3-2.5-5.4-5.7-5.4l-40-.2c-3.2 0-5.8 2.4-5.8 5.4l-.1 20.2c0 3 2.5 5.4 5.7 5.4z" fill="#fcb4d9"/><path d="m472.8 168.2c0-2.2 1.8-4 4.2-4 2.4-.1 4.3 1.6 4.4 3.9a4 4 0 0 1 -3 3.9v6h-2.3l-.1-6c-1.8-.4-3.2-2-3.2-3.8z" fill="#f7f7f7"/><path d="m499 159.9v20.3c-.1 3-2.7 5.4-5.9 5.4l-40.2-.2c-3.2 0-5.7-2.4-5.7-5.4v-20.3c0-3 2.7-5.4 5.9-5.4h.7l-.1-4.2c-.2-9.9 8.2-18.1 18.8-18.3s19.4 7.7 19.6 17.6v5h1.2c3.1 0 5.7 2.5 5.7 5.5z" stroke="#ec4899" stroke-miterlimit="10"/><path d="m470.6 166.9c0-2.3 1.8-4.1 4.2-4.2 2.4 0 4.4 1.8 4.4 4a4 4 0 0 1 -3 4v6h-2.2l-.1-6c-1.8-.5-3.2-2-3.2-3.8z" stroke="#ec4899" stroke-miterlimit="10"/><path d="m117 57.8c11.2 0 20.4 8.2 21.8 18.9a21.7 21.7 0 0 1 19.2 21.3 21.8 21.8 0 0 1 -27.8 20.8 22.2 22.2 0 0 1 -27.8.3 21.8 21.8 0 0 1 -26.4-21.1c0-11 8.4-20 19.2-21.3a21.9 21.9 0 0 1 21.8-18.9z" fill="url(#a)"/><path clip-rule="evenodd" d="m127.6 88c1 1.2 1 3.1 0 4.2l-7.9 8.8c-2.7 3.3-4.4 3.3-7.2 0l-5-5.5c-1-1.1-1-3 0-4.1 1-1.2 2.7-1.2 3.8 0l4.8 5.3 7.8-8.6c1-1.2 2.7-1.2 3.7 0z" fill="#fff" fill-rule="evenodd"/><path clip-rule="evenodd" d="m282.6 128a80.8 80.8 0 0 0 -34 7.5c0 11.1 0 38.9 34 57.8 34.1-19 34-46.7 34-57.8a80.8 80.8 0 0 0 -34-7.5z" stroke="#2d76e0" stroke-miterlimit="10"/><path d="m282.3 170.5 20-25.3c-1.5-1.1-2.8-.4-3.5.2l-16.7 16.4-6.3-7.1c-3-3.3-7-.8-8-.2z" stroke="#2d76e0" stroke-miterlimit="10"/><g clip-rule="evenodd" fill-rule="evenodd"><path d="m285.5 118.6c-12 0-23.2 3.5-32.4 9.6a58.9 58.9 0 0 0 32.3 56.1l.1.1a58.9 58.9 0 0 0 32.4-56.2c-9.2-6-20.4-9.6-32.4-9.6z" fill="#3c81f6"/><path d="m295.7 142.5c1 1 1 2.9 0 4l-7.6 8.4c-2.6 3.2-4.2 3.2-7 0l-4.7-5.3c-1-1-1-2.9 0-4s2.6-1.1 3.6 0l4.6 5.2 7.5-8.3c1-1.2 2.6-1.2 3.6 0z" fill="#fff"/></g></svg>